<svg width="808" height="471" viewBox="0 0 808 471" fill="none" xmlns="http://www.w3.org/2000/svg">
<g filter="url(#filter0_d)">
<path d="M764.795 457.289C763.407 460.018 761.826 461.158 759.046 462.146C758.368 462.388 757.65 462.49 756.93 462.489L52.6367 461.606C47.5095 461.311 45.7017 459.608 44.3233 454.805C44.1599 454.236 44.0884 453.643 44.0884 453.05V87.7664C44.0884 83.9004 40.9544 80.7664 37.0884 80.7664H25.9999C25.0976 80.7664 24.1926 80.6118 23.3874 80.2046C20.6835 78.8371 19.7484 77.1829 19.1543 74.0766C19.0682 73.6263 19.0368 73.1647 19.0639 72.7069C19.2696 69.2285 20.2184 67.2931 23.0185 65.3008C24.0429 64.572 25.2972 64.2594 26.5544 64.2594H59.0007C60.0504 64.2594 61.0924 64.0295 62.0268 63.5512C67.6482 60.6741 70.2077 58.0205 70.8668 50.94C70.8997 50.5864 70.9 50.2235 70.8683 49.8697C70.1906 42.2966 67.5217 39.732 62.0197 36.9534C61.0892 36.4835 60.0544 36.2564 59.012 36.2564H11.7831C11.3118 36.2564 10.8384 36.2121 10.3798 36.1039C6.04952 35.0818 4.79619 33.3495 4.12957 29.6712C4.03544 29.1518 4.01642 28.6191 4.07033 28.094C4.52325 23.6828 5.86319 21.6534 10.0387 20.1056C10.7183 19.8537 11.4452 19.7494 12.17 19.7494H38.562C42.428 19.7494 45.5623 16.6154 45.5623 12.7494V7.06009C45.5623 6.48234 45.6272 5.9034 45.7919 5.34963C46.713 2.25367 48.0915 0.864204 52.0628 0.102738C52.4426 0.0299181 52.831 0 53.2177 0H757.372C757.995 0 758.619 0.0773293 759.213 0.26326C762.908 1.41796 764.339 2.93132 765.211 6.33834C765.336 6.82515 765.385 7.32788 765.385 7.83041V371.482C765.385 375.348 768.519 378.482 772.385 378.482H780.945C781.767 378.482 782.588 378.618 783.347 378.933C787.369 380.603 788.721 382.442 788.945 386.513C788.964 386.856 788.949 387.202 788.902 387.543C788.269 392.148 786.662 393.85 783.739 395.588C782.735 396.185 781.575 396.463 780.407 396.463H748.232C747.682 396.463 747.133 396.525 746.601 396.663C739.214 398.587 736.952 401.492 736.263 408.743C736.22 409.201 736.229 409.663 736.29 410.119C737.238 417.131 739.541 419.992 746.558 422.152C747.117 422.324 747.7 422.411 748.285 422.427L798.265 423.815C799.696 423.855 801.152 424.266 802.099 425.339C803.604 427.045 803.773 428.799 804 431.54C803.744 436.162 802.37 438.04 798.828 439.782C797.974 440.202 797.024 440.383 796.072 440.383H772.385C768.519 440.383 765.385 443.517 765.385 447.383V454.594C765.385 455.526 765.217 456.459 764.795 457.289Z" fill="#F8F8F8"/>
</g>
<path d="M44.0898 445.689V213.412C234.707 216.251 302.875 263.17 326.477 461.606H56.47C46.9609 462.292 43.7714 459.543 44.0898 445.689Z" fill="#F8D988"/>
<path d="M106.998 114.234H104.157L92.081 160.997C92.081 160.997 91.8442 192.088 94.6856 207.254C94.6856 207.254 99.4213 200.682 102.736 200.682C106.051 200.682 109.129 167.569 109.129 167.569C109.129 167.569 122.152 120.3 106.998 114.234Z" fill="#3F3D56"/>
<path d="M169.507 203.715C169.507 203.715 161.929 226.464 169.033 227.981C176.136 229.498 179.925 210.287 178.031 207.759C176.136 205.231 169.507 203.715 169.507 203.715Z" fill="#A0616A"/>
<path d="M93.9121 199.015C93.9121 199.015 96.0421 223.052 103.081 221.225C110.12 219.398 105.956 200.276 103.239 198.838C100.522 197.401 93.9121 199.015 93.9121 199.015Z" fill="#A0616A"/>
<path d="M112.206 339.706C112.206 339.706 115.521 356.895 109.838 361.445C104.155 365.994 111.732 375.6 111.732 375.6L129.728 355.378C129.728 355.378 122.151 342.739 122.624 335.156L112.206 339.706Z" fill="#A0616A"/>
<path d="M140.622 355.378L138.727 369.028L138.254 378.633L148.672 377.622L150.093 357.906L140.622 355.378Z" fill="#A0616A"/>
<path d="M100.525 201.424C100.525 201.424 94.6846 203.715 95.1582 210.287C95.6317 216.859 97.0524 237.587 97.0524 237.587C97.0524 237.587 92.7903 282.074 97.0524 297.241C101.315 312.407 109.365 342.74 109.365 342.74C109.365 342.74 121.678 345.267 124.519 335.662C124.519 335.662 124.046 302.802 118.837 295.724C113.627 288.647 117.416 286.624 117.889 285.613C118.363 284.602 119.784 283.086 119.784 281.569C119.784 280.052 120.257 274.491 120.257 272.469C120.257 270.447 119.784 270.953 120.731 267.919C121.678 264.886 122.625 263.875 122.625 263.369C122.625 262.864 130.676 236.07 130.676 236.07L141.094 298.252C141.094 298.252 138.726 359.423 139.673 359.423C140.621 359.423 151.039 363.467 154.828 359.423C154.828 359.423 164.299 306.846 162.405 303.813C160.51 300.78 160.037 300.274 160.51 297.241C160.984 294.208 161.931 292.691 160.984 291.174C160.037 289.658 158.616 284.602 160.037 283.086C161.458 281.569 161.931 274.491 161.931 274.491C161.931 274.491 169.982 224.948 164.772 217.87C159.563 210.793 100.525 201.424 100.525 201.424Z" fill="#2F2E41"/>
<path d="M116.468 361.951C116.468 361.951 110.786 354.367 108.891 357.906C106.997 361.445 104.156 367.006 104.156 367.006C104.156 367.006 82.8452 386.722 94.6844 387.228C106.524 387.733 114.101 378.634 114.101 378.634C114.101 378.634 115.995 368.523 121.678 368.523L122.625 371.05L133.043 363.973C133.043 363.973 131.576 350.55 127.337 350.942L116.468 361.951Z" fill="#2F2E41"/>
<path d="M136.356 377.116C136.356 377.116 148.669 372.061 150.089 377.116C151.51 382.172 151.51 384.7 151.51 384.7C151.51 384.7 161.929 402.899 151.51 403.91C141.092 404.921 136.356 397.844 136.356 397.844C136.356 397.844 137.777 389.25 136.356 388.238C134.935 387.227 136.356 377.116 136.356 377.116Z" fill="#2F2E41"/>
<path d="M144.885 98.056C154.039 98.056 161.46 90.1342 161.46 80.362C161.46 70.5899 154.039 62.668 144.885 62.668C135.731 62.668 128.311 70.5899 128.311 80.362C128.311 90.1342 135.731 98.056 144.885 98.056Z" fill="#A0616A"/>
<path d="M132.571 84.4062L129.256 104.122L152.461 110.189C152.461 110.189 147.015 95.781 152.934 89.4617C154.432 87.863 132.571 84.4062 132.571 84.4062Z" fill="#A0616A"/>
<path d="M130.67 95.7227C130.11 95.8351 129.592 96.1136 129.175 96.5264C128.758 96.9391 128.458 97.4692 128.31 98.0557C127.897 99.5082 127.256 100.876 126.416 102.1C126.416 102.1 104.158 113.222 104.158 114.739C104.158 116.255 113.156 148.61 113.156 148.61C113.156 148.61 113.63 168.832 109.841 173.382C106.053 177.932 102.264 194.615 103.211 196.131C104.158 197.648 96.5812 201.187 99.4226 203.714C102.264 206.242 142.044 230.508 165.722 219.386C165.722 219.386 166.195 214.836 165.722 211.803C165.248 208.77 168.563 198.659 167.616 195.12C166.669 191.581 167.616 155.182 167.616 155.182L172.497 112.081C172.59 111.263 172.41 110.435 171.988 109.744C171.567 109.053 170.931 108.542 170.192 108.302C164.733 106.531 152.076 99.2809 150.331 100.836C148.072 102.85 133.976 101.478 130.67 95.7227Z" fill="#3F3D56"/>
<path d="M168.087 108.167L168.117 108.154C168.795 107.864 169.543 107.823 170.245 108.038C170.946 108.252 171.561 108.71 171.991 109.339C174.926 113.626 181.102 123.261 181.821 129.4C182.768 137.489 185.609 159.227 185.135 162.261C184.662 165.294 184.188 165.799 185.135 167.316C186.083 168.833 185.609 168.327 185.135 169.844C184.662 171.36 178.979 213.32 178.979 213.32C178.979 213.32 175.191 204.221 168.087 207.254C168.087 207.254 169.034 199.165 168.087 196.638C167.14 194.11 166.193 192.593 167.14 190.571C168.087 188.549 167.14 168.833 166.666 166.81C166.193 164.788 166.666 154.172 166.666 154.172L162.404 133.445L168.087 108.167Z" fill="#3F3D56"/>
<path d="M141.787 83.3746L142.347 79.2083C142.477 78.2372 143.009 76.9604 143.894 77.2245C144.647 77.4491 146.287 78.137 146.562 77.9294C147.59 77.1517 149.146 78.5115 150.227 77.8207C150.68 77.5313 150.976 76.9112 151.503 76.8698C151.856 76.8939 152.189 77.0549 152.439 77.3225C153.141 77.9741 153.968 78.4538 154.862 78.7277C155.31 78.8581 155.783 78.8581 156.232 78.7276C156.68 78.597 157.088 78.3408 157.413 77.9855C157.527 77.7962 157.682 77.6381 157.864 77.5238C158.077 77.4581 158.305 77.4693 158.512 77.5557L161.275 78.3587C161.682 76.786 161.765 75.1381 161.52 73.5277C161.275 71.9174 160.707 70.3825 159.855 69.028C158.734 67.4039 157.375 65.9834 155.831 64.821C154.12 63.4315 152.354 62.1245 150.534 60.9002C148.541 59.5565 146.428 58.289 144.098 57.9112C141.768 57.5336 139.16 58.2093 137.694 60.1794C137.005 59.6468 136.487 58.8996 136.211 58.0403C136.046 58.1999 135.917 58.396 135.831 58.6149C135.746 58.8338 135.706 59.07 135.716 59.307C135.725 59.5439 135.783 59.7758 135.885 59.9862C135.988 60.1966 136.132 60.3805 136.309 60.5248L133.972 58.9319C133.315 59.6682 134.599 61.0032 134.039 61.8259C133.87 62.0294 133.653 62.1808 133.41 62.2644C132.141 62.7923 130.978 63.5735 129.984 64.5664C128.641 66.004 127.912 67.9553 127.286 69.8725C125.893 74.1367 124.881 79.0269 126.86 83.0185C127.084 83.4711 130.044 90.9401 130.439 91.2314C131.772 92.2159 130.904 89.8332 131.859 91.2314C132.608 92.3278 132.468 88.1314 133.582 89.0525C134.018 89.386 134.536 89.5771 135.072 89.6029C135.608 89.6286 136.14 89.4878 136.603 89.1976C137.064 88.8558 136.915 86.9582 136.666 85.2155C136.619 84.8836 136.648 84.5442 136.752 84.2272C136.856 83.9102 137.031 83.6252 137.262 83.3972C137.493 83.1692 137.772 83.0052 138.077 82.9195C138.381 82.8338 138.7 82.8291 139.006 82.9057C140.393 83.2539 141.763 83.5515 141.787 83.3746Z" fill="#2F2E41"/>
<path opacity="0.1" d="M164.605 123.642L168.794 174.14C168.794 174.14 159.942 131.787 164.605 123.642Z" fill="black"/>
<defs>
<filter id="filter0_d" x="0.0410156" y="0" width="807.959" height="470.489" filterUnits="userSpaceOnUse" color-interpolation-filters="sRGB">
<feFlood flood-opacity="0" result="BackgroundImageFix"/>
<feColorMatrix in="SourceAlpha" type="matrix" values="0 0 0 0 0 0 0 0 0 0 0 0 0 0 0 0 0 0 127 0"/>
<feOffset dy="4"/>
<feGaussianBlur stdDeviation="2"/>
<feColorMatrix type="matrix" values="0 0 0 0 0 0 0 0 0 0 0 0 0 0 0 0 0 0 0.25 0"/>
<feBlend mode="normal" in2="BackgroundImageFix" result="effect1_dropShadow"/>
<feBlend mode="normal" in="SourceGraphic" in2="effect1_dropShadow" result="shape"/>
</filter>
</defs>
</svg>
