<svg width="285" height="398" viewBox="0 0 285 398" fill="none" xmlns="http://www.w3.org/2000/svg">
<g filter="url(#filter0_d)">
<rect x="4.16797" y="52.1006" width="264.722" height="37.0736" rx="12" fill="white"/>
</g>
<path d="M52.7907 59.5146H30.386C28.9604 59.5146 27.8008 60.7273 27.8008 62.2179V78.4376C27.8008 79.9283 28.9604 81.1409 30.386 81.1409H52.7907C54.2163 81.1409 55.3759 79.9283 55.3759 78.4376V62.2179C55.3759 60.7273 54.2163 59.5146 52.7907 59.5146V59.5146ZM52.7907 61.3168C52.9078 61.3168 53.0192 61.3422 53.121 61.3866L41.5884 71.8387L30.0556 61.3866C30.1575 61.3423 30.2688 61.3168 30.3859 61.3168H52.7907ZM52.7907 79.3387H30.386C29.9105 79.3387 29.5242 78.9348 29.5242 78.4375V63.2906L41.0237 73.7121C41.1861 73.8591 41.3872 73.9321 41.5884 73.9321C41.7895 73.9321 41.9906 73.8591 42.153 73.7121L53.6525 63.2906V78.4376C53.6524 78.9348 53.2662 79.3387 52.7907 79.3387V79.3387Z" fill="black"/>
<g filter="url(#filter1_d)">
<rect x="4.16797" y="108.329" width="264.722" height="37.0736" rx="12" fill="white"/>
</g>
<g clip-path="url(#clip0)">
<path d="M42.575 125.63C39.3169 125.63 36.666 122.858 36.666 119.451C36.666 116.044 39.3169 113.272 42.575 113.272C45.8332 113.272 48.484 116.044 48.484 119.451C48.484 122.858 45.8332 125.63 42.575 125.63V125.63ZM42.575 114.817C40.1312 114.817 38.1433 116.896 38.1433 119.451C38.1433 122.007 40.1312 124.086 42.575 124.086C45.0188 124.086 47.0067 122.007 47.0067 119.451C47.0067 116.896 45.0188 114.817 42.575 114.817V114.817Z" fill="black"/>
<path d="M52.1771 137.988H32.973C32.5647 137.988 32.2344 137.643 32.2344 137.216V131.899C32.2344 131.101 32.6246 130.351 33.2522 129.941C38.799 126.323 46.3562 126.324 51.8973 129.94C52.5256 130.351 52.9158 131.101 52.9158 131.899V137.216C52.9158 137.643 52.5855 137.988 52.1771 137.988V137.988ZM33.7116 136.444H51.4386V131.899C51.4386 131.63 51.3145 131.381 51.1147 131.25C46.0431 127.94 39.1106 127.938 34.0348 131.251C33.8357 131.381 33.7117 131.63 33.7117 131.899L33.7116 136.444Z" fill="black"/>
</g>
<g filter="url(#filter2_d)">
<rect x="4.16797" y="164.557" width="264.722" height="37.0736" rx="12" fill="white"/>
</g>
<path d="M41.4095 187.84L41.0989 190.761C41.0835 190.906 41.1282 191.052 41.2215 191.161C41.3148 191.27 41.4485 191.333 41.5884 191.333H43.5581C43.698 191.333 43.8317 191.27 43.925 191.161C44.0183 191.052 44.063 190.906 44.0476 190.761L43.7369 187.84C44.2414 187.456 44.5429 186.849 44.5429 186.184C44.5429 185.048 43.6595 184.124 42.5732 184.124C41.4869 184.124 40.6035 185.048 40.6035 186.184C40.6035 186.849 40.9051 187.456 41.4095 187.84ZM42.5732 185.154C43.1161 185.154 43.558 185.616 43.558 186.184C43.558 186.578 43.3435 186.932 42.9983 187.107C42.8102 187.202 42.7001 187.411 42.7232 187.627L43.0079 190.303H42.1385L42.4232 187.627C42.4463 187.411 42.3362 187.202 42.1482 187.107C41.8029 186.932 41.5884 186.578 41.5884 186.184C41.5884 185.616 42.0303 185.154 42.5732 185.154Z" fill="black"/>
<path d="M50.9474 180.005H49.4701V177.945C49.4701 173.97 46.3777 170.736 42.5763 170.736C38.775 170.736 35.6826 173.97 35.6826 177.945V180.005H34.2053C33.9331 180.005 33.7129 180.235 33.7129 180.52V193.392C33.7129 194.528 34.5962 195.452 35.6826 195.452H49.4702C50.5565 195.452 51.4398 194.528 51.4398 193.392V180.52C51.4398 180.235 51.2195 180.005 50.9474 180.005ZM36.6674 177.945C36.6674 174.538 39.318 171.766 42.5763 171.766C45.8347 171.766 48.4853 174.538 48.4853 177.945V180.005H47.5005V177.945C47.5005 175.106 45.2914 172.796 42.5763 172.796C39.8613 172.796 37.6522 175.106 37.6522 177.945V180.005H36.6674V177.945ZM46.5156 177.945V180.005H38.637V177.945C38.637 175.674 40.4042 173.826 42.5763 173.826C44.7484 173.826 46.5156 175.674 46.5156 177.945ZM50.455 193.392C50.455 193.96 50.0131 194.422 49.4702 194.422H35.6826C35.1397 194.422 34.6977 193.96 34.6977 193.392V181.035H50.455V193.392V193.392Z" fill="black"/>
<defs>
<filter id="filter0_d" x="0.167969" y="52.1006" width="272.722" height="45.0736" filterUnits="userSpaceOnUse" color-interpolation-filters="sRGB">
<feFlood flood-opacity="0" result="BackgroundImageFix"/>
<feColorMatrix in="SourceAlpha" type="matrix" values="0 0 0 0 0 0 0 0 0 0 0 0 0 0 0 0 0 0 127 0"/>
<feOffset dy="4"/>
<feGaussianBlur stdDeviation="2"/>
<feColorMatrix type="matrix" values="0 0 0 0 0 0 0 0 0 0 0 0 0 0 0 0 0 0 0.25 0"/>
<feBlend mode="normal" in2="BackgroundImageFix" result="effect1_dropShadow"/>
<feBlend mode="normal" in="SourceGraphic" in2="effect1_dropShadow" result="shape"/>
</filter>
<filter id="filter1_d" x="0.167969" y="108.329" width="272.722" height="45.0736" filterUnits="userSpaceOnUse" color-interpolation-filters="sRGB">
<feFlood flood-opacity="0" result="BackgroundImageFix"/>
<feColorMatrix in="SourceAlpha" type="matrix" values="0 0 0 0 0 0 0 0 0 0 0 0 0 0 0 0 0 0 127 0"/>
<feOffset dy="4"/>
<feGaussianBlur stdDeviation="2"/>
<feColorMatrix type="matrix" values="0 0 0 0 0 0 0 0 0 0 0 0 0 0 0 0 0 0 0.25 0"/>
<feBlend mode="normal" in2="BackgroundImageFix" result="effect1_dropShadow"/>
<feBlend mode="normal" in="SourceGraphic" in2="effect1_dropShadow" result="shape"/>
</filter>
<filter id="filter2_d" x="0.167969" y="164.557" width="272.722" height="45.0736" filterUnits="userSpaceOnUse" color-interpolation-filters="sRGB">
<feFlood flood-opacity="0" result="BackgroundImageFix"/>
<feColorMatrix in="SourceAlpha" type="matrix" values="0 0 0 0 0 0 0 0 0 0 0 0 0 0 0 0 0 0 127 0"/>
<feOffset dy="4"/>
<feGaussianBlur stdDeviation="2"/>
<feColorMatrix type="matrix" values="0 0 0 0 0 0 0 0 0 0 0 0 0 0 0 0 0 0 0.25 0"/>
<feBlend mode="normal" in2="BackgroundImageFix" result="effect1_dropShadow"/>
<feBlend mode="normal" in="SourceGraphic" in2="effect1_dropShadow" result="shape"/>
</filter>
<clipPath id="clip0">
<rect x="30.7578" y="113.272" width="23.6359" height="24.7157" fill="white"/>
</clipPath>
</defs>
</svg>
