<svg width="284" height="422" viewBox="0 0 284 422" fill="none" xmlns="http://www.w3.org/2000/svg">
<g filter="url(#filter0_d)">
<rect x="4.16797" y="76.1006" width="264.722" height="37.0736" rx="12" fill="white"/>
</g>
<path d="M52.7907 83.5146H30.386C28.9604 83.5146 27.8008 84.7273 27.8008 86.2179V102.438C27.8008 103.928 28.9604 105.141 30.386 105.141H52.7907C54.2163 105.141 55.3759 103.928 55.3759 102.438V86.2179C55.3759 84.7273 54.2163 83.5146 52.7907 83.5146V83.5146ZM52.7907 85.3168C52.9078 85.3168 53.0192 85.3422 53.121 85.3866L41.5884 95.8387L30.0556 85.3866C30.1575 85.3423 30.2688 85.3168 30.3859 85.3168H52.7907ZM52.7907 103.339H30.386C29.9105 103.339 29.5242 102.935 29.5242 102.438V87.2906L41.0237 97.7121C41.1861 97.8591 41.3872 97.9321 41.5884 97.9321C41.7895 97.9321 41.9906 97.8591 42.153 97.7121L53.6525 87.2906V102.438C53.6524 102.935 53.2662 103.339 52.7907 103.339V103.339Z" fill="black"/>
<g filter="url(#filter1_d)">
<rect x="4.16797" y="132.329" width="264.722" height="37.0736" rx="12" fill="white"/>
</g>
<g clip-path="url(#clip0)">
<path d="M42.575 149.63C39.3169 149.63 36.666 146.858 36.666 143.451C36.666 140.044 39.3169 137.272 42.575 137.272C45.8332 137.272 48.484 140.044 48.484 143.451C48.484 146.858 45.8332 149.63 42.575 149.63V149.63ZM42.575 138.817C40.1312 138.817 38.1433 140.896 38.1433 143.451C38.1433 146.007 40.1312 148.086 42.575 148.086C45.0188 148.086 47.0067 146.007 47.0067 143.451C47.0067 140.896 45.0188 138.817 42.575 138.817V138.817Z" fill="black"/>
<path d="M52.1771 161.988H32.973C32.5647 161.988 32.2344 161.643 32.2344 161.216V155.899C32.2344 155.101 32.6246 154.351 33.2522 153.941C38.799 150.323 46.3562 150.324 51.8973 153.94C52.5256 154.351 52.9158 155.101 52.9158 155.899V161.216C52.9158 161.643 52.5855 161.988 52.1771 161.988V161.988ZM33.7116 160.444H51.4386V155.899C51.4386 155.63 51.3145 155.381 51.1147 155.25C46.0431 151.94 39.1106 151.938 34.0348 155.251C33.8357 155.381 33.7117 155.63 33.7117 155.899L33.7116 160.444Z" fill="black"/>
</g>
<g filter="url(#filter2_d)">
<rect x="4.16797" y="188.557" width="264.722" height="37.0736" rx="12" fill="white"/>
</g>
<path d="M41.4095 211.84L41.0989 214.761C41.0835 214.906 41.1282 215.052 41.2215 215.161C41.3148 215.27 41.4485 215.333 41.5884 215.333H43.5581C43.698 215.333 43.8317 215.27 43.925 215.161C44.0183 215.052 44.063 214.906 44.0476 214.761L43.7369 211.84C44.2414 211.456 44.5429 210.849 44.5429 210.184C44.5429 209.048 43.6595 208.124 42.5732 208.124C41.4869 208.124 40.6035 209.048 40.6035 210.184C40.6035 210.849 40.9051 211.456 41.4095 211.84ZM42.5732 209.154C43.1161 209.154 43.558 209.616 43.558 210.184C43.558 210.578 43.3435 210.932 42.9983 211.107C42.8102 211.202 42.7001 211.411 42.7232 211.627L43.0079 214.303H42.1385L42.4232 211.627C42.4463 211.411 42.3362 211.202 42.1482 211.107C41.8029 210.932 41.5884 210.578 41.5884 210.184C41.5884 209.616 42.0303 209.154 42.5732 209.154Z" fill="black"/>
<path d="M50.9474 204.005H49.4701V201.945C49.4701 197.97 46.3777 194.736 42.5763 194.736C38.775 194.736 35.6826 197.97 35.6826 201.945V204.005H34.2053C33.9331 204.005 33.7129 204.235 33.7129 204.52V217.392C33.7129 218.528 34.5962 219.452 35.6826 219.452H49.4702C50.5565 219.452 51.4398 218.528 51.4398 217.392V204.52C51.4398 204.235 51.2195 204.005 50.9474 204.005ZM36.6674 201.945C36.6674 198.538 39.318 195.766 42.5763 195.766C45.8347 195.766 48.4853 198.538 48.4853 201.945V204.005H47.5005V201.945C47.5005 199.106 45.2914 196.796 42.5763 196.796C39.8613 196.796 37.6522 199.106 37.6522 201.945V204.005H36.6674V201.945ZM46.5156 201.945V204.005H38.637V201.945C38.637 199.674 40.4042 197.826 42.5763 197.826C44.7484 197.826 46.5156 199.674 46.5156 201.945ZM50.455 217.392C50.455 217.96 50.0131 218.422 49.4702 218.422H35.6826C35.1397 218.422 34.6977 217.96 34.6977 217.392V205.035H50.455V217.392V217.392Z" fill="black"/>
<defs>
<filter id="filter0_d" x="0.167969" y="76.1006" width="272.722" height="45.0736" filterUnits="userSpaceOnUse" color-interpolation-filters="sRGB">
<feFlood flood-opacity="0" result="BackgroundImageFix"/>
<feColorMatrix in="SourceAlpha" type="matrix" values="0 0 0 0 0 0 0 0 0 0 0 0 0 0 0 0 0 0 127 0"/>
<feOffset dy="4"/>
<feGaussianBlur stdDeviation="2"/>
<feColorMatrix type="matrix" values="0 0 0 0 0 0 0 0 0 0 0 0 0 0 0 0 0 0 0.25 0"/>
<feBlend mode="normal" in2="BackgroundImageFix" result="effect1_dropShadow"/>
<feBlend mode="normal" in="SourceGraphic" in2="effect1_dropShadow" result="shape"/>
</filter>
<filter id="filter1_d" x="0.167969" y="132.329" width="272.722" height="45.0736" filterUnits="userSpaceOnUse" color-interpolation-filters="sRGB">
<feFlood flood-opacity="0" result="BackgroundImageFix"/>
<feColorMatrix in="SourceAlpha" type="matrix" values="0 0 0 0 0 0 0 0 0 0 0 0 0 0 0 0 0 0 127 0"/>
<feOffset dy="4"/>
<feGaussianBlur stdDeviation="2"/>
<feColorMatrix type="matrix" values="0 0 0 0 0 0 0 0 0 0 0 0 0 0 0 0 0 0 0.25 0"/>
<feBlend mode="normal" in2="BackgroundImageFix" result="effect1_dropShadow"/>
<feBlend mode="normal" in="SourceGraphic" in2="effect1_dropShadow" result="shape"/>
</filter>
<filter id="filter2_d" x="0.167969" y="188.557" width="272.722" height="45.0736" filterUnits="userSpaceOnUse" color-interpolation-filters="sRGB">
<feFlood flood-opacity="0" result="BackgroundImageFix"/>
<feColorMatrix in="SourceAlpha" type="matrix" values="0 0 0 0 0 0 0 0 0 0 0 0 0 0 0 0 0 0 127 0"/>
<feOffset dy="4"/>
<feGaussianBlur stdDeviation="2"/>
<feColorMatrix type="matrix" values="0 0 0 0 0 0 0 0 0 0 0 0 0 0 0 0 0 0 0.25 0"/>
<feBlend mode="normal" in2="BackgroundImageFix" result="effect1_dropShadow"/>
<feBlend mode="normal" in="SourceGraphic" in2="effect1_dropShadow" result="shape"/>
</filter>
<clipPath id="clip0">
<rect x="30.7578" y="137.272" width="23.6359" height="24.7157" fill="white"/>
</clipPath>
</defs>
</svg>
