<svg width="285" height="381" viewBox="0 0 285 381" fill="none" xmlns="http://www.w3.org/2000/svg">
<path d="M7.00781 14.3945C5.07812 13.8398 3.67188 13.1602 2.78906 12.3555C1.91406 11.543 1.47656 10.543 1.47656 9.35547C1.47656 8.01172 2.01172 6.90234 3.08203 6.02734C4.16016 5.14453 5.55859 4.70312 7.27734 4.70312C8.44922 4.70312 9.49219 4.92969 10.4062 5.38281C11.3281 5.83594 12.0391 6.46094 12.5391 7.25781C13.0469 8.05469 13.3008 8.92578 13.3008 9.87109H11.0391C11.0391 8.83984 10.7109 8.03125 10.0547 7.44531C9.39844 6.85156 8.47266 6.55469 7.27734 6.55469C6.16797 6.55469 5.30078 6.80078 4.67578 7.29297C4.05859 7.77734 3.75 8.45312 3.75 9.32031C3.75 10.0156 4.04297 10.6055 4.62891 11.0898C5.22266 11.5664 6.22656 12.0039 7.64062 12.4023C9.0625 12.8008 10.1719 13.2422 10.9688 13.7266C11.7734 14.2031 12.3672 14.7617 12.75 15.4023C13.1406 16.043 13.3359 16.7969 13.3359 17.6641C13.3359 19.0469 12.7969 20.1562 11.7188 20.9922C10.6406 21.8203 9.19922 22.2344 7.39453 22.2344C6.22266 22.2344 5.12891 22.0117 4.11328 21.5664C3.09766 21.1133 2.3125 20.4961 1.75781 19.7148C1.21094 18.9336 0.9375 18.0469 0.9375 17.0547H3.19922C3.19922 18.0859 3.57812 18.9023 4.33594 19.5039C5.10156 20.0977 6.12109 20.3945 7.39453 20.3945C8.58203 20.3945 9.49219 20.1523 10.125 19.668C10.7578 19.1836 11.0742 18.5234 11.0742 17.6875C11.0742 16.8516 10.7812 16.207 10.1953 15.7539C9.60938 15.293 8.54688 14.8398 7.00781 14.3945ZM18.2461 22H16.0781V9.32031H18.2461V22ZM15.9023 5.95703C15.9023 5.60547 16.0078 5.30859 16.2188 5.06641C16.4375 4.82422 16.7578 4.70312 17.1797 4.70312C17.6016 4.70312 17.9219 4.82422 18.1406 5.06641C18.3594 5.30859 18.4688 5.60547 18.4688 5.95703C18.4688 6.30859 18.3594 6.60156 18.1406 6.83594C17.9219 7.07031 17.6016 7.1875 17.1797 7.1875C16.7578 7.1875 16.4375 7.07031 16.2188 6.83594C16.0078 6.60156 15.9023 6.30859 15.9023 5.95703ZM21.2109 15.5547C21.2109 13.5781 21.668 12.0078 22.582 10.8438C23.4961 9.67188 24.707 9.08594 26.2148 9.08594C27.7617 9.08594 28.9688 9.63281 29.8359 10.7266L29.9414 9.32031H31.9219V21.6953C31.9219 23.3359 31.4336 24.6289 30.457 25.5742C29.4883 26.5195 28.1836 26.9922 26.543 26.9922C25.6289 26.9922 24.7344 26.7969 23.8594 26.4062C22.9844 26.0156 22.3164 25.4805 21.8555 24.8008L22.9805 23.5C23.9102 24.6484 25.0469 25.2227 26.3906 25.2227C27.4453 25.2227 28.2656 24.9258 28.8516 24.332C29.4453 23.7383 29.7422 22.9023 29.7422 21.8242V20.7344C28.875 21.7344 27.6914 22.2344 26.1914 22.2344C24.707 22.2344 23.5039 21.6367 22.582 20.4414C21.668 19.2461 21.2109 17.6172 21.2109 15.5547ZM23.3906 15.8008C23.3906 17.2305 23.6836 18.3555 24.2695 19.1758C24.8555 19.9883 25.6758 20.3945 26.7305 20.3945C28.0977 20.3945 29.1016 19.7734 29.7422 18.5312V12.7422C29.0781 11.5312 28.082 10.9258 26.7539 10.9258C25.6992 10.9258 24.875 11.3359 24.2812 12.1562C23.6875 12.9766 23.3906 14.1914 23.3906 15.8008ZM37.2539 9.32031L37.3242 10.9141C38.293 9.69531 39.5586 9.08594 41.1211 9.08594C43.8008 9.08594 45.1523 10.5977 45.1758 13.6211V22H43.0078V13.6094C43 12.6953 42.7891 12.0195 42.375 11.582C41.9688 11.1445 41.332 10.9258 40.4648 10.9258C39.7617 10.9258 39.1445 11.1133 38.6133 11.4883C38.082 11.8633 37.668 12.3555 37.3711 12.9648V22H35.2031V9.32031H37.2539ZM66.75 4.9375V16.5391C66.7422 18.1484 66.2344 19.4648 65.2266 20.4883C64.2266 21.5117 62.8672 22.0859 61.1484 22.2109L60.5508 22.2344C58.6836 22.2344 57.1953 21.7305 56.0859 20.7227C54.9766 19.7148 54.4141 18.3281 54.3984 16.5625V4.9375H56.625V16.4922C56.625 17.7266 56.9648 18.6875 57.6445 19.375C58.3242 20.0547 59.293 20.3945 60.5508 20.3945C61.8242 20.3945 62.7969 20.0547 63.4688 19.375C64.1484 18.6953 64.4883 17.7383 64.4883 16.5039V4.9375H66.75ZM80.6719 15.8008C80.6719 17.7305 80.2305 19.2852 79.3477 20.4648C78.4648 21.6445 77.2695 22.2344 75.7617 22.2344C74.2227 22.2344 73.0117 21.7461 72.1289 20.7695V26.875H69.9609V9.32031H71.9414L72.0469 10.7266C72.9297 9.63281 74.1562 9.08594 75.7266 9.08594C77.25 9.08594 78.4531 9.66016 79.3359 10.8086C80.2266 11.957 80.6719 13.5547 80.6719 15.6016V15.8008ZM78.5039 15.5547C78.5039 14.125 78.1992 12.9961 77.5898 12.168C76.9805 11.3398 76.1445 10.9258 75.082 10.9258C73.7695 10.9258 72.7852 11.5078 72.1289 12.6719V18.7305C72.7773 19.8867 73.7695 20.4648 75.1055 20.4648C76.1445 20.4648 76.9688 20.0547 77.5781 19.2344C78.1953 18.4062 78.5039 17.1797 78.5039 15.5547ZM92.332 6.25V9.32031H94.6992V10.9961H92.332V18.8594C92.332 19.3672 92.4375 19.75 92.6484 20.0078C92.8594 20.2578 93.2188 20.3828 93.7266 20.3828C93.9766 20.3828 94.3203 20.3359 94.7578 20.2422V22C94.1875 22.1562 93.6328 22.2344 93.0938 22.2344C92.125 22.2344 91.3945 21.9414 90.9023 21.3555C90.4102 20.7695 90.1641 19.9375 90.1641 18.8594V10.9961H87.8555V9.32031H90.1641V6.25H92.332ZM96.4336 15.543C96.4336 14.3008 96.6758 13.1836 97.1602 12.1914C97.6523 11.1992 98.332 10.4336 99.1992 9.89453C100.074 9.35547 101.07 9.08594 102.188 9.08594C103.914 9.08594 105.309 9.68359 106.371 10.8789C107.441 12.0742 107.977 13.6641 107.977 15.6484V15.8008C107.977 17.0352 107.738 18.1445 107.262 19.1289C106.793 20.1055 106.117 20.8672 105.234 21.4141C104.359 21.9609 103.352 22.2344 102.211 22.2344C100.492 22.2344 99.0977 21.6367 98.0273 20.4414C96.9648 19.2461 96.4336 17.6641 96.4336 15.6953V15.543ZM98.6133 15.8008C98.6133 17.207 98.9375 18.3359 99.5859 19.1875C100.242 20.0391 101.117 20.4648 102.211 20.4648C103.312 20.4648 104.188 20.0352 104.836 19.1758C105.484 18.3086 105.809 17.0977 105.809 15.543C105.809 14.1523 105.477 13.0273 104.812 12.168C104.156 11.3008 103.281 10.8672 102.188 10.8672C101.117 10.8672 100.254 11.293 99.5977 12.1445C98.9414 12.9961 98.6133 14.2148 98.6133 15.8008ZM124.477 20.7461C123.633 21.7383 122.395 22.2344 120.762 22.2344C119.41 22.2344 118.379 21.8438 117.668 21.0625C116.965 20.2734 116.609 19.1094 116.602 17.5703V9.32031H118.77V17.5117C118.77 19.4336 119.551 20.3945 121.113 20.3945C122.77 20.3945 123.871 19.7773 124.418 18.543V9.32031H126.586V22H124.523L124.477 20.7461ZM137.273 18.6367C137.273 18.0508 137.051 17.5977 136.605 17.2773C136.168 16.9492 135.398 16.668 134.297 16.4336C133.203 16.1992 132.332 15.918 131.684 15.5898C131.043 15.2617 130.566 14.8711 130.254 14.418C129.949 13.9648 129.797 13.4258 129.797 12.8008C129.797 11.7617 130.234 10.8828 131.109 10.1641C131.992 9.44531 133.117 9.08594 134.484 9.08594C135.922 9.08594 137.086 9.45703 137.977 10.1992C138.875 10.9414 139.324 11.8906 139.324 13.0469H137.145C137.145 12.4531 136.891 11.9414 136.383 11.5117C135.883 11.082 135.25 10.8672 134.484 10.8672C133.695 10.8672 133.078 11.0391 132.633 11.3828C132.188 11.7266 131.965 12.1758 131.965 12.7305C131.965 13.2539 132.172 13.6484 132.586 13.9141C133 14.1797 133.746 14.4336 134.824 14.6758C135.91 14.918 136.789 15.207 137.461 15.543C138.133 15.8789 138.629 16.2852 138.949 16.7617C139.277 17.2305 139.441 17.8047 139.441 18.4844C139.441 19.6172 138.988 20.5273 138.082 21.2148C137.176 21.8945 136 22.2344 134.555 22.2344C133.539 22.2344 132.641 22.0547 131.859 21.6953C131.078 21.3359 130.465 20.8359 130.02 20.1953C129.582 19.5469 129.363 18.8477 129.363 18.0977H131.531C131.57 18.8242 131.859 19.4023 132.398 19.832C132.945 20.2539 133.664 20.4648 134.555 20.4648C135.375 20.4648 136.031 20.3008 136.523 19.9727C137.023 19.6367 137.273 19.1914 137.273 18.6367ZM147.527 22.2344C145.809 22.2344 144.41 21.6719 143.332 20.5469C142.254 19.4141 141.715 17.9023 141.715 16.0117V15.6133C141.715 14.3555 141.953 13.2344 142.43 12.25C142.914 11.2578 143.586 10.4844 144.445 9.92969C145.312 9.36719 146.25 9.08594 147.258 9.08594C148.906 9.08594 150.188 9.62891 151.102 10.7148C152.016 11.8008 152.473 13.3555 152.473 15.3789V16.2812H143.883C143.914 17.5312 144.277 18.543 144.973 19.3164C145.676 20.082 146.566 20.4648 147.645 20.4648C148.41 20.4648 149.059 20.3086 149.59 19.9961C150.121 19.6836 150.586 19.2695 150.984 18.7539L152.309 19.7852C151.246 21.418 149.652 22.2344 147.527 22.2344ZM147.258 10.8672C146.383 10.8672 145.648 11.1875 145.055 11.8281C144.461 12.4609 144.094 13.3516 143.953 14.5H150.305V14.3359C150.242 13.2344 149.945 12.3828 149.414 11.7812C148.883 11.1719 148.164 10.8672 147.258 10.8672ZM173.836 16.5859C173.625 18.3906 172.957 19.7852 171.832 20.7695C170.715 21.7461 169.227 22.2344 167.367 22.2344C165.352 22.2344 163.734 21.5117 162.516 20.0664C161.305 18.6211 160.699 16.6875 160.699 14.2656V12.625C160.699 11.0391 160.98 9.64453 161.543 8.44141C162.113 7.23828 162.918 6.31641 163.957 5.67578C164.996 5.02734 166.199 4.70312 167.566 4.70312C169.379 4.70312 170.832 5.21094 171.926 6.22656C173.02 7.23438 173.656 8.63281 173.836 10.4219H171.574C171.379 9.0625 170.953 8.07812 170.297 7.46875C169.648 6.85938 168.738 6.55469 167.566 6.55469C166.129 6.55469 165 7.08594 164.18 8.14844C163.367 9.21094 162.961 10.7227 162.961 12.6836V14.3359C162.961 16.1875 163.348 17.6602 164.121 18.7539C164.895 19.8477 165.977 20.3945 167.367 20.3945C168.617 20.3945 169.574 20.1133 170.238 19.5508C170.91 18.9805 171.355 17.9922 171.574 16.5859H173.836ZM178.934 22H176.766V4H178.934V22ZM184.77 22H182.602V9.32031H184.77V22ZM182.426 5.95703C182.426 5.60547 182.531 5.30859 182.742 5.06641C182.961 4.82422 183.281 4.70312 183.703 4.70312C184.125 4.70312 184.445 4.82422 184.664 5.06641C184.883 5.30859 184.992 5.60547 184.992 5.95703C184.992 6.30859 184.883 6.60156 184.664 6.83594C184.445 7.07031 184.125 7.1875 183.703 7.1875C183.281 7.1875 182.961 7.07031 182.742 6.83594C182.531 6.60156 182.426 6.30859 182.426 5.95703ZM193.336 20.4648C194.109 20.4648 194.785 20.2305 195.363 19.7617C195.941 19.293 196.262 18.707 196.324 18.0039H198.375C198.336 18.7305 198.086 19.4219 197.625 20.0781C197.164 20.7344 196.547 21.2578 195.773 21.6484C195.008 22.0391 194.195 22.2344 193.336 22.2344C191.609 22.2344 190.234 21.6602 189.211 20.5117C188.195 19.3555 187.688 17.7773 187.688 15.7773V15.4141C187.688 14.1797 187.914 13.082 188.367 12.1211C188.82 11.1602 189.469 10.4141 190.312 9.88281C191.164 9.35156 192.168 9.08594 193.324 9.08594C194.746 9.08594 195.926 9.51172 196.863 10.3633C197.809 11.2148 198.312 12.3203 198.375 13.6797H196.324C196.262 12.8594 195.949 12.1875 195.387 11.6641C194.832 11.1328 194.145 10.8672 193.324 10.8672C192.223 10.8672 191.367 11.2656 190.758 12.0625C190.156 12.8516 189.855 13.9961 189.855 15.4961V15.9062C189.855 17.3672 190.156 18.4922 190.758 19.2812C191.359 20.0703 192.219 20.4648 193.336 20.4648ZM204.352 16.1289L202.992 17.5469V22H200.824V4H202.992V14.8867L204.152 13.4922L208.102 9.32031H210.738L205.805 14.6172L211.312 22H208.77L204.352 16.1289ZM226.441 14.0195C226.441 15.6914 226.16 17.1523 225.598 18.4023C225.035 19.6445 224.238 20.5938 223.207 21.25C222.176 21.9062 220.973 22.2344 219.598 22.2344C218.254 22.2344 217.062 21.9062 216.023 21.25C214.984 20.5859 214.176 19.6445 213.598 18.4258C213.027 17.1992 212.734 15.7812 212.719 14.1719V12.9414C212.719 11.3008 213.004 9.85156 213.574 8.59375C214.145 7.33594 214.949 6.375 215.988 5.71094C217.035 5.03906 218.23 4.70312 219.574 4.70312C220.941 4.70312 222.145 5.03516 223.184 5.69922C224.23 6.35547 225.035 7.3125 225.598 8.57031C226.16 9.82031 226.441 11.2773 226.441 12.9414V14.0195ZM224.203 12.918C224.203 10.8945 223.797 9.34375 222.984 8.26562C222.172 7.17969 221.035 6.63672 219.574 6.63672C218.152 6.63672 217.031 7.17969 216.211 8.26562C215.398 9.34375 214.98 10.8438 214.957 12.7656V14.0195C214.957 15.9805 215.367 17.5234 216.188 18.6484C217.016 19.7656 218.152 20.3242 219.598 20.3242C221.051 20.3242 222.176 19.7969 222.973 18.7422C223.77 17.6797 224.18 16.1602 224.203 14.1836V12.918ZM231.527 9.32031L231.598 10.9141C232.566 9.69531 233.832 9.08594 235.395 9.08594C238.074 9.08594 239.426 10.5977 239.449 13.6211V22H237.281V13.6094C237.273 12.6953 237.062 12.0195 236.648 11.582C236.242 11.1445 235.605 10.9258 234.738 10.9258C234.035 10.9258 233.418 11.1133 232.887 11.4883C232.355 11.8633 231.941 12.3555 231.645 12.9648V22H229.477V9.32031H231.527ZM247.805 20.4648C248.578 20.4648 249.254 20.2305 249.832 19.7617C250.41 19.293 250.73 18.707 250.793 18.0039H252.844C252.805 18.7305 252.555 19.4219 252.094 20.0781C251.633 20.7344 251.016 21.2578 250.242 21.6484C249.477 22.0391 248.664 22.2344 247.805 22.2344C246.078 22.2344 244.703 21.6602 243.68 20.5117C242.664 19.3555 242.156 17.7773 242.156 15.7773V15.4141C242.156 14.1797 242.383 13.082 242.836 12.1211C243.289 11.1602 243.938 10.4141 244.781 9.88281C245.633 9.35156 246.637 9.08594 247.793 9.08594C249.215 9.08594 250.395 9.51172 251.332 10.3633C252.277 11.2148 252.781 12.3203 252.844 13.6797H250.793C250.73 12.8594 250.418 12.1875 249.855 11.6641C249.301 11.1328 248.613 10.8672 247.793 10.8672C246.691 10.8672 245.836 11.2656 245.227 12.0625C244.625 12.8516 244.324 13.9961 244.324 15.4961V15.9062C244.324 17.3672 244.625 18.4922 245.227 19.2812C245.828 20.0703 246.688 20.4648 247.805 20.4648ZM260.543 22.2344C258.824 22.2344 257.426 21.6719 256.348 20.5469C255.27 19.4141 254.73 17.9023 254.73 16.0117V15.6133C254.73 14.3555 254.969 13.2344 255.445 12.25C255.93 11.2578 256.602 10.4844 257.461 9.92969C258.328 9.36719 259.266 9.08594 260.273 9.08594C261.922 9.08594 263.203 9.62891 264.117 10.7148C265.031 11.8008 265.488 13.3555 265.488 15.3789V16.2812H256.898C256.93 17.5312 257.293 18.543 257.988 19.3164C258.691 20.082 259.582 20.4648 260.66 20.4648C261.426 20.4648 262.074 20.3086 262.605 19.9961C263.137 19.6836 263.602 19.2695 264 18.7539L265.324 19.7852C264.262 21.418 262.668 22.2344 260.543 22.2344ZM260.273 10.8672C259.398 10.8672 258.664 11.1875 258.07 11.8281C257.477 12.4609 257.109 13.3516 256.969 14.5H263.32V14.3359C263.258 13.2344 262.961 12.3828 262.43 11.7812C261.898 11.1719 261.18 10.8672 260.273 10.8672Z" fill="black"/>
<g filter="url(#filter0_d)">
<rect x="4.16797" y="52.1006" width="264.722" height="37.0736" rx="12" fill="white"/>
</g>
<path d="M52.7907 59.5146H30.386C28.9604 59.5146 27.8008 60.7273 27.8008 62.2179V78.4376C27.8008 79.9283 28.9604 81.1409 30.386 81.1409H52.7907C54.2163 81.1409 55.3759 79.9283 55.3759 78.4376V62.2179C55.3759 60.7273 54.2163 59.5146 52.7907 59.5146V59.5146ZM52.7907 61.3168C52.9078 61.3168 53.0192 61.3422 53.121 61.3866L41.5884 71.8387L30.0556 61.3866C30.1575 61.3423 30.2688 61.3168 30.3859 61.3168H52.7907ZM52.7907 79.3387H30.386C29.9105 79.3387 29.5242 78.9348 29.5242 78.4375V63.2906L41.0237 73.7121C41.1861 73.8591 41.3872 73.9321 41.5884 73.9321C41.7895 73.9321 41.9906 73.8591 42.153 73.7121L53.6525 63.2906V78.4376C53.6524 78.9348 53.2662 79.3387 52.7907 79.3387V79.3387Z" fill="black"/>
<g filter="url(#filter1_d)">
<rect x="4.16797" y="108.329" width="264.722" height="37.0736" rx="12" fill="white"/>
</g>
<g clip-path="url(#clip0)">
<path d="M42.575 125.63C39.3169 125.63 36.666 122.858 36.666 119.451C36.666 116.044 39.3169 113.272 42.575 113.272C45.8332 113.272 48.484 116.044 48.484 119.451C48.484 122.858 45.8332 125.63 42.575 125.63V125.63ZM42.575 114.817C40.1312 114.817 38.1433 116.896 38.1433 119.451C38.1433 122.007 40.1312 124.086 42.575 124.086C45.0188 124.086 47.0067 122.007 47.0067 119.451C47.0067 116.896 45.0188 114.817 42.575 114.817V114.817Z" fill="black"/>
<path d="M52.1771 137.988H32.973C32.5647 137.988 32.2344 137.643 32.2344 137.216V131.899C32.2344 131.101 32.6246 130.351 33.2522 129.941C38.799 126.323 46.3562 126.324 51.8973 129.94C52.5256 130.351 52.9158 131.101 52.9158 131.899V137.216C52.9158 137.643 52.5855 137.988 52.1771 137.988V137.988ZM33.7116 136.444H51.4386V131.899C51.4386 131.63 51.3145 131.381 51.1147 131.25C46.0431 127.94 39.1106 127.938 34.0348 131.251C33.8357 131.381 33.7117 131.63 33.7117 131.899L33.7116 136.444Z" fill="black"/>
</g>
<g filter="url(#filter2_d)">
<rect x="4.16797" y="164.557" width="264.722" height="37.0736" rx="12" fill="white"/>
</g>
<path d="M41.4095 187.84L41.0989 190.761C41.0835 190.906 41.1282 191.052 41.2215 191.161C41.3148 191.27 41.4485 191.333 41.5884 191.333H43.5581C43.698 191.333 43.8317 191.27 43.925 191.161C44.0183 191.052 44.063 190.906 44.0476 190.761L43.7369 187.84C44.2414 187.456 44.5429 186.849 44.5429 186.184C44.5429 185.048 43.6595 184.124 42.5732 184.124C41.4869 184.124 40.6035 185.048 40.6035 186.184C40.6035 186.849 40.9051 187.456 41.4095 187.84ZM42.5732 185.154C43.1161 185.154 43.558 185.616 43.558 186.184C43.558 186.578 43.3435 186.932 42.9983 187.107C42.8102 187.202 42.7001 187.411 42.7232 187.627L43.0079 190.303H42.1385L42.4232 187.627C42.4463 187.411 42.3362 187.202 42.1482 187.107C41.8029 186.932 41.5884 186.578 41.5884 186.184C41.5884 185.616 42.0303 185.154 42.5732 185.154Z" fill="black"/>
<path d="M50.9474 180.005H49.4701V177.945C49.4701 173.97 46.3777 170.736 42.5763 170.736C38.775 170.736 35.6826 173.97 35.6826 177.945V180.005H34.2053C33.9331 180.005 33.7129 180.235 33.7129 180.52V193.392C33.7129 194.528 34.5962 195.452 35.6826 195.452H49.4702C50.5565 195.452 51.4398 194.528 51.4398 193.392V180.52C51.4398 180.235 51.2195 180.005 50.9474 180.005ZM36.6674 177.945C36.6674 174.538 39.318 171.766 42.5763 171.766C45.8347 171.766 48.4853 174.538 48.4853 177.945V180.005H47.5005V177.945C47.5005 175.106 45.2914 172.796 42.5763 172.796C39.8613 172.796 37.6522 175.106 37.6522 177.945V180.005H36.6674V177.945ZM46.5156 177.945V180.005H38.637V177.945C38.637 175.674 40.4042 173.826 42.5763 173.826C44.7484 173.826 46.5156 175.674 46.5156 177.945ZM50.455 193.392C50.455 193.96 50.0131 194.422 49.4702 194.422H35.6826C35.1397 194.422 34.6977 193.96 34.6977 193.392V181.035H50.455V193.392V193.392Z" fill="black"/>
<path d="M140.417 291.015C140.417 292.269 140.206 293.364 139.784 294.302C139.362 295.233 138.765 295.945 137.991 296.438C137.218 296.93 136.315 297.176 135.284 297.176C134.276 297.176 133.383 296.93 132.604 296.438C131.824 295.939 131.218 295.233 130.784 294.319C130.356 293.399 130.137 292.336 130.125 291.129V290.206C130.125 288.976 130.339 287.889 130.767 286.945C131.194 286.002 131.798 285.281 132.577 284.783C133.362 284.279 134.259 284.027 135.267 284.027C136.292 284.027 137.194 284.276 137.974 284.774C138.759 285.267 139.362 285.984 139.784 286.928C140.206 287.865 140.417 288.958 140.417 290.206V291.015ZM138.738 290.188C138.738 288.671 138.434 287.508 137.824 286.699C137.215 285.885 136.362 285.478 135.267 285.478C134.2 285.478 133.359 285.885 132.744 286.699C132.135 287.508 131.821 288.633 131.804 290.074V291.015C131.804 292.485 132.111 293.643 132.727 294.486C133.348 295.324 134.2 295.743 135.284 295.743C136.374 295.743 137.218 295.348 137.815 294.557C138.413 293.76 138.721 292.62 138.738 291.138V290.188ZM147.642 291.823H144.636V297H142.939V284.203H147.176C148.617 284.203 149.725 284.531 150.498 285.188C151.277 285.844 151.667 286.799 151.667 288.053C151.667 288.85 151.45 289.544 151.017 290.136C150.589 290.728 149.991 291.17 149.224 291.463L152.229 296.895V297H150.419L147.642 291.823ZM144.636 290.443H147.229C148.066 290.443 148.731 290.227 149.224 289.793C149.722 289.359 149.971 288.779 149.971 288.053C149.971 287.262 149.733 286.655 149.259 286.233C148.79 285.812 148.11 285.598 147.22 285.592H144.636V290.443Z" fill="black"/>
<line x1="31" y1="291.858" x2="123.18" y2="291.858" stroke="black"/>
<line x1="156.861" y1="291.858" x2="249.041" y2="291.858" stroke="black"/>
<path d="M93.2559 324.296C91.8086 323.88 90.7539 323.37 90.0918 322.767C89.4355 322.157 89.1074 321.407 89.1074 320.517C89.1074 319.509 89.5088 318.677 90.3115 318.021C91.1201 317.358 92.1689 317.027 93.458 317.027C94.3369 317.027 95.1191 317.197 95.8047 317.537C96.4961 317.877 97.0293 318.346 97.4043 318.943C97.7852 319.541 97.9756 320.194 97.9756 320.903H96.2793C96.2793 320.13 96.0332 319.523 95.541 319.084C95.0488 318.639 94.3545 318.416 93.458 318.416C92.626 318.416 91.9756 318.601 91.5068 318.97C91.0439 319.333 90.8125 319.84 90.8125 320.49C90.8125 321.012 91.0322 321.454 91.4717 321.817C91.917 322.175 92.6699 322.503 93.7305 322.802C94.7969 323.101 95.6289 323.432 96.2266 323.795C96.8301 324.152 97.2754 324.571 97.5625 325.052C97.8555 325.532 98.002 326.098 98.002 326.748C98.002 327.785 97.5977 328.617 96.7891 329.244C95.9805 329.865 94.8994 330.176 93.5459 330.176C92.667 330.176 91.8467 330.009 91.085 329.675C90.3232 329.335 89.7344 328.872 89.3184 328.286C88.9082 327.7 88.7031 327.035 88.7031 326.291H90.3994C90.3994 327.064 90.6836 327.677 91.252 328.128C91.8262 328.573 92.5908 328.796 93.5459 328.796C94.4365 328.796 95.1191 328.614 95.5938 328.251C96.0684 327.888 96.3057 327.393 96.3057 326.766C96.3057 326.139 96.0859 325.655 95.6465 325.315C95.207 324.97 94.4102 324.63 93.2559 324.296ZM101.685 330H100.059V320.49H101.685V330ZM99.9268 317.968C99.9268 317.704 100.006 317.481 100.164 317.3C100.328 317.118 100.568 317.027 100.885 317.027C101.201 317.027 101.441 317.118 101.605 317.3C101.77 317.481 101.852 317.704 101.852 317.968C101.852 318.231 101.77 318.451 101.605 318.627C101.441 318.803 101.201 318.891 100.885 318.891C100.568 318.891 100.328 318.803 100.164 318.627C100.006 318.451 99.9268 318.231 99.9268 317.968ZM103.908 325.166C103.908 323.684 104.251 322.506 104.937 321.633C105.622 320.754 106.53 320.314 107.661 320.314C108.821 320.314 109.727 320.725 110.377 321.545L110.456 320.49H111.941V329.771C111.941 331.002 111.575 331.972 110.843 332.681C110.116 333.39 109.138 333.744 107.907 333.744C107.222 333.744 106.551 333.598 105.895 333.305C105.238 333.012 104.737 332.61 104.392 332.101L105.235 331.125C105.933 331.986 106.785 332.417 107.793 332.417C108.584 332.417 109.199 332.194 109.639 331.749C110.084 331.304 110.307 330.677 110.307 329.868V329.051C109.656 329.801 108.769 330.176 107.644 330.176C106.53 330.176 105.628 329.728 104.937 328.831C104.251 327.935 103.908 326.713 103.908 325.166ZM105.543 325.351C105.543 326.423 105.763 327.267 106.202 327.882C106.642 328.491 107.257 328.796 108.048 328.796C109.073 328.796 109.826 328.33 110.307 327.398V323.057C109.809 322.148 109.062 321.694 108.065 321.694C107.274 321.694 106.656 322.002 106.211 322.617C105.766 323.232 105.543 324.144 105.543 325.351ZM115.94 320.49L115.993 321.686C116.72 320.771 117.669 320.314 118.841 320.314C120.851 320.314 121.864 321.448 121.882 323.716V330H120.256V323.707C120.25 323.021 120.092 322.515 119.781 322.187C119.477 321.858 118.999 321.694 118.349 321.694C117.821 321.694 117.358 321.835 116.96 322.116C116.562 322.397 116.251 322.767 116.028 323.224V330H114.402V320.49H115.94ZM138.062 317.203V325.904C138.057 327.111 137.676 328.099 136.92 328.866C136.17 329.634 135.15 330.064 133.861 330.158L133.413 330.176C132.013 330.176 130.896 329.798 130.064 329.042C129.232 328.286 128.811 327.246 128.799 325.922V317.203H130.469V325.869C130.469 326.795 130.724 327.516 131.233 328.031C131.743 328.541 132.47 328.796 133.413 328.796C134.368 328.796 135.098 328.541 135.602 328.031C136.111 327.521 136.366 326.804 136.366 325.878V317.203H138.062ZM148.504 325.351C148.504 326.798 148.173 327.964 147.511 328.849C146.849 329.733 145.952 330.176 144.821 330.176C143.667 330.176 142.759 329.81 142.097 329.077V333.656H140.471V320.49H141.956L142.035 321.545C142.697 320.725 143.617 320.314 144.795 320.314C145.938 320.314 146.84 320.745 147.502 321.606C148.17 322.468 148.504 323.666 148.504 325.201V325.351ZM146.878 325.166C146.878 324.094 146.649 323.247 146.192 322.626C145.735 322.005 145.108 321.694 144.312 321.694C143.327 321.694 142.589 322.131 142.097 323.004V327.548C142.583 328.415 143.327 328.849 144.329 328.849C145.108 328.849 145.727 328.541 146.184 327.926C146.646 327.305 146.878 326.385 146.878 325.166ZM160.914 329.06C160.281 329.804 159.353 330.176 158.128 330.176C157.114 330.176 156.341 329.883 155.808 329.297C155.28 328.705 155.014 327.832 155.008 326.678V320.49H156.634V326.634C156.634 328.075 157.22 328.796 158.392 328.796C159.634 328.796 160.46 328.333 160.87 327.407V320.49H162.496V330H160.949L160.914 329.06ZM170.512 327.478C170.512 327.038 170.345 326.698 170.011 326.458C169.683 326.212 169.105 326.001 168.279 325.825C167.459 325.649 166.806 325.438 166.319 325.192C165.839 324.946 165.481 324.653 165.247 324.313C165.019 323.974 164.904 323.569 164.904 323.101C164.904 322.321 165.232 321.662 165.889 321.123C166.551 320.584 167.395 320.314 168.42 320.314C169.498 320.314 170.371 320.593 171.039 321.149C171.713 321.706 172.05 322.418 172.05 323.285H170.415C170.415 322.84 170.225 322.456 169.844 322.134C169.469 321.812 168.994 321.65 168.42 321.65C167.828 321.65 167.365 321.779 167.031 322.037C166.697 322.295 166.53 322.632 166.53 323.048C166.53 323.44 166.686 323.736 166.996 323.936C167.307 324.135 167.866 324.325 168.675 324.507C169.489 324.688 170.148 324.905 170.652 325.157C171.156 325.409 171.528 325.714 171.769 326.071C172.015 326.423 172.138 326.854 172.138 327.363C172.138 328.213 171.798 328.896 171.118 329.411C170.438 329.921 169.557 330.176 168.473 330.176C167.711 330.176 167.037 330.041 166.451 329.771C165.865 329.502 165.405 329.127 165.071 328.646C164.743 328.16 164.579 327.636 164.579 327.073H166.205C166.234 327.618 166.451 328.052 166.855 328.374C167.266 328.69 167.805 328.849 168.473 328.849C169.088 328.849 169.58 328.726 169.949 328.479C170.324 328.228 170.512 327.894 170.512 327.478ZM176.022 330H174.396V320.49H176.022V330ZM174.265 317.968C174.265 317.704 174.344 317.481 174.502 317.3C174.666 317.118 174.906 317.027 175.223 317.027C175.539 317.027 175.779 317.118 175.943 317.3C176.107 317.481 176.189 317.704 176.189 317.968C176.189 318.231 176.107 318.451 175.943 318.627C175.779 318.803 175.539 318.891 175.223 318.891C174.906 318.891 174.666 318.803 174.502 318.627C174.344 318.451 174.265 318.231 174.265 317.968ZM180.171 320.49L180.224 321.686C180.95 320.771 181.899 320.314 183.071 320.314C185.081 320.314 186.095 321.448 186.112 323.716V330H184.486V323.707C184.48 323.021 184.322 322.515 184.012 322.187C183.707 321.858 183.229 321.694 182.579 321.694C182.052 321.694 181.589 321.835 181.19 322.116C180.792 322.397 180.481 322.767 180.259 323.224V330H178.633V320.49H180.171ZM188.178 325.166C188.178 323.684 188.521 322.506 189.206 321.633C189.892 320.754 190.8 320.314 191.931 320.314C193.091 320.314 193.996 320.725 194.646 321.545L194.726 320.49H196.211V329.771C196.211 331.002 195.845 331.972 195.112 332.681C194.386 333.39 193.407 333.744 192.177 333.744C191.491 333.744 190.82 333.598 190.164 333.305C189.508 333.012 189.007 332.61 188.661 332.101L189.505 331.125C190.202 331.986 191.055 332.417 192.062 332.417C192.854 332.417 193.469 332.194 193.908 331.749C194.354 331.304 194.576 330.677 194.576 329.868V329.051C193.926 329.801 193.038 330.176 191.913 330.176C190.8 330.176 189.897 329.728 189.206 328.831C188.521 327.935 188.178 326.713 188.178 325.166ZM189.812 325.351C189.812 326.423 190.032 327.267 190.472 327.882C190.911 328.491 191.526 328.796 192.317 328.796C193.343 328.796 194.096 328.33 194.576 327.398V323.057C194.078 322.148 193.331 321.694 192.335 321.694C191.544 321.694 190.926 322.002 190.48 322.617C190.035 323.232 189.812 324.144 189.812 325.351Z" fill="#423B3B"/>
<defs>
<filter id="filter0_d" x="0.167969" y="52.1006" width="272.722" height="45.0736" filterUnits="userSpaceOnUse" color-interpolation-filters="sRGB">
<feFlood flood-opacity="0" result="BackgroundImageFix"/>
<feColorMatrix in="SourceAlpha" type="matrix" values="0 0 0 0 0 0 0 0 0 0 0 0 0 0 0 0 0 0 127 0"/>
<feOffset dy="4"/>
<feGaussianBlur stdDeviation="2"/>
<feColorMatrix type="matrix" values="0 0 0 0 0 0 0 0 0 0 0 0 0 0 0 0 0 0 0.25 0"/>
<feBlend mode="normal" in2="BackgroundImageFix" result="effect1_dropShadow"/>
<feBlend mode="normal" in="SourceGraphic" in2="effect1_dropShadow" result="shape"/>
</filter>
<filter id="filter1_d" x="0.167969" y="108.329" width="272.722" height="45.0736" filterUnits="userSpaceOnUse" color-interpolation-filters="sRGB">
<feFlood flood-opacity="0" result="BackgroundImageFix"/>
<feColorMatrix in="SourceAlpha" type="matrix" values="0 0 0 0 0 0 0 0 0 0 0 0 0 0 0 0 0 0 127 0"/>
<feOffset dy="4"/>
<feGaussianBlur stdDeviation="2"/>
<feColorMatrix type="matrix" values="0 0 0 0 0 0 0 0 0 0 0 0 0 0 0 0 0 0 0.25 0"/>
<feBlend mode="normal" in2="BackgroundImageFix" result="effect1_dropShadow"/>
<feBlend mode="normal" in="SourceGraphic" in2="effect1_dropShadow" result="shape"/>
</filter>
<filter id="filter2_d" x="0.167969" y="164.557" width="272.722" height="45.0736" filterUnits="userSpaceOnUse" color-interpolation-filters="sRGB">
<feFlood flood-opacity="0" result="BackgroundImageFix"/>
<feColorMatrix in="SourceAlpha" type="matrix" values="0 0 0 0 0 0 0 0 0 0 0 0 0 0 0 0 0 0 127 0"/>
<feOffset dy="4"/>
<feGaussianBlur stdDeviation="2"/>
<feColorMatrix type="matrix" values="0 0 0 0 0 0 0 0 0 0 0 0 0 0 0 0 0 0 0.25 0"/>
<feBlend mode="normal" in2="BackgroundImageFix" result="effect1_dropShadow"/>
<feBlend mode="normal" in="SourceGraphic" in2="effect1_dropShadow" result="shape"/>
</filter>
<clipPath id="clip0">
<rect x="30.7578" y="113.272" width="23.6359" height="24.7157" fill="white"/>
</clipPath>
</defs>
</svg>
