<svg width="1006" height="709" viewBox="0 0 1006 709" fill="none" xmlns="http://www.w3.org/2000/svg">
<g filter="url(#filter0_d)">
<path d="M953.415 692.431C951.588 697.127 949.574 698.944 945.832 700.523C945.048 700.854 944.199 700.999 943.347 700.998L64.6743 699.679C58.1152 699.226 55.9107 696.562 54.1728 688.959C54.0619 688.474 54.0103 687.977 54.0103 687.48V137.672C54.0103 133.806 50.8763 130.672 47.0103 130.672H31.3515C30.2914 130.672 29.2308 130.452 28.3187 129.912C24.7353 127.789 23.5843 125.224 22.8363 120.232C22.7794 119.853 22.7576 119.468 22.7723 119.085C22.9872 113.48 24.1825 110.499 27.9641 107.365C29.0831 106.437 30.5214 106.009 31.9748 106.009H72.7322C73.9578 106.009 75.1675 105.694 76.2145 105.057C83.5238 100.61 86.7443 96.5809 87.4731 85.3098C86.7195 73.2757 83.3486 69.3965 76.2082 65.1083C75.1644 64.4814 73.9624 64.1702 72.7449 64.1702H13.6703C13.1091 64.1702 12.5455 64.1068 12.0051 63.9552C6.39972 62.3834 4.90341 59.6837 4.08727 53.8185C4.02644 53.3814 4.01276 52.937 4.04582 52.4969C4.5711 45.5027 6.20724 42.3766 11.6251 39.999C12.41 39.6545 13.2677 39.5073 14.1249 39.5073H48.8458C52.7118 39.5073 55.8489 36.3733 55.8489 32.5073V19.9783C55.8489 19.4931 55.8974 19.0066 56.0062 18.5338C57.1605 13.5156 58.8227 11.3246 63.9937 10.1454C64.4436 10.0428 64.9067 10 65.3681 10H943.887C944.626 10 945.364 10.1096 946.057 10.3667C950.862 12.1481 952.624 14.4918 953.71 19.9468C953.792 20.3601 953.828 20.7818 953.828 21.2032V568.484C953.828 572.35 956.962 575.484 960.828 575.484H973.32C974.288 575.484 975.254 575.675 976.123 576.102C981.438 578.716 983.072 581.582 983.246 588.256C982.505 595.854 980.429 598.445 976.515 601.19C975.404 601.969 974.066 602.349 972.71 602.349H932.382C931.729 602.349 931.077 602.437 930.453 602.63C921.064 605.544 918.283 609.959 917.464 621.145C917.436 621.528 917.443 621.924 917.483 622.306C918.638 633.136 921.479 637.48 930.411 640.756C931.061 640.994 931.749 641.116 932.441 641.139L995.069 643.223C996.697 643.277 998.318 643.846 999.339 645.116C1001.49 647.787 1001.7 650.46 1002 654.757C1001.68 661.738 999.929 664.529 995.401 667.157C994.436 667.717 993.328 667.969 992.212 667.969H960.828C956.962 667.969 953.828 671.103 953.828 674.969V690.118C953.828 690.908 953.701 691.695 953.415 692.431Z" fill="#F8F8F8"/>
</g>
<g filter="url(#filter1_d)">
<path d="M953.415 692.431C951.588 697.127 949.574 698.944 945.832 700.523C945.048 700.854 944.199 700.999 943.347 700.998L64.6743 699.679C58.1152 699.226 55.9107 696.562 54.1728 688.959C54.0619 688.474 54.0103 687.977 54.0103 687.48V137.672C54.0103 133.806 50.8763 130.672 47.0103 130.672H31.3515C30.2914 130.672 29.2308 130.452 28.3187 129.912C24.7353 127.789 23.5843 125.224 22.8363 120.232C22.7794 119.853 22.7576 119.468 22.7723 119.085C22.9872 113.48 24.1825 110.499 27.9641 107.365C29.0831 106.437 30.5214 106.009 31.9748 106.009H72.7322C73.9578 106.009 75.1675 105.694 76.2145 105.057C83.5238 100.61 86.7443 96.5809 87.4731 85.3098C86.7195 73.2757 83.3486 69.3965 76.2082 65.1083C75.1644 64.4814 73.9624 64.1702 72.7449 64.1702H13.6703C13.1091 64.1702 12.5455 64.1068 12.0051 63.9552C6.39972 62.3834 4.90341 59.6837 4.08727 53.8185C4.02644 53.3814 4.01276 52.937 4.04582 52.4969C4.5711 45.5027 6.20724 42.3766 11.6251 39.999C12.41 39.6545 13.2677 39.5073 14.1249 39.5073H48.8458C52.7118 39.5073 55.8489 36.3733 55.8489 32.5073V19.9783C55.8489 19.4931 55.8974 19.0066 56.0062 18.5338C57.1605 13.5156 58.8227 11.3246 63.9937 10.1454C64.4436 10.0428 64.9067 10 65.3681 10H943.887C944.626 10 945.364 10.1096 946.057 10.3667C950.862 12.1481 952.624 14.4918 953.71 19.9468C953.792 20.3601 953.828 20.7818 953.828 21.2032V568.484C953.828 572.35 956.962 575.484 960.828 575.484H973.32C974.288 575.484 975.254 575.675 976.123 576.102C981.438 578.716 983.072 581.582 983.246 588.256C982.505 595.854 980.429 598.445 976.515 601.19C975.404 601.969 974.066 602.349 972.71 602.349H932.382C931.729 602.349 931.077 602.437 930.453 602.63C921.064 605.544 918.283 609.959 917.464 621.145C917.436 621.528 917.443 621.924 917.483 622.306C918.638 633.136 921.479 637.48 930.411 640.756C931.061 640.994 931.749 641.116 932.441 641.139L995.069 643.223C996.697 643.277 998.318 643.846 999.339 645.116C1001.49 647.787 1001.7 650.46 1002 654.757C1001.68 661.738 999.929 664.529 995.401 667.157C994.436 667.717 993.328 667.969 992.212 667.969H960.828C956.962 667.969 953.828 671.103 953.828 674.969V690.118C953.828 690.908 953.701 691.695 953.415 692.431Z" fill="#F8F8F8"/>
</g>
<path d="M784.667 316.175C784.667 316.175 752.595 292.715 750.161 301.315C747.727 309.915 773.693 329.459 773.693 329.459L784.667 316.175Z" fill="#FFB9B9"/>
<path opacity="0.1" d="M784.667 316.175C784.667 316.175 752.595 292.715 750.161 301.315C747.727 309.915 773.693 329.459 773.693 329.459L784.667 316.175Z" fill="black"/>
<path opacity="0.1" d="M890.54 241.899C890.54 241.899 852.402 307.57 851.59 316.951C850.779 326.333 850.779 327.115 847.533 326.333C844.287 325.551 799.658 320.86 795.601 322.424C791.544 323.987 783.429 313.042 783.429 313.042C783.429 313.042 768.012 327.896 771.258 331.024C774.503 334.151 784.241 335.714 785.864 339.623C787.486 343.532 789.921 347.441 797.224 346.659C804.527 345.878 854.025 359.168 860.516 356.823C867.008 354.477 868.631 350.568 871.877 350.568C875.122 350.568 881.614 347.441 881.614 346.659C881.614 345.878 904.334 304.443 904.334 304.443C904.334 304.443 931.112 248.154 890.54 241.899Z" fill="black"/>
<path d="M775.667 300.277C775.667 300.277 743.595 276.817 741.161 285.416C738.727 294.016 764.693 313.561 764.693 313.561L775.667 300.277Z" fill="#FFB9B9"/>
<path opacity="0.1" d="M775.667 300.277C775.667 300.277 743.595 276.817 741.161 285.416C738.727 294.016 764.693 313.561 764.693 313.561L775.667 300.277Z" fill="black"/>
<path opacity="0.1" d="M881.54 226C881.54 226 843.402 291.67 842.59 301.052C841.779 310.433 841.779 311.215 838.533 310.433C835.287 309.652 790.658 304.961 786.601 306.524C782.544 308.088 774.429 297.143 774.429 297.143C774.429 297.143 759.012 311.997 762.258 315.124C765.503 318.251 775.241 319.815 776.864 323.724C778.486 327.633 780.921 331.542 788.224 330.76C795.527 329.978 845.025 343.269 851.516 340.923C858.008 338.578 859.631 334.669 862.877 334.669C866.122 334.669 872.614 331.542 872.614 330.76C872.614 329.978 895.334 288.543 895.334 288.543C895.334 288.543 922.112 232.254 881.54 226Z" fill="black"/>
<path d="M202.642 350.582C202.642 350.582 232.321 352.488 237.597 348.676C242.873 344.863 265.297 353.759 267.276 358.843C269.254 363.926 235.618 364.561 230.342 364.561C225.066 364.561 200.004 372.186 200.004 372.186L202.642 350.582Z" fill="#A0616A"/>
<g filter="url(#filter2_dd)">
<rect x="238" y="10" width="556" height="630" rx="10" fill="#F1F0F0"/>
</g>
<path d="M463.07 71.9336H476.547V75H459.301V46.5625H463.07V71.9336ZM479.301 64.2383C479.301 62.168 479.704 60.306 480.512 58.6523C481.332 56.9987 482.465 55.7227 483.91 54.8242C485.368 53.9258 487.029 53.4766 488.891 53.4766C491.768 53.4766 494.092 54.4727 495.863 56.4648C497.647 58.457 498.539 61.1068 498.539 64.4141V64.668C498.539 66.7253 498.142 68.5742 497.348 70.2148C496.566 71.8424 495.44 73.112 493.969 74.0234C492.51 74.9349 490.831 75.3906 488.93 75.3906C486.065 75.3906 483.741 74.3945 481.957 72.4023C480.186 70.4102 479.301 67.7734 479.301 64.4922V64.2383ZM482.934 64.668C482.934 67.0117 483.474 68.8932 484.555 70.3125C485.648 71.7318 487.107 72.4414 488.93 72.4414C490.766 72.4414 492.224 71.7253 493.305 70.293C494.385 68.8477 494.926 66.8294 494.926 64.2383C494.926 61.9206 494.372 60.0456 493.266 58.6133C492.172 57.168 490.714 56.4453 488.891 56.4453C487.107 56.4453 485.668 57.1549 484.574 58.5742C483.48 59.9935 482.934 62.0247 482.934 64.668ZM502.211 64.2578C502.211 60.9635 502.973 58.3464 504.496 56.4062C506.02 54.4531 508.038 53.4766 510.551 53.4766C513.129 53.4766 515.141 54.388 516.586 56.2109L516.762 53.8672H520.062V74.4922C520.062 77.2266 519.249 79.3815 517.621 80.957C516.007 82.5326 513.832 83.3203 511.098 83.3203C509.574 83.3203 508.083 82.9948 506.625 82.3438C505.167 81.6927 504.053 80.8008 503.285 79.668L505.16 77.5C506.71 79.4141 508.604 80.3711 510.844 80.3711C512.602 80.3711 513.969 79.8763 514.945 78.8867C515.935 77.8971 516.43 76.5039 516.43 74.707V72.8906C514.984 74.5573 513.012 75.3906 510.512 75.3906C508.038 75.3906 506.033 74.3945 504.496 72.4023C502.973 70.4102 502.211 67.6953 502.211 64.2578ZM505.844 64.668C505.844 67.0508 506.332 68.9258 507.309 70.293C508.285 71.6471 509.652 72.3242 511.41 72.3242C513.689 72.3242 515.362 71.2891 516.43 69.2188V59.5703C515.323 57.5521 513.663 56.543 511.449 56.543C509.691 56.543 508.318 57.2266 507.328 58.5938C506.339 59.9609 505.844 61.9857 505.844 64.668ZM529.457 75H525.844V53.8672H529.457V75ZM525.551 48.2617C525.551 47.6758 525.727 47.181 526.078 46.7773C526.443 46.3737 526.977 46.1719 527.68 46.1719C528.383 46.1719 528.917 46.3737 529.281 46.7773C529.646 47.181 529.828 47.6758 529.828 48.2617C529.828 48.8477 529.646 49.3359 529.281 49.7266C528.917 50.1172 528.383 50.3125 527.68 50.3125C526.977 50.3125 526.443 50.1172 526.078 49.7266C525.727 49.3359 525.551 48.8477 525.551 48.2617ZM538.676 53.8672L538.793 56.5234C540.408 54.4922 542.517 53.4766 545.121 53.4766C549.587 53.4766 551.84 55.9961 551.879 61.0352V75H548.266V61.0156C548.253 59.4922 547.901 58.3659 547.211 57.6367C546.534 56.9076 545.473 56.543 544.027 56.543C542.855 56.543 541.827 56.8555 540.941 57.4805C540.056 58.1055 539.366 58.9258 538.871 59.9414V75H535.258V53.8672H538.676Z" fill="black"/>
<g filter="url(#filter3_d)">
<rect x="288.5" y="136" width="448" height="60" rx="12" fill="white"/>
</g>
<g clip-path="url(#clip0)">
<path d="M353.5 164C347.986 164 343.5 159.514 343.5 154C343.5 148.486 347.986 144 353.5 144C359.014 144 363.5 148.486 363.5 154C363.5 159.514 359.014 164 353.5 164V164ZM353.5 146.5C349.364 146.5 346 149.864 346 154C346 158.136 349.364 161.5 353.5 161.5C357.636 161.5 361 158.136 361 154C361 149.864 357.636 146.5 353.5 146.5V146.5Z" fill="black"/>
<path d="M369.75 184H337.25C336.559 184 336 183.441 336 182.75V174.145C336 172.854 336.66 171.641 337.722 170.976C347.11 165.121 359.899 165.122 369.276 170.975C370.34 171.64 371 172.854 371 174.145V182.75C371 183.441 370.441 184 369.75 184V184ZM338.5 181.5H368.5V174.145C368.5 173.71 368.29 173.307 367.952 173.096C359.369 167.738 347.637 167.734 339.047 173.097C338.71 173.307 338.5 173.71 338.5 174.146L338.5 181.5Z" fill="black"/>
</g>
<g filter="url(#filter4_d)">
<rect x="288.5" y="227" width="448" height="60" rx="12" fill="white"/>
</g>
<path d="M351.53 264.681L351.004 269.408C350.978 269.644 351.054 269.88 351.212 270.056C351.37 270.233 351.596 270.334 351.833 270.334H355.166C355.403 270.334 355.629 270.233 355.787 270.056C355.945 269.88 356.021 269.644 355.995 269.408L355.469 264.681C356.323 264.06 356.833 263.078 356.833 262C356.833 260.162 355.338 258.667 353.499 258.667C351.661 258.667 350.166 260.162 350.166 262C350.166 263.078 350.676 264.06 351.53 264.681ZM353.499 260.334C354.418 260.334 355.166 261.082 355.166 262C355.166 262.639 354.803 263.211 354.219 263.494C353.901 263.649 353.714 263.986 353.753 264.337L354.235 268.667H352.764L353.246 264.337C353.285 263.986 353.098 263.649 352.78 263.494C352.196 263.211 351.833 262.639 351.833 262C351.833 261.082 352.581 260.334 353.499 260.334Z" fill="black"/>
<path d="M367.667 252H365.167V248.667C365.167 242.234 359.933 237 353.5 237C347.067 237 341.833 242.234 341.833 248.667V252H339.333C338.873 252 338.5 252.373 338.5 252.833V273.667C338.5 275.505 339.995 277 341.833 277H365.167C367.005 277 368.5 275.505 368.5 273.667V252.833C368.5 252.373 368.127 252 367.667 252ZM343.5 248.667C343.5 243.152 347.986 238.667 353.5 238.667C359.014 238.667 363.5 243.152 363.5 248.667V252H361.833V248.667C361.833 244.072 358.095 240.333 353.5 240.333C348.905 240.333 345.167 244.072 345.167 248.667V252H343.5V248.667ZM360.167 248.667V252H346.833V248.667C346.833 244.991 349.824 242 353.5 242C357.176 242 360.167 244.991 360.167 248.667ZM366.833 273.667C366.833 274.585 366.085 275.333 365.167 275.333H341.833C340.915 275.333 340.167 274.585 340.167 273.667V253.667H366.833V273.667V273.667Z" fill="black"/>
<path d="M510.382 449.024C510.382 451.114 510.03 452.94 509.327 454.503C508.624 456.056 507.628 457.242 506.339 458.062C505.05 458.883 503.546 459.293 501.827 459.293C500.147 459.293 498.658 458.883 497.359 458.062C496.061 457.232 495.05 456.056 494.327 454.532C493.614 452.999 493.248 451.227 493.229 449.215V447.677C493.229 445.626 493.585 443.814 494.298 442.242C495.011 440.67 496.017 439.469 497.315 438.639C498.624 437.799 500.118 437.379 501.798 437.379C503.507 437.379 505.011 437.794 506.31 438.624C507.618 439.444 508.624 440.641 509.327 442.213C510.03 443.775 510.382 445.597 510.382 447.677V449.024ZM507.584 447.647C507.584 445.118 507.076 443.18 506.061 441.832C505.045 440.475 503.624 439.796 501.798 439.796C500.021 439.796 498.619 440.475 497.594 441.832C496.578 443.18 496.056 445.055 496.026 447.457V449.024C496.026 451.476 496.539 453.404 497.564 454.811C498.6 456.207 500.021 456.905 501.827 456.905C503.644 456.905 505.05 456.246 506.046 454.928C507.042 453.6 507.555 451.7 507.584 449.229V447.647ZM522.423 450.372H517.413V459H514.586V437.672H521.646C524.049 437.672 525.895 438.219 527.184 439.312C528.482 440.406 529.132 441.998 529.132 444.088C529.132 445.416 528.771 446.573 528.048 447.56C527.335 448.546 526.339 449.283 525.06 449.771L530.069 458.824V459H527.052L522.423 450.372ZM517.413 448.072H521.734C523.131 448.072 524.239 447.711 525.06 446.988C525.89 446.266 526.305 445.299 526.305 444.088C526.305 442.77 525.909 441.759 525.118 441.056C524.337 440.353 523.204 439.996 521.72 439.986H517.413V448.072Z" fill="black"/>
<line x1="325.5" y1="450.5" x2="481.5" y2="450.5" stroke="black"/>
<line x1="538.5" y1="450.5" x2="694.5" y2="450.5" stroke="black"/>
<path d="M453.303 491.7H463.41V494H450.476V472.672H453.303V491.7ZM465.476 485.929C465.476 484.376 465.778 482.979 466.384 481.739C466.999 480.499 467.849 479.542 468.933 478.868C470.026 478.194 471.271 477.857 472.668 477.857C474.826 477.857 476.569 478.604 477.897 480.099C479.235 481.593 479.904 483.58 479.904 486.061V486.251C479.904 487.794 479.606 489.181 479.011 490.411C478.425 491.632 477.58 492.584 476.477 493.268C475.383 493.951 474.123 494.293 472.697 494.293C470.549 494.293 468.806 493.546 467.468 492.052C466.14 490.558 465.476 488.58 465.476 486.119V485.929ZM468.2 486.251C468.2 488.009 468.605 489.42 469.416 490.484C470.236 491.549 471.33 492.081 472.697 492.081C474.074 492.081 475.168 491.544 475.979 490.47C476.789 489.386 477.194 487.872 477.194 485.929C477.194 484.19 476.779 482.784 475.949 481.71C475.129 480.626 474.035 480.084 472.668 480.084C471.33 480.084 470.251 480.616 469.431 481.681C468.61 482.745 468.2 484.269 468.2 486.251ZM482.658 485.943C482.658 483.473 483.229 481.51 484.372 480.055C485.515 478.59 487.028 477.857 488.913 477.857C490.847 477.857 492.355 478.541 493.439 479.908L493.571 478.15H496.047V493.619C496.047 495.67 495.437 497.286 494.216 498.468C493.005 499.649 491.374 500.24 489.323 500.24C488.181 500.24 487.062 499.996 485.969 499.508C484.875 499.02 484.04 498.351 483.464 497.501L484.87 495.875C486.032 497.311 487.453 498.028 489.133 498.028C490.451 498.028 491.477 497.657 492.209 496.915C492.951 496.173 493.322 495.128 493.322 493.78V492.418C492.238 493.668 490.759 494.293 488.884 494.293C487.028 494.293 485.524 493.546 484.372 492.052C483.229 490.558 482.658 488.521 482.658 485.943ZM485.383 486.251C485.383 488.038 485.749 489.444 486.481 490.47C487.214 491.485 488.239 491.993 489.558 491.993C491.267 491.993 492.521 491.217 493.322 489.664V482.428C492.492 480.914 491.247 480.157 489.587 480.157C488.269 480.157 487.238 480.67 486.496 481.695C485.754 482.721 485.383 484.239 485.383 486.251ZM503.093 494H500.383V478.15H503.093V494ZM500.163 473.946C500.163 473.507 500.295 473.136 500.559 472.833C500.832 472.53 501.232 472.379 501.76 472.379C502.287 472.379 502.688 472.53 502.961 472.833C503.234 473.136 503.371 473.507 503.371 473.946C503.371 474.386 503.234 474.752 502.961 475.045C502.688 475.338 502.287 475.484 501.76 475.484C501.232 475.484 500.832 475.338 500.559 475.045C500.295 474.752 500.163 474.386 500.163 473.946ZM510.007 478.15L510.095 480.143C511.306 478.619 512.888 477.857 514.841 477.857C518.19 477.857 519.88 479.747 519.909 483.526V494H517.199V483.512C517.189 482.369 516.926 481.524 516.408 480.978C515.9 480.431 515.104 480.157 514.021 480.157C513.142 480.157 512.37 480.392 511.706 480.86C511.042 481.329 510.524 481.944 510.153 482.706V494H507.443V478.15H510.007ZM545.471 490.265L548.518 478.15H551.228L546.613 494H544.416L540.563 481.988L536.813 494H534.616L530.017 478.15H532.712L535.832 490.016L539.523 478.15H541.706L545.471 490.265ZM556.94 494H554.23V478.15H556.94V494ZM554.011 473.946C554.011 473.507 554.143 473.136 554.406 472.833C554.68 472.53 555.08 472.379 555.607 472.379C556.135 472.379 556.535 472.53 556.809 472.833C557.082 473.136 557.219 473.507 557.219 473.946C557.219 474.386 557.082 474.752 556.809 475.045C556.535 475.338 556.135 475.484 555.607 475.484C555.08 475.484 554.68 475.338 554.406 475.045C554.143 474.752 554.011 474.386 554.011 473.946ZM564.968 474.312V478.15H567.927V480.245H564.968V490.074C564.968 490.709 565.1 491.188 565.363 491.51C565.627 491.822 566.076 491.979 566.711 491.979C567.023 491.979 567.453 491.92 568 491.803V494C567.287 494.195 566.594 494.293 565.92 494.293C564.709 494.293 563.796 493.927 563.181 493.194C562.565 492.462 562.258 491.422 562.258 490.074V480.245H559.372V478.15H562.258V474.312H564.968ZM573.815 480.069C575.017 478.595 576.579 477.857 578.503 477.857C581.853 477.857 583.542 479.747 583.571 483.526V494H580.861V483.512C580.852 482.369 580.588 481.524 580.07 480.978C579.562 480.431 578.767 480.157 577.683 480.157C576.804 480.157 576.032 480.392 575.368 480.86C574.704 481.329 574.187 481.944 573.815 482.706V494H571.105V471.5H573.815V480.069Z" fill="#423B3B"/>
<path d="M890.54 241.899C890.54 241.899 852.402 307.57 851.59 316.951C850.779 326.333 850.779 327.115 847.533 326.333C844.287 325.551 799.658 320.86 795.601 322.424C791.544 323.987 783.429 313.042 783.429 313.042C783.429 313.042 768.012 327.896 771.258 331.024C774.503 334.151 784.241 335.714 785.864 339.623C787.486 343.532 789.921 347.441 797.224 346.659C804.527 345.878 854.025 359.168 860.516 356.823C867.008 354.477 868.631 350.568 871.877 350.568C875.122 350.568 881.614 347.441 881.614 346.659C881.614 345.878 904.334 304.443 904.334 304.443C904.334 304.443 931.112 248.154 890.54 241.899Z" fill="#D0CDE1"/>
<path d="M835.209 198.606C834.864 202.757 834.933 206.932 835.417 211.07C836.649 220.052 840.941 229.415 836.887 237.799C835.416 240.843 832.923 243.494 831.565 246.574C828.691 253.094 831.297 260.325 830.906 267.264C830.401 276.228 824.484 284.865 815.482 289.777C830.861 290.237 845.486 282.912 855.163 272.929C864.839 262.947 870.228 250.565 874.268 238.177C876.344 232.359 877.675 226.319 878.231 220.19C878.554 216.669 878.125 213.122 876.972 209.767C875.551 206.489 873.679 203.409 871.408 200.611C868.985 197.329 866.495 193.982 862.921 191.54C858.517 188.532 850.027 185.512 844.186 185.95C837.021 186.487 835.511 193.815 835.209 198.606Z" fill="#2F2E41"/>
<path d="M858.895 223.136C858.895 223.136 867.82 253.626 860.517 262.226C853.214 270.825 904.335 258.317 904.335 258.317C904.335 258.317 879.181 234.081 891.352 218.445L858.895 223.136Z" fill="#FFB9B9"/>
<path opacity="0.1" d="M858.895 223.136C858.895 223.136 867.82 253.626 860.517 262.226C853.214 270.825 904.335 258.317 904.335 258.317C904.335 258.317 879.181 234.081 891.352 218.445L858.895 223.136Z" fill="black"/>
<path d="M829.682 629.668V652.34L841.853 666.411L852.402 661.72L849.156 628.886L829.682 629.668Z" fill="#FFB9B9"/>
<path d="M834.553 650.776C834.553 650.776 831.307 639.83 825.627 647.648C819.947 655.466 814.266 672.666 811.021 673.447C807.775 674.229 785.054 698.465 807.775 698.465C830.495 698.465 837.798 688.302 837.798 688.302C837.798 688.302 860.519 679.702 860.519 678.138C860.519 676.575 857.273 647.648 855.65 647.648C854.027 647.648 853.216 653.121 849.158 653.121C845.101 653.121 834.553 650.776 834.553 650.776Z" fill="#2F2E41"/>
<path d="M884.05 633.576L883.238 654.685L902.712 662.502V632.013L884.05 633.576Z" fill="#FFB9B9"/>
<path d="M905.146 654.684C905.146 654.684 894.598 643.739 888.917 646.084C886.107 647.174 883.394 648.481 880.803 649.993C880.803 649.993 877.557 660.157 875.934 668.756C874.311 677.356 873.5 681.265 871.877 684.392C870.254 687.519 868.631 699.246 884.86 700.81C901.089 702.373 905.958 693.774 905.958 693.774L910.015 673.447C910.015 673.447 908.392 654.684 905.146 654.684Z" fill="#2F2E41"/>
<path d="M840.23 408.421C840.23 408.421 816.698 459.237 819.944 505.363C819.944 505.363 811.83 523.344 816.698 551.489C821.567 579.633 828.058 635.922 828.058 635.922C828.058 635.922 849.967 638.267 851.59 634.358C851.59 634.358 853.213 595.269 854.836 593.705C856.459 592.142 854.025 556.179 851.59 549.143C849.156 542.107 874.311 472.528 874.311 472.528L867.819 385.749L840.23 408.421Z" fill="#2F2E41"/>
<path opacity="0.1" d="M840.23 408.421C840.23 408.421 816.698 459.237 819.944 505.363C819.944 505.363 811.83 523.344 816.698 551.489C821.567 579.633 828.058 635.922 828.058 635.922C828.058 635.922 849.967 638.267 851.59 634.358C851.59 634.358 853.213 595.269 854.836 593.705C856.459 592.142 854.025 556.179 851.59 549.143C849.156 542.107 874.311 472.528 874.311 472.528L867.819 385.749L840.23 408.421Z" fill="black"/>
<path d="M833.74 405.293L849.158 437.347C849.158 437.347 856.461 510.053 860.518 519.435C860.518 519.435 862.141 546.015 869.444 554.615C876.747 563.215 882.427 639.049 882.427 639.049C882.427 639.049 902.713 644.521 904.336 639.049C905.959 633.576 910.827 596.05 910.827 596.05C910.827 596.05 912.45 563.997 903.524 542.888C894.598 521.78 914.073 445.946 914.073 445.946C914.073 445.946 934.359 409.202 905.147 379.494L833.74 405.293Z" fill="#2F2E41"/>
<path d="M876.746 232.518C895.12 232.518 910.015 218.167 910.015 200.465C910.015 182.762 895.12 168.411 876.746 168.411C858.372 168.411 843.477 182.762 843.477 200.465C843.477 218.167 858.372 232.518 876.746 232.518Z" fill="#FFB9B9"/>
<path d="M907.582 248.936C907.582 248.936 872.69 248.936 867.821 252.844C866.618 253.948 865.02 254.564 863.358 254.564C861.697 254.564 860.099 253.948 858.895 252.844C858.895 252.844 846.724 253.626 843.478 263.008C840.232 272.389 830.495 284.898 830.495 284.898C830.495 284.898 815.889 295.061 824.003 321.642C832.118 348.223 825.626 391.221 825.626 391.221C825.626 391.221 819.134 400.603 825.626 404.512C832.118 408.421 834.552 409.984 833.74 413.112C832.929 416.239 907.582 387.312 907.582 381.84C907.582 376.367 905.959 371.677 907.582 369.331C909.205 366.986 910.828 363.077 909.205 359.168C907.582 355.259 910.828 354.477 910.016 350.568C909.205 346.659 914.074 317.733 917.319 305.224C920.565 292.716 919.754 249.717 907.582 248.936Z" fill="#D0CDE1"/>
<path d="M784.667 325.557C784.667 325.557 752.595 302.097 750.161 310.697C747.727 319.296 773.693 338.841 773.693 338.841L784.667 325.557Z" fill="#FFB9B9"/>
<path d="M890.54 252.844C890.54 252.844 852.402 318.514 851.59 327.896C850.779 337.277 850.779 338.059 847.533 337.277C844.287 336.495 799.658 331.805 795.601 333.368C791.544 334.932 783.429 323.987 783.429 323.987C783.429 323.987 768.012 338.841 771.258 341.968C774.503 345.095 784.241 346.659 785.864 350.568C787.486 354.477 789.921 358.385 797.224 357.604C804.527 356.822 854.025 370.112 860.516 367.767C867.008 365.422 868.631 361.513 871.877 361.513C875.122 361.513 881.614 358.385 881.614 357.604C881.614 356.822 904.334 315.387 904.334 315.387C904.334 315.387 931.112 259.098 890.54 252.844Z" fill="#D0CDE1"/>
<path d="M860.272 220.943C859.811 217.769 858.124 214.889 857.258 211.793C856.581 209.316 856.43 206.733 856.816 204.198C857.202 201.664 858.116 199.231 859.503 197.045C864.275 189.619 873.644 186.33 880.178 180.276C880.313 183.36 882.534 185.995 884.989 187.979C887.443 189.962 890.259 191.571 892.338 193.919C894.334 196.397 895.79 199.239 896.618 202.273C897.898 205.788 898.472 209.507 898.308 213.229C898.215 215.089 897.73 216.911 896.883 218.585C896.036 220.259 894.844 221.749 893.381 222.966C890.947 224.819 887.546 225.877 886.371 228.643C885.908 230.025 885.775 231.49 885.98 232.928C886.537 241.529 887.057 250.284 884.955 258.66C882.853 267.037 877.703 275.13 869.631 278.843C876.264 279.297 883.037 279.739 889.473 278.125C895.909 276.512 902.064 272.45 904.283 266.41C905.377 263.43 905.481 260.117 907.036 257.334C910.972 250.29 921.842 249.969 927.182 243.843C929.319 241.391 930.352 238.232 931.118 235.117C935.627 216.786 932.459 197.322 925.596 179.683C923.23 173.604 920.285 167.482 915.211 163.209C910.893 159.573 905.379 157.569 899.926 155.858C891.968 153.361 883.77 151.315 875.406 151.052C871.772 150.846 868.129 151.256 864.642 152.262C861.199 153.46 857.996 155.219 855.171 157.46C842.067 167.284 833.146 182.983 834.33 198.939C835.046 208.593 839.292 217.73 844.746 225.858C846.654 228.701 851.161 234.762 855.35 232.975C859.15 231.354 860.771 224.372 860.272 220.943Z" fill="#2F2E41"/>
<path d="M197.037 204.752C215.249 204.752 230.013 193.657 230.013 179.97C230.013 166.284 215.249 155.188 197.037 155.188C178.825 155.188 164.061 166.284 164.061 179.97C164.061 193.657 178.825 204.752 197.037 204.752Z" fill="#2F2E41"/>
<path d="M141.528 646.576C141.528 646.576 127.697 680.181 134.913 684.237C142.13 688.292 217.902 685.395 217.902 685.395C217.902 685.395 230.531 677.863 216.098 672.649C216.098 672.649 204.071 672.069 196.253 667.434C188.435 662.799 179.415 654.108 179.415 654.108C179.415 654.108 178.813 641.361 174.002 644.258C172.563 645.172 171.338 646.366 170.406 647.763C169.474 649.16 168.855 650.729 168.59 652.37L141.528 646.576Z" fill="#2F2E41"/>
<path opacity="0.1" d="M141.528 646.576C141.528 646.576 127.697 680.181 134.913 684.237C142.13 688.292 217.902 685.395 217.902 685.395C217.902 685.395 230.531 677.863 216.098 672.649C216.098 672.649 204.071 672.069 196.253 667.434C188.435 662.799 179.415 654.108 179.415 654.108C179.415 654.108 178.813 641.361 174.002 644.258C172.563 645.172 171.338 646.366 170.406 647.763C169.474 649.16 168.855 650.729 168.59 652.37L141.528 646.576Z" fill="black"/>
<path d="M119.378 657.608C119.378 657.608 104.208 694.463 112.123 698.911C120.037 703.359 203.137 700.182 203.137 700.182C203.137 700.182 216.987 691.921 201.159 686.202C201.159 686.202 187.968 685.567 179.394 680.484C170.821 675.4 160.928 665.869 160.928 665.869C160.928 665.869 160.268 651.889 154.992 655.066C153.413 656.068 152.07 657.378 151.048 658.91C150.025 660.442 149.347 662.163 149.056 663.962L119.378 657.608Z" fill="#2F2E41"/>
<path d="M197.202 423.772L187.969 503.836C187.969 503.836 184.671 541.961 174.778 550.222C174.778 550.222 174.778 562.295 171.481 566.108L166.864 616.306C166.864 616.306 173.459 634.733 172.8 637.911C172.14 641.088 175.438 651.254 174.778 652.525C174.119 653.796 143.121 652.525 143.121 652.525L149.716 550.222L170.162 407.887L197.202 423.772Z" fill="#2F2E41"/>
<path opacity="0.1" d="M197.202 423.772L187.969 503.836C187.969 503.836 184.671 541.961 174.778 550.222C174.778 550.222 174.778 562.295 171.481 566.108L166.864 616.306C166.864 616.306 173.459 634.733 172.8 637.911C172.14 641.088 175.438 651.254 174.778 652.525C174.119 653.796 143.121 652.525 143.121 652.525L149.716 550.222L170.162 407.887L197.202 423.772Z" fill="black"/>
<path d="M180.715 421.23C180.715 421.23 173.46 486.679 170.162 500.658C168.089 509.864 166.766 519.212 166.205 528.617C166.205 528.617 165.545 548.95 159.61 554.669C157.873 556.326 156.508 558.309 155.601 560.495C154.693 562.681 154.262 565.024 154.334 567.378C154.334 567.378 148.398 631.556 151.695 639.181C154.993 646.806 158.291 653.16 154.993 658.244C151.695 663.327 115.421 663.327 115.421 659.514C115.421 655.702 115.421 652.525 113.443 650.618C111.464 648.712 113.443 636.639 113.443 636.639C113.443 636.639 105.529 580.086 112.783 563.565C120.038 547.044 123.336 501.929 123.336 501.929C123.336 501.929 118.06 450.46 111.464 442.199C104.869 433.938 112.783 404.709 112.783 404.709L180.715 421.23Z" fill="#2F2E41"/>
<path d="M162.146 217.983C162.913 219.666 164.748 220.603 166.419 221.49C176.102 226.63 184.208 234.081 192.193 241.447C190.201 234.941 190.625 227.97 193.394 221.733C194.347 219.606 195.597 217.319 194.915 215.097C194.414 213.463 192.97 212.284 191.571 211.242C188.313 208.814 184.907 206.575 181.372 204.538C178.902 203.114 173.825 199.325 170.992 199.737C170.843 203.426 170.765 206.724 169.088 210.172C168.691 210.99 162.44 218.627 162.146 217.983Z" fill="#A0616A"/>
<path d="M195.884 226.155C210.818 226.155 222.925 214.491 222.925 200.102C222.925 185.714 210.818 174.05 195.884 174.05C180.95 174.05 168.844 185.714 168.844 200.102C168.844 214.491 180.95 226.155 195.884 226.155Z" fill="#A0616A"/>
<path d="M197.203 261.739C197.203 261.739 201.82 239.499 188.629 231.874C175.439 224.248 160.27 215.353 160.27 215.353C160.27 215.353 155.653 214.717 153.674 224.248C153.674 224.248 116.081 231.238 112.124 265.551C108.167 299.864 114.762 350.063 114.762 350.063C114.762 350.063 108.826 393.907 101.572 417.418C101.572 417.418 95.636 422.501 122.017 414.876C148.398 407.251 194.565 436.48 194.565 436.48C194.565 436.48 199.182 432.032 199.182 428.855C199.182 425.678 204.458 407.251 204.458 407.251C204.458 407.251 209.075 329.094 211.053 320.198C213.032 311.302 203.139 263.009 197.203 261.739Z" fill="#575A89"/>
<path d="M189.511 202.786C191.135 201.919 192.957 201.451 194.814 201.425C196.673 201.399 198.489 200.877 200.06 199.919C202.614 198.03 202.802 194.379 204.67 191.852C207.376 188.194 212.773 187.753 217.431 187.937C220.28 188.048 223.348 188.212 225.748 186.728C228.211 185.203 229.327 182.332 230.158 179.627C231.14 176.429 231.775 172.518 229.341 170.146C227.651 168.499 224.984 168.173 223.106 166.726C221.16 165.226 220.359 162.785 219.301 160.611C218.097 157.962 216.192 155.663 213.777 153.945C210.236 151.575 205.712 151.043 201.4 151.088C197.088 151.132 192.757 151.678 188.477 151.168C184.971 150.751 181.474 149.627 177.979 150.125C173.525 150.76 169.841 153.997 167.646 157.785C165.451 161.572 164.51 165.896 163.596 170.143L161.113 181.696C160.343 185.279 159.569 188.957 160.164 192.571C161.397 200.063 168.274 206.018 168.747 213.59C169.199 211.499 170.182 209.549 171.609 207.914C173.036 206.28 174.861 205.012 176.922 204.225C177.438 203.982 178.025 203.913 178.587 204.03C179.27 204.241 179.67 204.898 180.101 205.451C181.231 206.898 184.78 209.093 186.791 208.067C188.591 207.148 187.248 204.265 189.511 202.786Z" fill="#2F2E41"/>
<path d="M121.357 321.468C121.357 321.468 116.74 349.426 135.866 346.885C135.866 346.885 145.759 345.614 147.078 346.885C148.397 348.156 197.202 339.895 203.797 332.905C203.797 332.905 211.712 330.364 215.669 334.176C219.626 337.989 259.198 341.801 247.326 330.364C235.455 318.926 216.988 316.384 216.988 316.384L191.926 317.655C191.926 317.655 178.735 321.468 170.821 317.655C162.907 313.843 140.483 315.113 140.483 315.113L121.357 321.468Z" fill="#A0616A"/>
<path d="M148.397 233.145C148.397 233.145 118.719 236.322 118.719 277.624V330.365C118.719 330.365 135.207 323.375 138.505 324.01C141.802 324.646 154.993 315.75 154.993 315.75C154.993 315.75 170.162 281.437 168.843 271.905C167.524 262.374 168.183 234.415 148.397 233.145Z" fill="#575A89"/>
<path d="M195.884 196.607C209.907 196.607 221.276 190.918 221.276 183.899C221.276 176.88 209.907 171.19 195.884 171.19C181.86 171.19 170.492 176.88 170.492 183.899C170.492 190.918 181.86 196.607 195.884 196.607Z" fill="#2F2E41"/>
<path d="M172.142 207.409C177.059 207.409 181.046 197.879 181.046 186.123C181.046 174.366 177.059 164.836 172.142 164.836C167.225 164.836 163.238 174.366 163.238 186.123C163.238 197.879 167.225 207.409 172.142 207.409Z" fill="#2F2E41"/>
<defs>
<filter id="filter0_d" x="0.0273438" y="10" width="1005.97" height="698.998" filterUnits="userSpaceOnUse" color-interpolation-filters="sRGB">
<feFlood flood-opacity="0" result="BackgroundImageFix"/>
<feColorMatrix in="SourceAlpha" type="matrix" values="0 0 0 0 0 0 0 0 0 0 0 0 0 0 0 0 0 0 127 0"/>
<feOffset dy="4"/>
<feGaussianBlur stdDeviation="2"/>
<feColorMatrix type="matrix" values="0 0 0 0 0 0 0 0 0 0 0 0 0 0 0 0 0 0 0.25 0"/>
<feBlend mode="normal" in2="BackgroundImageFix" result="effect1_dropShadow"/>
<feBlend mode="normal" in="SourceGraphic" in2="effect1_dropShadow" result="shape"/>
</filter>
<filter id="filter1_d" x="0.0273438" y="10" width="1005.97" height="698.998" filterUnits="userSpaceOnUse" color-interpolation-filters="sRGB">
<feFlood flood-opacity="0" result="BackgroundImageFix"/>
<feColorMatrix in="SourceAlpha" type="matrix" values="0 0 0 0 0 0 0 0 0 0 0 0 0 0 0 0 0 0 127 0"/>
<feOffset dy="4"/>
<feGaussianBlur stdDeviation="2"/>
<feColorMatrix type="matrix" values="0 0 0 0 0 0 0 0 0 0 0 0 0 0 0 0 0 0 0.25 0"/>
<feBlend mode="normal" in2="BackgroundImageFix" result="effect1_dropShadow"/>
<feBlend mode="normal" in="SourceGraphic" in2="effect1_dropShadow" result="shape"/>
</filter>
<filter id="filter2_dd" x="224" y="0" width="584" height="654" filterUnits="userSpaceOnUse" color-interpolation-filters="sRGB">
<feFlood flood-opacity="0" result="BackgroundImageFix"/>
<feColorMatrix in="SourceAlpha" type="matrix" values="0 0 0 0 0 0 0 0 0 0 0 0 0 0 0 0 0 0 127 0"/>
<feOffset dx="-4" dy="4"/>
<feGaussianBlur stdDeviation="5"/>
<feColorMatrix type="matrix" values="0 0 0 0 0 0 0 0 0 0 0 0 0 0 0 0 0 0 0.3 0"/>
<feBlend mode="normal" in2="BackgroundImageFix" result="effect1_dropShadow"/>
<feColorMatrix in="SourceAlpha" type="matrix" values="0 0 0 0 0 0 0 0 0 0 0 0 0 0 0 0 0 0 127 0"/>
<feOffset dx="4"/>
<feGaussianBlur stdDeviation="5"/>
<feColorMatrix type="matrix" values="0 0 0 0 0 0 0 0 0 0 0 0 0 0 0 0 0 0 0.3 0"/>
<feBlend mode="normal" in2="effect1_dropShadow" result="effect2_dropShadow"/>
<feBlend mode="normal" in="SourceGraphic" in2="effect2_dropShadow" result="shape"/>
</filter>
<filter id="filter3_d" x="284.5" y="136" width="456" height="68" filterUnits="userSpaceOnUse" color-interpolation-filters="sRGB">
<feFlood flood-opacity="0" result="BackgroundImageFix"/>
<feColorMatrix in="SourceAlpha" type="matrix" values="0 0 0 0 0 0 0 0 0 0 0 0 0 0 0 0 0 0 127 0"/>
<feOffset dy="4"/>
<feGaussianBlur stdDeviation="2"/>
<feColorMatrix type="matrix" values="0 0 0 0 0 0 0 0 0 0 0 0 0 0 0 0 0 0 0.25 0"/>
<feBlend mode="normal" in2="BackgroundImageFix" result="effect1_dropShadow"/>
<feBlend mode="normal" in="SourceGraphic" in2="effect1_dropShadow" result="shape"/>
</filter>
<filter id="filter4_d" x="284.5" y="227" width="456" height="68" filterUnits="userSpaceOnUse" color-interpolation-filters="sRGB">
<feFlood flood-opacity="0" result="BackgroundImageFix"/>
<feColorMatrix in="SourceAlpha" type="matrix" values="0 0 0 0 0 0 0 0 0 0 0 0 0 0 0 0 0 0 127 0"/>
<feOffset dy="4"/>
<feGaussianBlur stdDeviation="2"/>
<feColorMatrix type="matrix" values="0 0 0 0 0 0 0 0 0 0 0 0 0 0 0 0 0 0 0.25 0"/>
<feBlend mode="normal" in2="BackgroundImageFix" result="effect1_dropShadow"/>
<feBlend mode="normal" in="SourceGraphic" in2="effect1_dropShadow" result="shape"/>
</filter>
<clipPath id="clip0">
<rect x="333.5" y="144" width="40" height="40" fill="white"/>
</clipPath>
</defs>
</svg>
