<svg width="808" height="471" viewBox="0 0 808 471" fill="none" xmlns="http://www.w3.org/2000/svg">
<g filter="url(#filter0_d)">
<path d="M764.795 457.289C763.407 460.018 761.826 461.158 759.046 462.146C758.368 462.388 757.65 462.49 756.93 462.489L52.6367 461.606C47.5095 461.311 45.7017 459.608 44.3233 454.805C44.1599 454.236 44.0884 453.643 44.0884 453.05V87.7664C44.0884 83.9004 40.9544 80.7664 37.0884 80.7664H25.9999C25.0976 80.7664 24.1926 80.6118 23.3874 80.2046C20.6835 78.8371 19.7484 77.1829 19.1543 74.0766C19.0682 73.6263 19.0368 73.1647 19.0639 72.7069C19.2696 69.2285 20.2184 67.2931 23.0185 65.3008C24.0429 64.572 25.2972 64.2594 26.5544 64.2594H59.0007C60.0504 64.2594 61.0924 64.0295 62.0268 63.5512C67.6482 60.6741 70.2077 58.0205 70.8668 50.94C70.8997 50.5864 70.9 50.2235 70.8683 49.8697C70.1906 42.2966 67.5217 39.732 62.0197 36.9534C61.0892 36.4835 60.0544 36.2564 59.012 36.2564H11.7831C11.3118 36.2564 10.8384 36.2121 10.3798 36.1039C6.04952 35.0818 4.79619 33.3495 4.12957 29.6712C4.03544 29.1518 4.01642 28.6191 4.07033 28.094C4.52325 23.6828 5.86319 21.6534 10.0387 20.1056C10.7183 19.8537 11.4452 19.7494 12.17 19.7494H38.562C42.428 19.7494 45.5623 16.6154 45.5623 12.7494V7.06009C45.5623 6.48234 45.6272 5.9034 45.7919 5.34963C46.713 2.25367 48.0915 0.864204 52.0628 0.102738C52.4426 0.0299181 52.831 0 53.2177 0H757.372C757.995 0 758.619 0.0773293 759.213 0.26326C762.908 1.41796 764.339 2.93132 765.211 6.33834C765.336 6.82515 765.385 7.32788 765.385 7.83041V371.482C765.385 375.348 768.519 378.482 772.385 378.482H780.945C781.767 378.482 782.588 378.618 783.347 378.933C787.369 380.603 788.721 382.442 788.945 386.513C788.964 386.856 788.949 387.202 788.902 387.543C788.269 392.148 786.662 393.85 783.739 395.588C782.735 396.185 781.575 396.463 780.407 396.463H748.232C747.682 396.463 747.133 396.525 746.601 396.663C739.214 398.587 736.952 401.492 736.263 408.743C736.22 409.201 736.229 409.663 736.29 410.119C737.238 417.131 739.541 419.992 746.558 422.152C747.117 422.324 747.7 422.411 748.285 422.427L798.265 423.815C799.696 423.855 801.152 424.266 802.099 425.339C803.604 427.045 803.773 428.799 804 431.54C803.744 436.162 802.37 438.04 798.828 439.782C797.974 440.202 797.024 440.383 796.072 440.383H772.385C768.519 440.383 765.385 443.517 765.385 447.383V454.594C765.385 455.526 765.217 456.459 764.795 457.289Z" fill="#F8F8F8"/>
</g>
<defs>
<filter id="filter0_d" x="0.0405273" y="0" width="807.959" height="470.489" filterUnits="userSpaceOnUse" color-interpolation-filters="sRGB">
<feFlood flood-opacity="0" result="BackgroundImageFix"/>
<feColorMatrix in="SourceAlpha" type="matrix" values="0 0 0 0 0 0 0 0 0 0 0 0 0 0 0 0 0 0 127 0"/>
<feOffset dy="4"/>
<feGaussianBlur stdDeviation="2"/>
<feColorMatrix type="matrix" values="0 0 0 0 0 0 0 0 0 0 0 0 0 0 0 0 0 0 0.25 0"/>
<feBlend mode="normal" in2="BackgroundImageFix" result="effect1_dropShadow"/>
<feBlend mode="normal" in="SourceGraphic" in2="effect1_dropShadow" result="shape"/>
</filter>
</defs>
</svg>
