<svg width="30" height="40" viewBox="0 0 30 40" fill="none" xmlns="http://www.w3.org/2000/svg">
<path d="M13.03 27.6811L12.5043 32.4084C12.4783 32.6436 12.5539 32.8796 12.7118 33.0562C12.8697 33.2328 13.0959 33.3337 13.3327 33.3337H16.6661C16.9029 33.3337 17.1292 33.2328 17.287 33.0562C17.4449 32.8796 17.5206 32.6436 17.4945 32.4084L16.9688 27.6811C17.8225 27.0601 18.3327 26.0779 18.3327 25.0004C18.3327 23.162 16.8378 21.667 14.9994 21.667C13.1609 21.667 11.666 23.162 11.666 25.0004C11.666 26.0779 12.1763 27.0601 13.03 27.6811ZM14.9994 23.3337C15.9181 23.3337 16.666 24.0816 16.666 25.0004C16.666 25.6392 16.3031 26.2113 15.7188 26.4945C15.4006 26.6491 15.2142 26.9861 15.2533 27.3368L15.7351 31.667H14.2638L14.7456 27.3368C14.7846 26.986 14.5983 26.6491 14.2801 26.4945C13.6958 26.2113 13.3328 25.6392 13.3328 25.0004C13.3327 24.0816 14.0806 23.3337 14.9994 23.3337Z" fill="black"/>
<path d="M29.1666 15H26.6666V11.6666C26.6666 5.23359 21.4331 0 15 0C8.56687 0 3.33336 5.23359 3.33336 11.6666V15H0.833359C0.372734 15 0 15.3727 0 15.8334V36.6667C0 38.5051 1.49492 40 3.33336 40H26.6667C28.5051 40 30 38.5051 30 36.6666V15.8334C30 15.3727 29.6273 15 29.1666 15ZM5 11.6666C5 6.15234 9.4857 1.66664 15 1.66664C20.5143 1.66664 25 6.15234 25 11.6666V15H23.3334V11.6666C23.3334 7.07187 19.5948 3.33328 15 3.33328C10.4052 3.33328 6.66664 7.07195 6.66664 11.6666V15H5V11.6666ZM21.6666 11.6666V15H8.33336V11.6666C8.33336 7.9907 11.3241 5 15 5C18.6759 5 21.6666 7.9907 21.6666 11.6666ZM28.3334 36.6666C28.3334 37.5854 27.5855 38.3333 26.6667 38.3333H3.33336C2.41461 38.3333 1.66672 37.5854 1.66672 36.6666V16.6666H28.3334V36.6666Z" fill="black"/>
</svg>
