<svg width="1440" height="1024" viewBox="0 0 1440 1024" fill="none" xmlns="http://www.w3.org/2000/svg">
<g clip-path="url(#clip0)">
<rect width="1440" height="1024" fill="#FAF5E4"/>
<path d="M413.474 1123.2L956.221 -20.8152L443.675 -251.516L62.0379 -237.701L-266 986.553L413.474 1123.2Z" fill="#F8B400" stroke="#AB8E79"/>
<g filter="url(#filter0_d)">
<path d="M1331.93 894.792C1329.35 900.312 1326.5 902.321 1321.03 904.163C1320.35 904.393 1319.63 904.5 1318.91 904.499L123.5 903C114.593 902.487 111.591 899.469 109.23 890.862C109.073 890.291 109 889.7 109 889.108V264C109 260.134 105.866 257 102 257H77.3662C76.4639 257 75.5644 256.835 74.744 256.46C69.3457 253.988 67.6809 251.081 66.6178 245.18C66.5365 244.729 66.5053 244.269 66.5267 243.811C66.8376 237.159 68.6149 233.767 74.3655 230.015C75.4184 229.328 76.6635 229 77.9207 229H135.405C136.455 229 137.497 228.766 138.437 228.298C148.765 223.166 153.357 218.74 154.456 206.038C154.487 205.684 154.487 205.315 154.457 204.961C153.324 191.378 148.523 187.15 138.429 182.191C137.493 181.731 136.459 181.5 135.417 181.5H53.7086C53.2374 181.5 52.7647 181.454 52.3047 181.352C44.352 179.585 42.2564 176.539 41.125 169.786C41.0378 169.265 41.0182 168.733 41.0659 168.208C41.8028 160.087 44.1318 156.57 51.9592 153.847C52.6438 153.609 53.3761 153.5 54.1009 153.5H104.494C108.36 153.5 111.5 150.366 111.5 146.5V131.37C111.5 130.792 111.569 130.213 111.723 129.656C113.318 123.889 115.631 121.421 122.925 120.1C123.305 120.031 123.694 120 124.081 120H1319.56C1320.18 120 1320.81 120.081 1321.41 120.257C1328.33 122.297 1330.82 124.927 1332.33 131.262C1332.45 131.751 1332.5 132.253 1332.5 132.756V755C1332.5 758.866 1335.63 762 1339.5 762H1359.76C1360.58 762 1361.4 762.141 1362.17 762.442C1369.74 765.413 1372.15 768.556 1372.48 775.98C1372.5 776.324 1372.48 776.677 1372.44 777.018C1371.33 785.651 1368.28 788.403 1362.56 791.638C1361.54 792.213 1360.39 792.5 1359.22 792.5H1302.83C1302.28 792.5 1301.72 792.565 1301.19 792.699C1288.06 796.003 1284.19 800.976 1283.06 813.805C1283.02 814.263 1283.03 814.736 1283.09 815.192C1284.68 827.626 1288.63 832.519 1301.15 836.252C1301.71 836.419 1302.3 836.508 1302.88 836.524L1389.8 838.939C1391.23 838.979 1392.65 839.424 1393.7 840.391C1397.26 843.655 1397.57 846.767 1398 852C1397.54 860.223 1395 863.325 1388.32 866.413C1387.45 866.812 1386.51 867 1385.56 867H1339.5C1335.63 867 1332.5 870.134 1332.5 874V892.088C1332.5 893.02 1332.32 893.948 1331.93 894.792Z" fill="#F8F8F8"/>
</g>
<path d="M987.667 472.175C987.667 472.175 955.595 448.715 953.161 457.315C950.727 465.915 976.693 485.459 976.693 485.459L987.667 472.175Z" fill="#FFB9B9"/>
<path opacity="0.1" d="M987.667 472.175C987.667 472.175 955.595 448.715 953.161 457.315C950.727 465.915 976.693 485.459 976.693 485.459L987.667 472.175Z" fill="black"/>
<path opacity="0.1" d="M1093.54 397.899C1093.54 397.899 1055.4 463.57 1054.59 472.951C1053.78 482.333 1053.78 483.115 1050.53 482.333C1047.29 481.551 1002.66 476.86 998.601 478.424C994.544 479.987 986.429 469.042 986.429 469.042C986.429 469.042 971.012 483.896 974.258 487.024C977.503 490.151 987.241 491.714 988.864 495.623C990.486 499.532 992.921 503.441 1000.22 502.659C1007.53 501.878 1057.02 515.168 1063.52 512.823C1070.01 510.477 1071.63 506.568 1074.88 506.568C1078.12 506.568 1084.61 503.441 1084.61 502.659C1084.61 501.878 1107.33 460.443 1107.33 460.443C1107.33 460.443 1134.11 404.154 1093.54 397.899Z" fill="black"/>
<path d="M978.667 456.277C978.667 456.277 946.595 432.817 944.161 441.416C941.727 450.016 967.693 469.561 967.693 469.561L978.667 456.277Z" fill="#FFB9B9"/>
<path opacity="0.1" d="M978.667 456.277C978.667 456.277 946.595 432.817 944.161 441.416C941.727 450.016 967.693 469.561 967.693 469.561L978.667 456.277Z" fill="black"/>
<path opacity="0.1" d="M1084.54 382C1084.54 382 1046.4 447.67 1045.59 457.052C1044.78 466.433 1044.78 467.215 1041.53 466.433C1038.29 465.652 993.658 460.961 989.601 462.524C985.544 464.088 977.429 453.143 977.429 453.143C977.429 453.143 962.012 467.997 965.258 471.124C968.503 474.251 978.241 475.815 979.864 479.724C981.486 483.633 983.921 487.542 991.224 486.76C998.527 485.978 1048.02 499.269 1054.52 496.923C1061.01 494.578 1062.63 490.669 1065.88 490.669C1069.12 490.669 1075.61 487.542 1075.61 486.76C1075.61 485.978 1098.33 444.543 1098.33 444.543C1098.33 444.543 1125.11 388.254 1084.54 382Z" fill="black"/>
<path d="M405.642 506.582C405.642 506.582 435.321 508.488 440.597 504.676C445.873 500.863 468.297 509.759 470.276 514.843C472.254 519.926 438.618 520.561 433.342 520.561C428.066 520.561 403.004 528.186 403.004 528.186L405.642 506.582Z" fill="#A0616A"/>
<g filter="url(#filter1_dd)">
<rect x="441" y="166" width="556" height="630" rx="10" fill="#F1F0F0"/>
</g>
<path d="M666.07 227.934H679.547V231H662.301V202.562H666.07V227.934ZM682.301 220.238C682.301 218.168 682.704 216.306 683.512 214.652C684.332 212.999 685.465 211.723 686.91 210.824C688.368 209.926 690.029 209.477 691.891 209.477C694.768 209.477 697.092 210.473 698.863 212.465C700.647 214.457 701.539 217.107 701.539 220.414V220.668C701.539 222.725 701.142 224.574 700.348 226.215C699.566 227.842 698.44 229.112 696.969 230.023C695.51 230.935 693.831 231.391 691.93 231.391C689.065 231.391 686.741 230.395 684.957 228.402C683.186 226.41 682.301 223.773 682.301 220.492V220.238ZM685.934 220.668C685.934 223.012 686.474 224.893 687.555 226.312C688.648 227.732 690.107 228.441 691.93 228.441C693.766 228.441 695.224 227.725 696.305 226.293C697.385 224.848 697.926 222.829 697.926 220.238C697.926 217.921 697.372 216.046 696.266 214.613C695.172 213.168 693.714 212.445 691.891 212.445C690.107 212.445 688.668 213.155 687.574 214.574C686.48 215.993 685.934 218.025 685.934 220.668ZM705.211 220.258C705.211 216.964 705.973 214.346 707.496 212.406C709.02 210.453 711.038 209.477 713.551 209.477C716.129 209.477 718.141 210.388 719.586 212.211L719.762 209.867H723.062V230.492C723.062 233.227 722.249 235.382 720.621 236.957C719.007 238.533 716.832 239.32 714.098 239.32C712.574 239.32 711.083 238.995 709.625 238.344C708.167 237.693 707.053 236.801 706.285 235.668L708.16 233.5C709.71 235.414 711.604 236.371 713.844 236.371C715.602 236.371 716.969 235.876 717.945 234.887C718.935 233.897 719.43 232.504 719.43 230.707V228.891C717.984 230.557 716.012 231.391 713.512 231.391C711.038 231.391 709.033 230.395 707.496 228.402C705.973 226.41 705.211 223.695 705.211 220.258ZM708.844 220.668C708.844 223.051 709.332 224.926 710.309 226.293C711.285 227.647 712.652 228.324 714.41 228.324C716.689 228.324 718.362 227.289 719.43 225.219V215.57C718.323 213.552 716.663 212.543 714.449 212.543C712.691 212.543 711.318 213.227 710.328 214.594C709.339 215.961 708.844 217.986 708.844 220.668ZM732.457 231H728.844V209.867H732.457V231ZM728.551 204.262C728.551 203.676 728.727 203.181 729.078 202.777C729.443 202.374 729.977 202.172 730.68 202.172C731.383 202.172 731.917 202.374 732.281 202.777C732.646 203.181 732.828 203.676 732.828 204.262C732.828 204.848 732.646 205.336 732.281 205.727C731.917 206.117 731.383 206.312 730.68 206.312C729.977 206.312 729.443 206.117 729.078 205.727C728.727 205.336 728.551 204.848 728.551 204.262ZM741.676 209.867L741.793 212.523C743.408 210.492 745.517 209.477 748.121 209.477C752.587 209.477 754.84 211.996 754.879 217.035V231H751.266V217.016C751.253 215.492 750.901 214.366 750.211 213.637C749.534 212.908 748.473 212.543 747.027 212.543C745.855 212.543 744.827 212.855 743.941 213.48C743.056 214.105 742.366 214.926 741.871 215.941V231H738.258V209.867H741.676Z" fill="black"/>
<g filter="url(#filter2_d)">
<rect x="491.5" y="292" width="448" height="60" rx="12" fill="white"/>
</g>
<g clip-path="url(#clip1)">
<path d="M556.5 320C550.986 320 546.5 315.514 546.5 310C546.5 304.486 550.986 300 556.5 300C562.014 300 566.5 304.486 566.5 310C566.5 315.514 562.014 320 556.5 320V320ZM556.5 302.5C552.364 302.5 549 305.864 549 310C549 314.136 552.364 317.5 556.5 317.5C560.636 317.5 564 314.136 564 310C564 305.864 560.636 302.5 556.5 302.5V302.5Z" fill="black"/>
<path d="M572.75 340H540.25C539.559 340 539 339.441 539 338.75V330.145C539 328.854 539.66 327.641 540.722 326.976C550.11 321.121 562.899 321.122 572.276 326.975C573.34 327.64 574 328.854 574 330.145V338.75C574 339.441 573.441 340 572.75 340V340ZM541.5 337.5H571.5V330.145C571.5 329.71 571.29 329.307 570.952 329.096C562.369 323.738 550.637 323.734 542.047 329.097C541.71 329.307 541.5 329.71 541.5 330.146L541.5 337.5Z" fill="black"/>
</g>
<g filter="url(#filter3_d)">
<rect x="491.5" y="383" width="448" height="60" rx="12" fill="white"/>
</g>
<path d="M554.53 420.681L554.004 425.408C553.978 425.644 554.054 425.88 554.212 426.056C554.37 426.233 554.596 426.334 554.833 426.334H558.166C558.403 426.334 558.629 426.233 558.787 426.056C558.945 425.88 559.021 425.644 558.995 425.408L558.469 420.681C559.323 420.06 559.833 419.078 559.833 418C559.833 416.162 558.338 414.667 556.499 414.667C554.661 414.667 553.166 416.162 553.166 418C553.166 419.078 553.676 420.06 554.53 420.681ZM556.499 416.334C557.418 416.334 558.166 417.082 558.166 418C558.166 418.639 557.803 419.211 557.219 419.494C556.901 419.649 556.714 419.986 556.753 420.337L557.235 424.667H555.764L556.246 420.337C556.285 419.986 556.098 419.649 555.78 419.494C555.196 419.211 554.833 418.639 554.833 418C554.833 417.082 555.581 416.334 556.499 416.334Z" fill="black"/>
<path d="M570.667 408H568.167V404.667C568.167 398.234 562.933 393 556.5 393C550.067 393 544.833 398.234 544.833 404.667V408H542.333C541.873 408 541.5 408.373 541.5 408.833V429.667C541.5 431.505 542.995 433 544.833 433H568.167C570.005 433 571.5 431.505 571.5 429.667V408.833C571.5 408.373 571.127 408 570.667 408ZM546.5 404.667C546.5 399.152 550.986 394.667 556.5 394.667C562.014 394.667 566.5 399.152 566.5 404.667V408H564.833V404.667C564.833 400.072 561.095 396.333 556.5 396.333C551.905 396.333 548.167 400.072 548.167 404.667V408H546.5V404.667ZM563.167 404.667V408H549.833V404.667C549.833 400.991 552.824 398 556.5 398C560.176 398 563.167 400.991 563.167 404.667ZM569.833 429.667C569.833 430.585 569.085 431.333 568.167 431.333H544.833C543.915 431.333 543.167 430.585 543.167 429.667V409.667H569.833V429.667V429.667Z" fill="black"/>
<path d="M713.382 605.024C713.382 607.114 713.03 608.94 712.327 610.503C711.624 612.056 710.628 613.242 709.339 614.062C708.05 614.883 706.546 615.293 704.827 615.293C703.147 615.293 701.658 614.883 700.359 614.062C699.061 613.232 698.05 612.056 697.327 610.532C696.614 608.999 696.248 607.227 696.229 605.215V603.677C696.229 601.626 696.585 599.814 697.298 598.242C698.011 596.67 699.017 595.469 700.315 594.639C701.624 593.799 703.118 593.379 704.798 593.379C706.507 593.379 708.011 593.794 709.31 594.624C710.618 595.444 711.624 596.641 712.327 598.213C713.03 599.775 713.382 601.597 713.382 603.677V605.024ZM710.584 603.647C710.584 601.118 710.076 599.18 709.061 597.832C708.045 596.475 706.624 595.796 704.798 595.796C703.021 595.796 701.619 596.475 700.594 597.832C699.578 599.18 699.056 601.055 699.026 603.457V605.024C699.026 607.476 699.539 609.404 700.564 610.811C701.6 612.207 703.021 612.905 704.827 612.905C706.644 612.905 708.05 612.246 709.046 610.928C710.042 609.6 710.555 607.7 710.584 605.229V603.647ZM725.423 606.372H720.413V615H717.586V593.672H724.646C727.049 593.672 728.895 594.219 730.184 595.312C731.482 596.406 732.132 597.998 732.132 600.088C732.132 601.416 731.771 602.573 731.048 603.56C730.335 604.546 729.339 605.283 728.06 605.771L733.069 614.824V615H730.052L725.423 606.372ZM720.413 604.072H724.734C726.131 604.072 727.239 603.711 728.06 602.988C728.89 602.266 729.305 601.299 729.305 600.088C729.305 598.77 728.909 597.759 728.118 597.056C727.337 596.353 726.204 595.996 724.72 595.986H720.413V604.072Z" fill="black"/>
<line x1="528.5" y1="606.5" x2="684.5" y2="606.5" stroke="black"/>
<line x1="741.5" y1="606.5" x2="897.5" y2="606.5" stroke="black"/>
<path d="M656.303 647.7H666.41V650H653.476V628.672H656.303V647.7ZM668.476 641.929C668.476 640.376 668.778 638.979 669.384 637.739C669.999 636.499 670.849 635.542 671.933 634.868C673.026 634.194 674.271 633.857 675.668 633.857C677.826 633.857 679.569 634.604 680.897 636.099C682.235 637.593 682.904 639.58 682.904 642.061V642.251C682.904 643.794 682.606 645.181 682.011 646.411C681.425 647.632 680.58 648.584 679.477 649.268C678.383 649.951 677.123 650.293 675.697 650.293C673.549 650.293 671.806 649.546 670.468 648.052C669.14 646.558 668.476 644.58 668.476 642.119V641.929ZM671.2 642.251C671.2 644.009 671.605 645.42 672.416 646.484C673.236 647.549 674.33 648.081 675.697 648.081C677.074 648.081 678.168 647.544 678.979 646.47C679.789 645.386 680.194 643.872 680.194 641.929C680.194 640.19 679.779 638.784 678.949 637.71C678.129 636.626 677.035 636.084 675.668 636.084C674.33 636.084 673.251 636.616 672.431 637.681C671.61 638.745 671.2 640.269 671.2 642.251ZM685.658 641.943C685.658 639.473 686.229 637.51 687.372 636.055C688.515 634.59 690.028 633.857 691.913 633.857C693.847 633.857 695.355 634.541 696.439 635.908L696.571 634.15H699.047V649.619C699.047 651.67 698.437 653.286 697.216 654.468C696.005 655.649 694.374 656.24 692.323 656.24C691.181 656.24 690.062 655.996 688.969 655.508C687.875 655.02 687.04 654.351 686.464 653.501L687.87 651.875C689.032 653.311 690.453 654.028 692.133 654.028C693.451 654.028 694.477 653.657 695.209 652.915C695.951 652.173 696.322 651.128 696.322 649.78V648.418C695.238 649.668 693.759 650.293 691.884 650.293C690.028 650.293 688.524 649.546 687.372 648.052C686.229 646.558 685.658 644.521 685.658 641.943ZM688.383 642.251C688.383 644.038 688.749 645.444 689.481 646.47C690.214 647.485 691.239 647.993 692.558 647.993C694.267 647.993 695.521 647.217 696.322 645.664V638.428C695.492 636.914 694.247 636.157 692.587 636.157C691.269 636.157 690.238 636.67 689.496 637.695C688.754 638.721 688.383 640.239 688.383 642.251ZM706.093 650H703.383V634.15H706.093V650ZM703.163 629.946C703.163 629.507 703.295 629.136 703.559 628.833C703.832 628.53 704.232 628.379 704.76 628.379C705.287 628.379 705.688 628.53 705.961 628.833C706.234 629.136 706.371 629.507 706.371 629.946C706.371 630.386 706.234 630.752 705.961 631.045C705.688 631.338 705.287 631.484 704.76 631.484C704.232 631.484 703.832 631.338 703.559 631.045C703.295 630.752 703.163 630.386 703.163 629.946ZM713.007 634.15L713.095 636.143C714.306 634.619 715.888 633.857 717.841 633.857C721.19 633.857 722.88 635.747 722.909 639.526V650H720.199V639.512C720.189 638.369 719.926 637.524 719.408 636.978C718.9 636.431 718.104 636.157 717.021 636.157C716.142 636.157 715.37 636.392 714.706 636.86C714.042 637.329 713.524 637.944 713.153 638.706V650H710.443V634.15H713.007ZM748.471 646.265L751.518 634.15H754.228L749.613 650H747.416L743.563 637.988L739.813 650H737.616L733.017 634.15H735.712L738.832 646.016L742.523 634.15H744.706L748.471 646.265ZM759.94 650H757.23V634.15H759.94V650ZM757.011 629.946C757.011 629.507 757.143 629.136 757.406 628.833C757.68 628.53 758.08 628.379 758.607 628.379C759.135 628.379 759.535 628.53 759.809 628.833C760.082 629.136 760.219 629.507 760.219 629.946C760.219 630.386 760.082 630.752 759.809 631.045C759.535 631.338 759.135 631.484 758.607 631.484C758.08 631.484 757.68 631.338 757.406 631.045C757.143 630.752 757.011 630.386 757.011 629.946ZM767.968 630.312V634.15H770.927V636.245H767.968V646.074C767.968 646.709 768.1 647.188 768.363 647.51C768.627 647.822 769.076 647.979 769.711 647.979C770.023 647.979 770.453 647.92 771 647.803V650C770.287 650.195 769.594 650.293 768.92 650.293C767.709 650.293 766.796 649.927 766.181 649.194C765.565 648.462 765.258 647.422 765.258 646.074V636.245H762.372V634.15H765.258V630.312H767.968ZM776.815 636.069C778.017 634.595 779.579 633.857 781.503 633.857C784.853 633.857 786.542 635.747 786.571 639.526V650H783.861V639.512C783.852 638.369 783.588 637.524 783.07 636.978C782.562 636.431 781.767 636.157 780.683 636.157C779.804 636.157 779.032 636.392 778.368 636.86C777.704 637.329 777.187 637.944 776.815 638.706V650H774.105V627.5H776.815V636.069Z" fill="#423B3B"/>
<path d="M1093.54 397.899C1093.54 397.899 1055.4 463.57 1054.59 472.951C1053.78 482.333 1053.78 483.115 1050.53 482.333C1047.29 481.551 1002.66 476.86 998.601 478.424C994.544 479.987 986.429 469.042 986.429 469.042C986.429 469.042 971.012 483.896 974.258 487.024C977.503 490.151 987.241 491.714 988.864 495.623C990.486 499.532 992.921 503.441 1000.22 502.659C1007.53 501.878 1057.02 515.168 1063.52 512.823C1070.01 510.477 1071.63 506.568 1074.88 506.568C1078.12 506.568 1084.61 503.441 1084.61 502.659C1084.61 501.878 1107.33 460.443 1107.33 460.443C1107.33 460.443 1134.11 404.154 1093.54 397.899Z" fill="#D0CDE1"/>
<path d="M1038.21 354.606C1037.86 358.757 1037.93 362.932 1038.42 367.07C1039.65 376.052 1043.94 385.415 1039.89 393.799C1038.42 396.843 1035.92 399.494 1034.57 402.574C1031.69 409.094 1034.3 416.325 1033.91 423.264C1033.4 432.228 1027.48 440.865 1018.48 445.777C1033.86 446.237 1048.49 438.912 1058.16 428.929C1067.84 418.947 1073.23 406.565 1077.27 394.177C1079.34 388.359 1080.68 382.319 1081.23 376.19C1081.55 372.669 1081.13 369.122 1079.97 365.767C1078.55 362.489 1076.68 359.409 1074.41 356.611C1071.98 353.329 1069.5 349.982 1065.92 347.54C1061.52 344.532 1053.03 341.512 1047.19 341.95C1040.02 342.487 1038.51 349.815 1038.21 354.606Z" fill="#2F2E41"/>
<path d="M1061.89 379.136C1061.89 379.136 1070.82 409.626 1063.52 418.226C1056.21 426.825 1107.34 414.317 1107.34 414.317C1107.34 414.317 1082.18 390.081 1094.35 374.445L1061.89 379.136Z" fill="#FFB9B9"/>
<path opacity="0.1" d="M1061.89 379.136C1061.89 379.136 1070.82 409.626 1063.52 418.226C1056.21 426.825 1107.34 414.317 1107.34 414.317C1107.34 414.317 1082.18 390.081 1094.35 374.445L1061.89 379.136Z" fill="black"/>
<path d="M1032.68 785.668V808.34L1044.85 822.411L1055.4 817.72L1052.16 784.886L1032.68 785.668Z" fill="#FFB9B9"/>
<path d="M1037.55 806.776C1037.55 806.776 1034.31 795.83 1028.63 803.648C1022.95 811.466 1017.27 828.666 1014.02 829.447C1010.77 830.229 988.054 854.465 1010.77 854.465C1033.5 854.465 1040.8 844.302 1040.8 844.302C1040.8 844.302 1063.52 835.702 1063.52 834.138C1063.52 832.575 1060.27 803.648 1058.65 803.648C1057.03 803.648 1056.22 809.121 1052.16 809.121C1048.1 809.121 1037.55 806.776 1037.55 806.776Z" fill="#2F2E41"/>
<path d="M1087.05 789.576L1086.24 810.685L1105.71 818.502V788.013L1087.05 789.576Z" fill="#FFB9B9"/>
<path d="M1108.15 810.684C1108.15 810.684 1097.6 799.739 1091.92 802.084C1089.11 803.174 1086.39 804.481 1083.8 805.993C1083.8 805.993 1080.56 816.157 1078.93 824.756C1077.31 833.356 1076.5 837.265 1074.88 840.392C1073.25 843.519 1071.63 855.246 1087.86 856.81C1104.09 858.373 1108.96 849.774 1108.96 849.774L1113.02 829.447C1113.02 829.447 1111.39 810.684 1108.15 810.684Z" fill="#2F2E41"/>
<path d="M1043.23 564.421C1043.23 564.421 1019.7 615.237 1022.94 661.363C1022.94 661.363 1014.83 679.344 1019.7 707.489C1024.57 735.633 1031.06 791.922 1031.06 791.922C1031.06 791.922 1052.97 794.267 1054.59 790.358C1054.59 790.358 1056.21 751.269 1057.84 749.705C1059.46 748.142 1057.02 712.179 1054.59 705.143C1052.16 698.107 1077.31 628.528 1077.31 628.528L1070.82 541.749L1043.23 564.421Z" fill="#2F2E41"/>
<path opacity="0.1" d="M1043.23 564.421C1043.23 564.421 1019.7 615.237 1022.94 661.363C1022.94 661.363 1014.83 679.344 1019.7 707.489C1024.57 735.633 1031.06 791.922 1031.06 791.922C1031.06 791.922 1052.97 794.267 1054.59 790.358C1054.59 790.358 1056.21 751.269 1057.84 749.705C1059.46 748.142 1057.02 712.179 1054.59 705.143C1052.16 698.107 1077.31 628.528 1077.31 628.528L1070.82 541.749L1043.23 564.421Z" fill="black"/>
<path d="M1036.74 561.293L1052.16 593.347C1052.16 593.347 1059.46 666.053 1063.52 675.435C1063.52 675.435 1065.14 702.015 1072.44 710.615C1079.75 719.215 1085.43 795.049 1085.43 795.049C1085.43 795.049 1105.71 800.521 1107.34 795.049C1108.96 789.576 1113.83 752.05 1113.83 752.05C1113.83 752.05 1115.45 719.997 1106.52 698.888C1097.6 677.78 1117.07 601.946 1117.07 601.946C1117.07 601.946 1137.36 565.202 1108.15 535.494L1036.74 561.293Z" fill="#2F2E41"/>
<path d="M1079.75 388.518C1098.12 388.518 1113.01 374.167 1113.01 356.465C1113.01 338.762 1098.12 324.411 1079.75 324.411C1061.37 324.411 1046.48 338.762 1046.48 356.465C1046.48 374.167 1061.37 388.518 1079.75 388.518Z" fill="#FFB9B9"/>
<path d="M1110.58 404.936C1110.58 404.936 1075.69 404.936 1070.82 408.844C1069.62 409.948 1068.02 410.564 1066.36 410.564C1064.7 410.564 1063.1 409.948 1061.9 408.844C1061.9 408.844 1049.72 409.626 1046.48 419.008C1043.23 428.389 1033.49 440.898 1033.49 440.898C1033.49 440.898 1018.89 451.061 1027 477.642C1035.12 504.223 1028.63 547.221 1028.63 547.221C1028.63 547.221 1022.13 556.603 1028.63 560.512C1035.12 564.421 1037.55 565.984 1036.74 569.112C1035.93 572.239 1110.58 543.312 1110.58 537.84C1110.58 532.367 1108.96 527.677 1110.58 525.331C1112.2 522.986 1113.83 519.077 1112.2 515.168C1110.58 511.259 1113.83 510.477 1113.02 506.568C1112.2 502.659 1117.07 473.733 1120.32 461.224C1123.56 448.716 1122.75 405.717 1110.58 404.936Z" fill="#D0CDE1"/>
<path d="M987.667 481.557C987.667 481.557 955.595 458.097 953.161 466.697C950.727 475.296 976.693 494.841 976.693 494.841L987.667 481.557Z" fill="#FFB9B9"/>
<path d="M1093.54 408.844C1093.54 408.844 1055.4 474.514 1054.59 483.896C1053.78 493.277 1053.78 494.059 1050.53 493.277C1047.29 492.495 1002.66 487.805 998.601 489.368C994.544 490.932 986.429 479.987 986.429 479.987C986.429 479.987 971.012 494.841 974.258 497.968C977.503 501.095 987.241 502.659 988.864 506.568C990.486 510.477 992.921 514.385 1000.22 513.604C1007.53 512.822 1057.02 526.112 1063.52 523.767C1070.01 521.422 1071.63 517.513 1074.88 517.513C1078.12 517.513 1084.61 514.385 1084.61 513.604C1084.61 512.822 1107.33 471.387 1107.33 471.387C1107.33 471.387 1134.11 415.098 1093.54 408.844Z" fill="#D0CDE1"/>
<path d="M1063.27 376.943C1062.81 373.769 1061.12 370.889 1060.26 367.793C1059.58 365.316 1059.43 362.733 1059.82 360.198C1060.2 357.664 1061.12 355.231 1062.5 353.045C1067.27 345.619 1076.64 342.33 1083.18 336.276C1083.31 339.36 1085.53 341.995 1087.99 343.979C1090.44 345.962 1093.26 347.571 1095.34 349.919C1097.33 352.397 1098.79 355.239 1099.62 358.273C1100.9 361.788 1101.47 365.507 1101.31 369.229C1101.21 371.089 1100.73 372.911 1099.88 374.585C1099.04 376.259 1097.84 377.749 1096.38 378.966C1093.95 380.819 1090.55 381.877 1089.37 384.643C1088.91 386.025 1088.77 387.49 1088.98 388.928C1089.54 397.529 1090.06 406.284 1087.96 414.66C1085.85 423.037 1080.7 431.13 1072.63 434.843C1079.26 435.297 1086.04 435.739 1092.47 434.125C1098.91 432.512 1105.06 428.45 1107.28 422.41C1108.38 419.43 1108.48 416.117 1110.04 413.334C1113.97 406.29 1124.84 405.969 1130.18 399.843C1132.32 397.391 1133.35 394.232 1134.12 391.117C1138.63 372.786 1135.46 353.322 1128.6 335.683C1126.23 329.604 1123.28 323.482 1118.21 319.209C1113.89 315.573 1108.38 313.569 1102.93 311.858C1094.97 309.361 1086.77 307.315 1078.41 307.052C1074.77 306.846 1071.13 307.256 1067.64 308.262C1064.2 309.46 1061 311.219 1058.17 313.46C1045.07 323.284 1036.15 338.983 1037.33 354.939C1038.05 364.593 1042.29 373.73 1047.75 381.858C1049.65 384.701 1054.16 390.762 1058.35 388.975C1062.15 387.354 1063.77 380.372 1063.27 376.943Z" fill="#2F2E41"/>
<path d="M400.037 360.752C418.249 360.752 433.013 349.657 433.013 335.97C433.013 322.284 418.249 311.188 400.037 311.188C381.825 311.188 367.061 322.284 367.061 335.97C367.061 349.657 381.825 360.752 400.037 360.752Z" fill="#2F2E41"/>
<path d="M344.528 802.576C344.528 802.576 330.697 836.181 337.913 840.237C345.13 844.292 420.902 841.395 420.902 841.395C420.902 841.395 433.531 833.863 419.098 828.649C419.098 828.649 407.071 828.069 399.253 823.434C391.435 818.799 382.415 810.108 382.415 810.108C382.415 810.108 381.813 797.361 377.002 800.258C375.563 801.172 374.338 802.366 373.406 803.763C372.474 805.16 371.855 806.729 371.59 808.37L344.528 802.576Z" fill="#2F2E41"/>
<path opacity="0.1" d="M344.528 802.576C344.528 802.576 330.697 836.181 337.913 840.237C345.13 844.292 420.902 841.395 420.902 841.395C420.902 841.395 433.531 833.863 419.098 828.649C419.098 828.649 407.071 828.069 399.253 823.434C391.435 818.799 382.415 810.108 382.415 810.108C382.415 810.108 381.813 797.361 377.002 800.258C375.563 801.172 374.338 802.366 373.406 803.763C372.474 805.16 371.855 806.729 371.59 808.37L344.528 802.576Z" fill="black"/>
<path d="M322.378 813.608C322.378 813.608 307.208 850.463 315.123 854.911C323.037 859.359 406.137 856.182 406.137 856.182C406.137 856.182 419.987 847.921 404.159 842.202C404.159 842.202 390.968 841.567 382.394 836.484C373.821 831.4 363.928 821.869 363.928 821.869C363.928 821.869 363.268 807.889 357.992 811.066C356.413 812.068 355.07 813.378 354.048 814.91C353.025 816.442 352.347 818.163 352.056 819.962L322.378 813.608Z" fill="#2F2E41"/>
<path d="M400.202 579.772L390.969 659.836C390.969 659.836 387.671 697.961 377.778 706.222C377.778 706.222 377.778 718.295 374.481 722.108L369.864 772.306C369.864 772.306 376.459 790.733 375.8 793.911C375.14 797.088 378.438 807.254 377.778 808.525C377.119 809.796 346.121 808.525 346.121 808.525L352.716 706.222L373.162 563.887L400.202 579.772Z" fill="#2F2E41"/>
<path opacity="0.1" d="M400.202 579.772L390.969 659.836C390.969 659.836 387.671 697.961 377.778 706.222C377.778 706.222 377.778 718.295 374.481 722.108L369.864 772.306C369.864 772.306 376.459 790.733 375.8 793.911C375.14 797.088 378.438 807.254 377.778 808.525C377.119 809.796 346.121 808.525 346.121 808.525L352.716 706.222L373.162 563.887L400.202 579.772Z" fill="black"/>
<path d="M383.715 577.23C383.715 577.23 376.46 642.679 373.162 656.658C371.089 665.864 369.766 675.212 369.205 684.617C369.205 684.617 368.545 704.95 362.61 710.669C360.873 712.326 359.508 714.309 358.601 716.495C357.693 718.681 357.262 721.024 357.334 723.378C357.334 723.378 351.398 787.556 354.695 795.181C357.993 802.806 361.291 809.16 357.993 814.244C354.695 819.327 318.421 819.327 318.421 815.514C318.421 811.702 318.421 808.525 316.443 806.618C314.464 804.712 316.443 792.639 316.443 792.639C316.443 792.639 308.529 736.086 315.783 719.565C323.038 703.044 326.336 657.929 326.336 657.929C326.336 657.929 321.06 606.46 314.464 598.199C307.869 589.938 315.783 560.709 315.783 560.709L383.715 577.23Z" fill="#2F2E41"/>
<path d="M365.146 373.983C365.913 375.666 367.748 376.603 369.419 377.49C379.102 382.63 387.208 390.081 395.193 397.447C393.201 390.941 393.625 383.97 396.394 377.733C397.347 375.606 398.597 373.319 397.915 371.097C397.414 369.463 395.97 368.284 394.571 367.242C391.313 364.814 387.907 362.575 384.372 360.538C381.902 359.114 376.825 355.325 373.992 355.737C373.843 359.426 373.765 362.724 372.088 366.172C371.691 366.99 365.44 374.627 365.146 373.983Z" fill="#A0616A"/>
<path d="M398.884 382.155C413.818 382.155 425.925 370.491 425.925 356.102C425.925 341.714 413.818 330.05 398.884 330.05C383.95 330.05 371.844 341.714 371.844 356.102C371.844 370.491 383.95 382.155 398.884 382.155Z" fill="#A0616A"/>
<path d="M400.203 417.739C400.203 417.739 404.82 395.499 391.629 387.874C378.439 380.248 363.27 371.353 363.27 371.353C363.27 371.353 358.653 370.717 356.674 380.248C356.674 380.248 319.081 387.238 315.124 421.551C311.167 455.864 317.762 506.063 317.762 506.063C317.762 506.063 311.826 549.907 304.572 573.418C304.572 573.418 298.636 578.501 325.017 570.876C351.398 563.251 397.565 592.48 397.565 592.48C397.565 592.48 402.182 588.032 402.182 584.855C402.182 581.678 407.458 563.251 407.458 563.251C407.458 563.251 412.075 485.094 414.053 476.198C416.032 467.302 406.139 419.009 400.203 417.739Z" fill="#575A89"/>
<path d="M392.511 358.786C394.135 357.919 395.957 357.451 397.814 357.425C399.673 357.399 401.489 356.877 403.06 355.919C405.614 354.03 405.802 350.379 407.67 347.852C410.376 344.194 415.773 343.753 420.431 343.937C423.28 344.048 426.348 344.212 428.748 342.728C431.211 341.203 432.327 338.332 433.158 335.627C434.14 332.429 434.775 328.518 432.341 326.146C430.651 324.499 427.984 324.173 426.106 322.726C424.16 321.226 423.359 318.785 422.301 316.611C421.097 313.962 419.192 311.663 416.777 309.945C413.236 307.575 408.712 307.043 404.4 307.088C400.088 307.132 395.757 307.678 391.477 307.168C387.971 306.751 384.474 305.627 380.979 306.125C376.525 306.76 372.841 309.997 370.646 313.785C368.451 317.572 367.51 321.896 366.596 326.143L364.113 337.696C363.343 341.279 362.569 344.957 363.164 348.571C364.397 356.063 371.274 362.018 371.747 369.59C372.199 367.499 373.182 365.549 374.609 363.914C376.036 362.28 377.861 361.012 379.922 360.225C380.438 359.982 381.025 359.913 381.587 360.03C382.27 360.241 382.67 360.898 383.101 361.451C384.231 362.898 387.78 365.093 389.791 364.067C391.591 363.148 390.248 360.265 392.511 358.786Z" fill="#2F2E41"/>
<path d="M324.357 477.468C324.357 477.468 319.74 505.426 338.866 502.885C338.866 502.885 348.759 501.614 350.078 502.885C351.397 504.156 400.202 495.895 406.797 488.905C406.797 488.905 414.712 486.364 418.669 490.176C422.626 493.989 462.198 497.801 450.326 486.364C438.455 474.926 419.988 472.384 419.988 472.384L394.926 473.655C394.926 473.655 381.735 477.468 373.821 473.655C365.907 469.843 343.483 471.113 343.483 471.113L324.357 477.468Z" fill="#A0616A"/>
<path d="M351.397 389.145C351.397 389.145 321.719 392.322 321.719 433.624V486.365C321.719 486.365 338.207 479.375 341.505 480.01C344.802 480.646 357.993 471.75 357.993 471.75C357.993 471.75 373.162 437.437 371.843 427.905C370.524 418.374 371.183 390.415 351.397 389.145Z" fill="#575A89"/>
<path d="M398.884 352.607C412.907 352.607 424.276 346.918 424.276 339.899C424.276 332.88 412.907 327.19 398.884 327.19C384.86 327.19 373.492 332.88 373.492 339.899C373.492 346.918 384.86 352.607 398.884 352.607Z" fill="#2F2E41"/>
<path d="M375.142 363.409C380.059 363.409 384.046 353.879 384.046 342.123C384.046 330.366 380.059 320.836 375.142 320.836C370.225 320.836 366.238 330.366 366.238 342.123C366.238 353.879 370.225 363.409 375.142 363.409Z" fill="#2F2E41"/>
</g>
<defs>
<filter id="filter0_d" x="37.041" y="120" width="1364.96" height="792.499" filterUnits="userSpaceOnUse" color-interpolation-filters="sRGB">
<feFlood flood-opacity="0" result="BackgroundImageFix"/>
<feColorMatrix in="SourceAlpha" type="matrix" values="0 0 0 0 0 0 0 0 0 0 0 0 0 0 0 0 0 0 127 0"/>
<feOffset dy="4"/>
<feGaussianBlur stdDeviation="2"/>
<feColorMatrix type="matrix" values="0 0 0 0 0 0 0 0 0 0 0 0 0 0 0 0 0 0 0.25 0"/>
<feBlend mode="normal" in2="BackgroundImageFix" result="effect1_dropShadow"/>
<feBlend mode="normal" in="SourceGraphic" in2="effect1_dropShadow" result="shape"/>
</filter>
<filter id="filter1_dd" x="427" y="156" width="584" height="654" filterUnits="userSpaceOnUse" color-interpolation-filters="sRGB">
<feFlood flood-opacity="0" result="BackgroundImageFix"/>
<feColorMatrix in="SourceAlpha" type="matrix" values="0 0 0 0 0 0 0 0 0 0 0 0 0 0 0 0 0 0 127 0"/>
<feOffset dx="-4" dy="4"/>
<feGaussianBlur stdDeviation="5"/>
<feColorMatrix type="matrix" values="0 0 0 0 0 0 0 0 0 0 0 0 0 0 0 0 0 0 0.3 0"/>
<feBlend mode="normal" in2="BackgroundImageFix" result="effect1_dropShadow"/>
<feColorMatrix in="SourceAlpha" type="matrix" values="0 0 0 0 0 0 0 0 0 0 0 0 0 0 0 0 0 0 127 0"/>
<feOffset dx="4"/>
<feGaussianBlur stdDeviation="5"/>
<feColorMatrix type="matrix" values="0 0 0 0 0 0 0 0 0 0 0 0 0 0 0 0 0 0 0.3 0"/>
<feBlend mode="normal" in2="effect1_dropShadow" result="effect2_dropShadow"/>
<feBlend mode="normal" in="SourceGraphic" in2="effect2_dropShadow" result="shape"/>
</filter>
<filter id="filter2_d" x="487.5" y="292" width="456" height="68" filterUnits="userSpaceOnUse" color-interpolation-filters="sRGB">
<feFlood flood-opacity="0" result="BackgroundImageFix"/>
<feColorMatrix in="SourceAlpha" type="matrix" values="0 0 0 0 0 0 0 0 0 0 0 0 0 0 0 0 0 0 127 0"/>
<feOffset dy="4"/>
<feGaussianBlur stdDeviation="2"/>
<feColorMatrix type="matrix" values="0 0 0 0 0 0 0 0 0 0 0 0 0 0 0 0 0 0 0.25 0"/>
<feBlend mode="normal" in2="BackgroundImageFix" result="effect1_dropShadow"/>
<feBlend mode="normal" in="SourceGraphic" in2="effect1_dropShadow" result="shape"/>
</filter>
<filter id="filter3_d" x="487.5" y="383" width="456" height="68" filterUnits="userSpaceOnUse" color-interpolation-filters="sRGB">
<feFlood flood-opacity="0" result="BackgroundImageFix"/>
<feColorMatrix in="SourceAlpha" type="matrix" values="0 0 0 0 0 0 0 0 0 0 0 0 0 0 0 0 0 0 127 0"/>
<feOffset dy="4"/>
<feGaussianBlur stdDeviation="2"/>
<feColorMatrix type="matrix" values="0 0 0 0 0 0 0 0 0 0 0 0 0 0 0 0 0 0 0.25 0"/>
<feBlend mode="normal" in2="BackgroundImageFix" result="effect1_dropShadow"/>
<feBlend mode="normal" in="SourceGraphic" in2="effect1_dropShadow" result="shape"/>
</filter>
<clipPath id="clip0">
<rect width="1440" height="1024" fill="white"/>
</clipPath>
<clipPath id="clip1">
<rect x="536.5" y="300" width="40" height="40" fill="white"/>
</clipPath>
</defs>
</svg>
