<svg width="800" height="478" viewBox="0 0 808 478" fill="none" xmlns="http://www.w3.org/2000/svg">
<g filter="url(#filter0_d)">
<path d="M764.81 463.788C763.421 466.574 761.841 467.736 759.059 468.742C758.373 468.99 757.645 469.095 756.915 469.094L52.6367 468.198C47.5015 467.898 45.6961 466.166 44.3168 461.277C44.1581 460.715 44.0884 460.129 44.0884 459.545V88.9198C44.0884 85.0538 40.9544 81.9198 37.0884 81.9198H26.018C25.104 81.9198 24.1872 81.7613 23.3744 81.3433C20.6752 79.9548 19.7438 78.2735 19.1508 75.1159C19.0673 74.6715 19.0369 74.216 19.0628 73.7645C19.2658 70.2295 20.2105 68.2636 23.006 66.2424C24.0369 65.4971 25.3059 65.1771 26.5779 65.1771H58.9803C60.0431 65.1771 61.0979 64.9414 62.041 64.4514C67.6564 61.534 70.2118 58.8393 70.8681 51.6526C70.9 51.3039 70.9003 50.9457 70.8696 50.5968C70.1947 42.9106 67.5298 40.3057 62.0339 37.4885C61.0946 37.007 60.0471 36.7742 58.9916 36.7742H11.793C11.3152 36.7742 10.8352 36.7287 10.3706 36.6172C6.03943 35.5783 4.79092 33.8163 4.12573 30.0734C4.03466 29.5609 4.0161 29.0353 4.06809 28.5174C4.51838 24.0322 5.85362 21.9693 10.0262 20.3975C10.7136 20.1385 11.4502 20.0315 12.1847 20.0315H38.562C42.428 20.0315 45.5623 16.8975 45.5623 13.0315V7.1366C45.5623 6.56668 45.6256 5.99569 45.7853 5.4486C46.7058 2.29467 48.0802 0.880249 52.055 0.105729C52.4399 0.0307307 52.8338 0 53.2259 0H757.359C757.991 0 758.623 0.0794053 759.225 0.27065C762.918 1.44361 764.345 2.9826 765.216 6.44858C765.337 6.92927 765.385 7.42539 765.385 7.92103V376.887C765.385 380.753 768.519 383.887 772.385 383.887H780.928C781.761 383.887 782.593 384.026 783.36 384.35C787.377 386.044 788.724 387.913 788.945 392.047C788.964 392.386 788.949 392.727 788.904 393.064C788.273 397.737 786.67 399.467 783.753 401.229C782.741 401.841 781.567 402.124 780.385 402.124H748.243C747.686 402.124 747.129 402.188 746.591 402.331C739.205 404.284 736.948 407.234 736.261 414.599C736.219 415.05 736.228 415.507 736.288 415.957C737.233 423.079 739.532 425.985 746.548 428.177C747.113 428.354 747.704 428.443 748.297 428.46L798.241 429.867C799.687 429.908 801.158 430.328 802.106 431.421C803.604 433.149 803.773 434.927 804 437.703C803.744 442.384 802.374 444.29 798.842 446.056C797.979 446.487 797.018 446.672 796.054 446.672H772.385C768.519 446.672 765.385 449.806 765.385 453.672V461.125C765.385 462.044 765.221 462.965 764.81 463.788Z" fill="#F8F8F8"/>
</g>
<path d="M562.094 210.585C562.094 210.585 543.187 196.557 541.752 201.699C540.317 206.842 555.625 218.529 555.625 218.529L562.094 210.585Z" fill="#FFB9B9"/>
<path opacity="0.1" d="M562.094 210.585C562.094 210.585 543.187 196.557 541.752 201.699C540.317 206.842 555.625 218.529 555.625 218.529L562.094 210.585Z" fill="black"/>
<path opacity="0.1" d="M624.511 166.172C624.511 166.172 602.027 205.44 601.549 211.049C601.07 216.659 601.07 217.127 599.157 216.659C597.243 216.192 570.933 213.387 568.541 214.322C566.149 215.257 561.365 208.712 561.365 208.712C561.365 208.712 552.276 217.594 554.189 219.464C556.103 221.334 561.843 222.269 562.8 224.606C563.757 226.944 565.192 229.281 569.497 228.814C573.803 228.346 602.984 236.293 606.811 234.891C610.638 233.488 611.594 231.151 613.508 231.151C615.421 231.151 619.248 229.281 619.248 228.814C619.248 228.346 632.643 203.57 632.643 203.57C632.643 203.57 648.429 169.912 624.511 166.172Z" fill="black"/>
<path d="M556.788 201.079C556.788 201.079 537.881 187.051 536.446 192.194C535.011 197.336 550.319 209.023 550.319 209.023L556.788 201.079Z" fill="#FFB9B9"/>
<path opacity="0.1" d="M556.788 201.079C556.788 201.079 537.881 187.051 536.446 192.194C535.011 197.336 550.319 209.023 550.319 209.023L556.788 201.079Z" fill="black"/>
<path opacity="0.1" d="M619.205 156.665C619.205 156.665 596.721 195.933 596.243 201.543C595.765 207.152 595.765 207.62 593.851 207.152C591.938 206.685 565.627 203.88 563.235 204.815C560.843 205.75 556.059 199.205 556.059 199.205C556.059 199.205 546.97 208.087 548.884 209.957C550.797 211.827 556.538 212.762 557.495 215.099C558.451 217.437 559.886 219.774 564.192 219.307C568.497 218.839 597.678 226.786 601.505 225.384C605.332 223.981 606.289 221.644 608.202 221.644C610.116 221.644 613.943 219.774 613.943 219.307C613.943 218.839 627.337 194.063 627.337 194.063C627.337 194.063 643.124 160.405 619.205 156.665Z" fill="black"/>
<path d="M218.97 231.159C218.97 231.159 236.466 232.299 239.577 230.019C242.687 227.739 255.907 233.059 257.074 236.098C258.24 239.138 238.411 239.518 235.3 239.518C232.19 239.518 217.415 244.078 217.415 244.078L218.97 231.159Z" fill="#A0616A"/>
<g filter="url(#filter1_dd)">
<rect x="239.814" y="27.5068" width="327.782" height="376.711" rx="10" fill="#F1F0F0"/>
</g>
<g filter="url(#filter2_d)">
<rect x="269.586" y="102.85" width="264.112" height="35.8773" rx="12" fill="white"/>
</g>
<g clip-path="url(#clip0)">
<path d="M307.906 119.592C304.655 119.592 302.01 116.909 302.01 113.612C302.01 110.315 304.655 107.633 307.906 107.633C311.156 107.633 313.801 110.315 313.801 113.612C313.801 116.909 311.156 119.592 307.906 119.592V119.592ZM307.906 109.128C305.467 109.128 303.484 111.139 303.484 113.612C303.484 116.085 305.467 118.097 307.906 118.097C310.344 118.097 312.327 116.085 312.327 113.612C312.327 111.139 310.344 109.128 307.906 109.128V109.128Z" fill="black"/>
<path d="M317.485 131.551H298.325C297.918 131.551 297.588 131.217 297.588 130.804V125.659C297.588 124.886 297.978 124.161 298.604 123.764C304.138 120.262 311.678 120.263 317.206 123.763C317.833 124.161 318.222 124.886 318.222 125.658V130.804C318.222 131.217 317.893 131.551 317.485 131.551V131.551ZM299.062 130.056H316.748V125.659C316.748 125.398 316.625 125.157 316.425 125.031C311.365 121.827 304.449 121.825 299.385 125.032C299.186 125.157 299.062 125.398 299.062 125.659L299.062 130.056Z" fill="black"/>
</g>
<g filter="url(#filter3_d)">
<rect x="269.586" y="157.263" width="264.112" height="35.8773" rx="12" fill="white"/>
</g>
<path d="M306.745 179.794L306.435 182.621C306.419 182.762 306.464 182.903 306.557 183.008C306.65 183.114 306.783 183.174 306.923 183.174H308.888C309.028 183.174 309.161 183.114 309.254 183.008C309.347 182.903 309.392 182.762 309.377 182.621L309.067 179.794C309.57 179.423 309.871 178.836 309.871 178.191C309.871 177.092 308.989 176.198 307.906 176.198C306.822 176.198 305.94 177.092 305.94 178.191C305.94 178.836 306.241 179.423 306.745 179.794ZM307.906 177.195C308.447 177.195 308.888 177.642 308.888 178.191C308.888 178.573 308.674 178.916 308.33 179.085C308.142 179.177 308.032 179.379 308.055 179.589L308.339 182.178H307.472L307.756 179.589C307.779 179.379 307.669 179.177 307.482 179.085C307.137 178.916 306.923 178.573 306.923 178.191C306.923 177.642 307.364 177.195 307.906 177.195Z" fill="black"/>
<path d="M316.257 172.212H314.783V170.219C314.783 166.373 311.698 163.243 307.906 163.243C304.113 163.243 301.028 166.373 301.028 170.219V172.212H299.554C299.282 172.212 299.062 172.435 299.062 172.711V185.168C299.062 186.267 299.944 187.161 301.028 187.161H314.783C315.867 187.161 316.749 186.267 316.749 185.168V172.711C316.749 172.435 316.529 172.212 316.257 172.212ZM302.01 170.219C302.01 166.922 304.655 164.24 307.906 164.24C311.156 164.24 313.801 166.922 313.801 170.219V172.212H312.818V170.219C312.818 167.472 310.614 165.236 307.906 165.236C305.197 165.236 302.993 167.472 302.993 170.219V172.212H302.01V170.219ZM311.836 170.219V172.212H303.975V170.219C303.975 168.021 305.738 166.233 307.906 166.233C310.073 166.233 311.836 168.021 311.836 170.219ZM315.766 185.168C315.766 185.718 315.325 186.165 314.783 186.165H301.028C300.486 186.165 300.045 185.718 300.045 185.168V173.209H315.766V185.168V185.168Z" fill="black"/>
<path d="M624.51 166.173C624.51 166.173 602.027 205.441 601.548 211.05C601.07 216.66 601.07 217.128 599.156 216.66C597.243 216.193 570.932 213.388 568.54 214.323C566.148 215.258 561.365 208.713 561.365 208.713C561.365 208.713 552.275 217.595 554.189 219.465C556.102 221.335 561.843 222.27 562.8 224.607C563.756 226.945 565.192 229.282 569.497 228.815C573.802 228.347 602.983 236.294 606.81 234.892C610.637 233.489 611.594 231.152 613.508 231.152C615.421 231.152 619.248 229.282 619.248 228.815C619.248 228.347 632.642 203.571 632.642 203.571C632.642 203.571 648.429 169.913 624.51 166.173Z" fill="#D0CDE1"/>
<path d="M591.89 140.285C591.686 142.767 591.727 145.263 592.012 147.738C592.739 153.109 595.269 158.707 592.879 163.721C592.012 165.54 590.542 167.126 589.742 168.967C588.047 172.866 589.583 177.19 589.353 181.339C589.055 186.699 585.567 191.864 580.26 194.801C589.326 195.076 597.948 190.696 603.653 184.727C609.358 178.757 612.535 171.354 614.916 163.946C616.14 160.467 616.925 156.856 617.253 153.191C617.443 151.086 617.19 148.965 616.511 146.958C615.673 144.998 614.569 143.157 613.23 141.484C611.802 139.521 610.334 137.52 608.227 136.059C605.631 134.261 600.625 132.455 597.182 132.717C592.958 133.038 592.068 137.42 591.89 140.285Z" fill="#2F2E41"/>
<path d="M605.854 154.953C605.854 154.953 611.116 173.185 606.81 178.327C602.505 183.469 632.642 175.99 632.642 175.99C632.642 175.99 617.813 161.498 624.989 152.148L605.854 154.953Z" fill="#FFB9B9"/>
<path opacity="0.1" d="M605.854 154.953C605.854 154.953 611.116 173.185 606.81 178.327C602.505 183.469 632.642 175.99 632.642 175.99C632.642 175.99 617.813 161.498 624.989 152.148L605.854 154.953Z" fill="black"/>
<path d="M588.632 398.04V411.597L595.808 420.011L602.027 417.206L600.113 397.572L588.632 398.04Z" fill="#FFB9B9"/>
<path d="M591.503 410.661C591.503 410.661 589.589 404.116 586.24 408.791C582.892 413.466 579.543 423.75 577.63 424.218C575.716 424.685 562.322 439.177 575.716 439.177C589.111 439.177 593.416 433.1 593.416 433.1C593.416 433.1 606.811 427.957 606.811 427.022C606.811 426.087 604.897 408.791 603.94 408.791C602.984 408.791 602.505 412.063 600.113 412.063C597.721 412.063 591.503 410.661 591.503 410.661Z" fill="#2F2E41"/>
<path d="M620.683 400.377L620.205 412.999L631.686 417.674V399.442L620.683 400.377Z" fill="#FFB9B9"/>
<path d="M633.121 412.998C633.121 412.998 626.902 406.454 623.553 407.856C621.897 408.508 620.297 409.289 618.77 410.194C618.77 410.194 616.856 416.271 615.899 421.413C614.943 426.555 614.464 428.893 613.508 430.762C612.551 432.632 611.594 439.645 621.162 440.579C630.729 441.514 633.599 436.372 633.599 436.372L635.991 424.218C635.991 424.218 635.035 412.998 633.121 412.998Z" fill="#2F2E41"/>
<path d="M594.851 265.744C594.851 265.744 580.978 296.13 582.891 323.711C582.891 323.711 578.107 334.463 580.978 351.292C583.848 368.121 587.675 401.78 587.675 401.78C587.675 401.78 600.591 403.182 601.548 400.845C601.548 400.845 602.505 377.471 603.461 376.536C604.418 375.601 602.983 354.097 601.548 349.89C600.113 345.683 614.942 304.077 614.942 304.077L611.115 252.188L594.851 265.744Z" fill="#2F2E41"/>
<path opacity="0.1" d="M594.851 265.744C594.851 265.744 580.978 296.13 582.891 323.711C582.891 323.711 578.107 334.463 580.978 351.292C583.848 368.121 587.675 401.78 587.675 401.78C587.675 401.78 600.591 403.182 601.548 400.845C601.548 400.845 602.505 377.471 603.461 376.536C604.418 375.601 602.983 354.097 601.548 349.89C600.113 345.683 614.942 304.077 614.942 304.077L611.115 252.188L594.851 265.744Z" fill="black"/>
<path d="M591.023 263.874L600.113 283.04C600.113 283.04 604.418 326.516 606.81 332.125C606.81 332.125 607.767 348.019 612.072 353.162C616.377 358.304 619.726 403.649 619.726 403.649C619.726 403.649 631.685 406.921 632.642 403.649C633.599 400.377 636.469 377.938 636.469 377.938C636.469 377.938 637.426 358.771 632.164 346.15C626.902 333.528 638.383 288.183 638.383 288.183C638.383 288.183 650.342 266.211 633.12 248.447L591.023 263.874Z" fill="#2F2E41"/>
<path d="M616.378 160.562C627.21 160.562 635.991 151.981 635.991 141.396C635.991 130.811 627.21 122.229 616.378 122.229C605.546 122.229 596.765 130.811 596.765 141.396C596.765 151.981 605.546 160.562 616.378 160.562Z" fill="#FFB9B9"/>
<path d="M634.556 170.379C634.556 170.379 613.986 170.379 611.116 172.716C610.406 173.376 609.464 173.744 608.485 173.744C607.505 173.744 606.563 173.376 605.853 172.716C605.853 172.716 598.678 173.184 596.764 178.793C594.851 184.403 589.11 191.883 589.11 191.883C589.11 191.883 580.5 197.96 585.283 213.854C590.067 229.748 586.24 255.459 586.24 255.459C586.24 255.459 582.413 261.069 586.24 263.406C590.067 265.744 591.502 266.679 591.024 268.549C590.545 270.419 634.556 253.122 634.556 249.85C634.556 246.577 633.599 243.772 634.556 242.37C635.513 240.968 636.469 238.63 635.513 236.293C634.556 233.956 636.47 233.488 635.991 231.151C635.513 228.813 638.383 211.517 640.297 204.037C642.21 196.557 641.732 170.846 634.556 170.379Z" fill="#D0CDE1"/>
<path d="M562.093 216.196C562.093 216.196 543.186 202.168 541.751 207.31C540.316 212.452 555.624 224.139 555.624 224.139L562.093 216.196Z" fill="#FFB9B9"/>
<path d="M624.51 172.717C624.51 172.717 602.027 211.985 601.548 217.594C601.07 223.204 601.07 223.672 599.156 223.204C597.243 222.737 570.932 219.932 568.54 220.867C566.148 221.802 561.365 215.257 561.365 215.257C561.365 215.257 552.275 224.139 554.189 226.009C556.102 227.879 561.843 228.814 562.8 231.151C563.756 233.489 565.192 235.826 569.497 235.358C573.802 234.891 602.983 242.838 606.81 241.436C610.637 240.033 611.594 237.696 613.508 237.696C615.421 237.696 619.248 235.826 619.248 235.358C619.248 234.891 632.642 210.115 632.642 210.115C632.642 210.115 648.429 176.457 624.51 172.717Z" fill="#D0CDE1"/>
<path d="M606.665 153.641C606.393 151.743 605.399 150.021 604.888 148.17C604.489 146.689 604.4 145.144 604.627 143.629C604.855 142.113 605.394 140.658 606.211 139.351C609.025 134.911 614.548 132.944 618.4 129.324C618.48 131.168 619.789 132.744 621.236 133.93C622.683 135.116 624.343 136.078 625.569 137.482C626.746 138.964 627.604 140.663 628.092 142.477C628.847 144.579 629.185 146.803 629.089 149.028C629.034 150.141 628.748 151.23 628.248 152.231C627.749 153.232 627.046 154.123 626.184 154.851C624.749 155.959 622.744 156.592 622.051 158.245C621.778 159.072 621.7 159.947 621.821 160.808C622.149 165.951 622.456 171.186 621.217 176.194C619.977 181.203 616.941 186.042 612.182 188.263C616.093 188.534 620.086 188.798 623.88 187.834C627.674 186.869 631.303 184.44 632.611 180.828C633.256 179.047 633.317 177.065 634.234 175.401C636.555 171.189 642.963 170.997 646.111 167.334C647.37 165.868 647.98 163.979 648.431 162.116C651.089 151.156 649.222 139.517 645.176 128.97C643.781 125.334 642.045 121.674 639.053 119.119C636.508 116.944 633.257 115.746 630.042 114.723C625.351 113.23 620.518 112.007 615.587 111.849C613.444 111.726 611.297 111.971 609.241 112.573C607.212 113.29 605.323 114.341 603.658 115.681C595.933 121.555 590.673 130.943 591.371 140.484C591.793 146.256 594.296 151.72 597.512 156.58C598.637 158.28 601.294 161.904 603.764 160.836C606.003 159.866 606.959 155.691 606.665 153.641Z" fill="#2F2E41"/>
<path d="M215.665 143.959C226.402 143.959 235.106 137.324 235.106 129.141C235.106 120.957 226.402 114.322 215.665 114.322C204.928 114.322 196.224 120.957 196.224 129.141C196.224 137.324 204.928 143.959 215.665 143.959Z" fill="#2F2E41"/>
<path d="M182.941 408.151C182.941 408.151 174.786 428.245 179.041 430.67C183.295 433.095 227.966 431.363 227.966 431.363C227.966 431.363 235.411 426.859 226.902 423.741C226.902 423.741 219.812 423.395 215.203 420.623C210.594 417.851 205.276 412.655 205.276 412.655C205.276 412.655 204.921 405.033 202.085 406.765C201.237 407.311 200.514 408.025 199.965 408.86C199.415 409.696 199.051 410.634 198.894 411.615L182.941 408.151Z" fill="#2F2E41"/>
<path opacity="0.1" d="M182.941 408.151C182.941 408.151 174.786 428.245 179.041 430.67C183.295 433.095 227.966 431.363 227.966 431.363C227.966 431.363 235.411 426.859 226.902 423.741C226.902 423.741 219.812 423.395 215.203 420.623C210.594 417.851 205.276 412.655 205.276 412.655C205.276 412.655 204.921 405.033 202.085 406.765C201.237 407.311 200.514 408.025 199.965 408.86C199.415 409.696 199.051 410.634 198.894 411.615L182.941 408.151Z" fill="black"/>
<path d="M169.882 414.747C169.882 414.747 160.94 436.784 165.605 439.444C170.271 442.104 219.262 440.204 219.262 440.204C219.262 440.204 227.427 435.265 218.095 431.845C218.095 431.845 210.319 431.465 205.265 428.425C200.21 425.386 194.378 419.686 194.378 419.686C194.378 419.686 193.989 411.327 190.878 413.227C189.948 413.826 189.156 414.609 188.553 415.525C187.95 416.441 187.551 417.47 187.379 418.547L169.882 414.747Z" fill="#2F2E41"/>
<path d="M215.763 274.924L210.319 322.798C210.319 322.798 208.375 345.595 202.543 350.535C202.543 350.535 202.543 357.754 200.599 360.034L197.877 390.05C197.877 390.05 201.765 401.069 201.377 402.969C200.988 404.868 202.932 410.948 202.543 411.708C202.154 412.468 183.88 411.708 183.88 411.708L187.768 350.535L199.821 265.425L215.763 274.924Z" fill="#2F2E41"/>
<path opacity="0.1" d="M215.763 274.924L210.319 322.798C210.319 322.798 208.375 345.595 202.543 350.535C202.543 350.535 202.543 357.754 200.599 360.034L197.877 390.05C197.877 390.05 201.765 401.069 201.377 402.969C200.988 404.868 202.932 410.948 202.543 411.708C202.154 412.468 183.88 411.708 183.88 411.708L187.768 350.535L199.821 265.425L215.763 274.924Z" fill="black"/>
<path d="M206.043 273.403C206.043 273.403 201.766 312.539 199.822 320.898C198.599 326.402 197.819 331.992 197.489 337.616C197.489 337.616 197.1 349.774 193.601 353.194C192.577 354.184 191.772 355.37 191.237 356.678C190.702 357.985 190.448 359.386 190.49 360.793C190.49 360.793 186.991 399.168 188.935 403.728C190.879 408.287 192.823 412.087 190.879 415.127C188.935 418.166 167.55 418.166 167.55 415.886C167.55 413.607 167.55 411.707 166.384 410.567C165.217 409.427 166.384 402.208 166.384 402.208C166.384 402.208 161.718 368.392 165.995 358.513C170.272 348.634 172.216 321.658 172.216 321.658C172.216 321.658 169.105 290.881 165.217 285.942C161.329 281.002 165.995 263.524 165.995 263.524L206.043 273.403Z" fill="#2F2E41"/>
<path d="M195.096 151.871C195.548 152.878 196.63 153.438 197.615 153.968C203.323 157.041 208.102 161.497 212.809 165.902C211.635 162.011 211.885 157.843 213.517 154.113C214.079 152.841 214.816 151.474 214.414 150.145C214.119 149.168 213.267 148.464 212.443 147.84C210.522 146.388 208.514 145.05 206.43 143.831C204.974 142.98 201.981 140.714 200.31 140.961C200.222 143.167 200.177 145.139 199.188 147.201C198.954 147.69 195.268 152.256 195.096 151.871Z" fill="#A0616A"/>
<path d="M214.985 156.757C223.79 156.757 230.927 149.782 230.927 141.179C230.927 132.575 223.79 125.601 214.985 125.601C206.181 125.601 199.044 132.575 199.044 141.179C199.044 149.782 206.181 156.757 214.985 156.757Z" fill="#A0616A"/>
<path d="M215.763 178.035C215.763 178.035 218.485 164.737 210.708 160.177C202.932 155.618 193.989 150.298 193.989 150.298C193.989 150.298 191.268 149.918 190.101 155.618C190.101 155.618 167.939 159.797 165.606 180.315C163.273 200.832 167.161 230.849 167.161 230.849C167.161 230.849 163.662 257.066 159.385 271.124C159.385 271.124 155.886 274.164 171.438 269.604C186.991 265.045 214.208 282.523 214.208 282.523C214.208 282.523 216.929 279.863 216.929 277.963C216.929 276.063 220.04 265.045 220.04 265.045C220.04 265.045 222.762 218.31 223.928 212.991C225.095 207.671 219.262 178.795 215.763 178.035Z" fill="#575A89"/>
<path d="M211.228 142.784C212.186 142.266 213.26 141.986 214.355 141.971C215.451 141.955 216.521 141.643 217.448 141.07C218.954 139.94 219.064 137.757 220.166 136.246C221.76 134.059 224.942 133.796 227.688 133.905C229.368 133.972 231.177 134.07 232.591 133.182C234.044 132.271 234.702 130.554 235.191 128.936C235.77 127.024 236.145 124.685 234.71 123.267C233.714 122.282 232.141 122.087 231.034 121.222C229.887 120.325 229.414 118.866 228.791 117.566C228.081 115.982 226.958 114.607 225.534 113.58C223.447 112.162 220.78 111.844 218.238 111.871C215.695 111.898 213.142 112.224 210.619 111.919C208.552 111.67 206.491 110.998 204.43 111.295C201.804 111.675 199.632 113.611 198.338 115.876C197.045 118.14 196.489 120.725 195.951 123.265L194.487 130.173C194.033 132.316 193.577 134.515 193.928 136.676C194.654 141.156 198.708 144.717 198.988 149.244C199.254 147.994 199.834 146.828 200.675 145.851C201.516 144.874 202.592 144.116 203.807 143.645C204.111 143.499 204.457 143.458 204.789 143.528C205.191 143.654 205.427 144.047 205.681 144.378C206.347 145.243 208.439 146.556 209.625 145.942C210.686 145.393 209.894 143.669 211.228 142.784Z" fill="#2F2E41"/>
<path d="M171.049 213.75C171.049 213.75 168.328 230.468 179.603 228.948C179.603 228.948 185.435 228.189 186.213 228.948C186.991 229.708 215.763 224.769 219.651 220.589C219.651 220.589 224.317 219.07 226.65 221.349C228.983 223.629 252.311 225.909 245.313 219.07C238.314 212.23 227.427 210.711 227.427 210.711L212.652 211.471C212.652 211.471 204.876 213.75 200.21 211.471C195.545 209.191 182.325 209.951 182.325 209.951L171.049 213.75Z" fill="#A0616A"/>
<path d="M186.991 160.937C186.991 160.937 169.494 162.836 169.494 187.533V219.07C169.494 219.07 179.215 214.89 181.159 215.27C183.103 215.65 190.879 210.331 190.879 210.331C190.879 210.331 199.822 189.813 199.044 184.114C198.266 178.414 198.655 161.696 186.991 160.937Z" fill="#575A89"/>
<path d="M214.985 139.089C223.252 139.089 229.954 135.687 229.954 131.49C229.954 127.293 223.252 123.891 214.985 123.891C206.718 123.891 200.016 127.293 200.016 131.49C200.016 135.687 206.718 139.089 214.985 139.089Z" fill="#2F2E41"/>
<path d="M200.988 145.548C203.887 145.548 206.237 139.849 206.237 132.819C206.237 125.79 203.887 120.091 200.988 120.091C198.089 120.091 195.739 125.79 195.739 132.819C195.739 139.849 198.089 145.548 200.988 145.548Z" fill="#2F2E41"/>
<defs>
<filter id="filter0_d" x="0.0395508" y="0" width="807.961" height="477.094" filterUnits="userSpaceOnUse" color-interpolation-filters="sRGB">
<feFlood flood-opacity="0" result="BackgroundImageFix"/>
<feColorMatrix in="SourceAlpha" type="matrix" values="0 0 0 0 0 0 0 0 0 0 0 0 0 0 0 0 0 0 127 0"/>
<feOffset dy="4"/>
<feGaussianBlur stdDeviation="2"/>
<feColorMatrix type="matrix" values="0 0 0 0 0 0 0 0 0 0 0 0 0 0 0 0 0 0 0.25 0"/>
<feBlend mode="normal" in2="BackgroundImageFix" result="effect1_dropShadow"/>
<feBlend mode="normal" in="SourceGraphic" in2="effect1_dropShadow" result="shape"/>
</filter>
<filter id="filter1_dd" x="225.814" y="17.5068" width="355.782" height="400.711" filterUnits="userSpaceOnUse" color-interpolation-filters="sRGB">
<feFlood flood-opacity="0" result="BackgroundImageFix"/>
<feColorMatrix in="SourceAlpha" type="matrix" values="0 0 0 0 0 0 0 0 0 0 0 0 0 0 0 0 0 0 127 0"/>
<feOffset dx="-4" dy="4"/>
<feGaussianBlur stdDeviation="5"/>
<feColorMatrix type="matrix" values="0 0 0 0 0 0 0 0 0 0 0 0 0 0 0 0 0 0 0.3 0"/>
<feBlend mode="normal" in2="BackgroundImageFix" result="effect1_dropShadow"/>
<feColorMatrix in="SourceAlpha" type="matrix" values="0 0 0 0 0 0 0 0 0 0 0 0 0 0 0 0 0 0 127 0"/>
<feOffset dx="4"/>
<feGaussianBlur stdDeviation="5"/>
<feColorMatrix type="matrix" values="0 0 0 0 0 0 0 0 0 0 0 0 0 0 0 0 0 0 0.3 0"/>
<feBlend mode="normal" in2="effect1_dropShadow" result="effect2_dropShadow"/>
<feBlend mode="normal" in="SourceGraphic" in2="effect2_dropShadow" result="shape"/>
</filter>
<filter id="filter2_d" x="265.586" y="102.85" width="272.112" height="43.8773" filterUnits="userSpaceOnUse" color-interpolation-filters="sRGB">
<feFlood flood-opacity="0" result="BackgroundImageFix"/>
<feColorMatrix in="SourceAlpha" type="matrix" values="0 0 0 0 0 0 0 0 0 0 0 0 0 0 0 0 0 0 127 0"/>
<feOffset dy="4"/>
<feGaussianBlur stdDeviation="2"/>
<feColorMatrix type="matrix" values="0 0 0 0 0 0 0 0 0 0 0 0 0 0 0 0 0 0 0.25 0"/>
<feBlend mode="normal" in2="BackgroundImageFix" result="effect1_dropShadow"/>
<feBlend mode="normal" in="SourceGraphic" in2="effect1_dropShadow" result="shape"/>
</filter>
<filter id="filter3_d" x="265.586" y="157.263" width="272.112" height="43.8773" filterUnits="userSpaceOnUse" color-interpolation-filters="sRGB">
<feFlood flood-opacity="0" result="BackgroundImageFix"/>
<feColorMatrix in="SourceAlpha" type="matrix" values="0 0 0 0 0 0 0 0 0 0 0 0 0 0 0 0 0 0 127 0"/>
<feOffset dy="4"/>
<feGaussianBlur stdDeviation="2"/>
<feColorMatrix type="matrix" values="0 0 0 0 0 0 0 0 0 0 0 0 0 0 0 0 0 0 0.25 0"/>
<feBlend mode="normal" in2="BackgroundImageFix" result="effect1_dropShadow"/>
<feBlend mode="normal" in="SourceGraphic" in2="effect1_dropShadow" result="shape"/>
</filter>
<clipPath id="clip0">
<rect x="296.115" y="107.633" width="23.5814" height="23.9182" fill="white"/>
</clipPath>
</defs>
</svg>
