<svg width="1267" height="631" viewBox="0 0 1267 631" fill="none" xmlns="http://www.w3.org/2000/svg">
<g clip-path="url(#clip0)">
<rect width="1267" height="631" fill="#FAF5E4"/>
<path d="M413.474 1123.2L956.221 -20.8152L443.675 -251.516L62.0379 -237.701L-266 986.553L413.474 1123.2Z" fill="#F8B400" stroke="#BD977C"/>
<g filter="url(#filter0_d)">
<path d="M1147.26 592.48C1145.18 596.086 1142.8 597.474 1138.44 598.745C1137.84 598.919 1137.21 599 1136.59 598.999L133.247 597.916C125.917 597.552 123.352 595.449 121.386 589.505C121.172 588.857 121.076 588.173 121.076 587.49V138.017C121.076 134.151 117.942 131.017 114.076 131.017H94.5651C93.7788 131.017 92.993 130.893 92.2623 130.603C87.8837 128.863 86.4569 126.817 85.5652 122.767C85.4509 122.248 85.4088 121.712 85.4441 121.182C85.749 116.61 87.2561 114.207 91.8911 111.578C92.8544 111.032 93.9547 110.78 95.0622 110.78H143.187C144.105 110.78 145.019 110.601 145.863 110.239C154.403 106.575 158.244 103.391 159.205 94.4161C159.249 94.0061 159.25 93.5838 159.207 93.1737C158.218 83.5703 154.208 80.5232 145.856 76.982C145.016 76.626 144.109 76.4493 143.197 76.4493H74.684C74.2769 76.4493 73.8687 76.4151 73.4689 76.3384C66.9662 75.0907 65.1387 72.9615 64.1731 68.3216C64.0484 67.7224 64.0226 67.103 64.0939 66.4951C64.7523 60.8834 66.7513 58.402 73.1584 56.4752C73.7607 56.2941 74.3969 56.2122 75.0259 56.2122H116.173C120.039 56.2122 123.174 53.0782 123.174 49.2122V40.5939C123.174 39.9273 123.262 39.2602 123.477 38.6293C124.813 34.713 126.813 33.0025 132.749 32.0747C133.078 32.0231 133.414 32 133.748 32H1137.14C1137.68 32 1138.22 32.0604 1138.74 32.1936C1144.39 33.6331 1146.51 35.4819 1147.79 39.8283C1147.96 40.3854 1148.02 40.9668 1148.02 41.5475V489.008C1148.02 492.874 1151.16 496.008 1155.02 496.008H1170.87C1171.58 496.008 1172.3 496.114 1172.97 496.344C1179.2 498.456 1181.24 500.696 1181.57 505.887C1181.59 506.286 1181.57 506.688 1181.51 507.082C1180.56 513.107 1178.03 515.091 1173.35 517.38C1172.43 517.831 1171.41 518.052 1170.39 518.052H1123.14C1122.66 518.052 1122.18 518.1 1121.72 518.201C1110.83 520.563 1107.54 524.107 1106.55 533.151C1106.5 533.682 1106.51 534.221 1106.59 534.748C1107.96 543.508 1111.31 546.998 1121.68 549.666C1122.17 549.792 1122.68 549.859 1123.19 549.871L1196.02 551.613C1197.29 551.644 1198.56 551.987 1199.55 552.792C1202.24 554.986 1202.61 557.111 1202.95 560.495C1202.98 560.867 1202.99 561.244 1202.96 561.616C1202.48 567.12 1200.32 569.295 1194.94 571.446C1194.17 571.755 1193.34 571.897 1192.51 571.897H1155.02C1151.16 571.897 1148.02 575.031 1148.02 578.897V589.432C1148.02 590.496 1147.8 591.559 1147.26 592.48Z" fill="#F8F8F8"/>
</g>
</g>
<path d="M891.021 286.555C891.021 286.555 860.153 269.349 857.81 275.656C855.467 281.964 880.459 296.298 880.459 296.298L891.021 286.555Z" fill="#FFB9B9"/>
<path opacity="0.1" d="M891.021 286.555C891.021 286.555 860.153 269.349 857.81 275.656C855.467 281.964 880.459 296.298 880.459 296.298L891.021 286.555Z" fill="black"/>
<path opacity="0.1" d="M992.923 232.079C992.923 232.079 956.216 280.243 955.435 287.124C954.654 294.004 954.654 294.578 951.53 294.004C948.406 293.431 905.451 289.991 901.546 291.137C897.641 292.284 889.831 284.257 889.831 284.257C889.831 284.257 874.992 295.151 878.116 297.445C881.24 299.738 890.612 300.885 892.174 303.752C893.736 306.619 896.079 309.485 903.108 308.912C910.137 308.339 957.778 318.086 964.026 316.366C970.274 314.646 971.836 311.779 974.96 311.779C978.084 311.779 984.332 309.485 984.332 308.912C984.332 308.339 1006.2 277.95 1006.2 277.95C1006.2 277.95 1031.97 236.666 992.923 232.079Z" fill="black"/>
<path d="M882.358 274.895C882.358 274.895 851.49 257.689 849.147 263.996C846.804 270.303 871.796 284.638 871.796 284.638L882.358 274.895Z" fill="#FFB9B9"/>
<path opacity="0.1" d="M882.358 274.895C882.358 274.895 851.49 257.689 849.147 263.996C846.804 270.303 871.796 284.638 871.796 284.638L882.358 274.895Z" fill="black"/>
<path opacity="0.1" d="M984.261 220.419C984.261 220.419 947.554 268.583 946.773 275.464C945.992 282.344 945.992 282.917 942.868 282.344C939.744 281.771 896.789 278.33 892.884 279.477C888.979 280.624 881.169 272.597 881.169 272.597C881.169 272.597 866.33 283.491 869.454 285.784C872.578 288.078 881.95 289.225 883.512 292.092C885.074 294.958 887.417 297.825 894.446 297.252C901.475 296.679 949.116 306.426 955.364 304.706C961.612 302.986 963.174 300.119 966.298 300.119C969.422 300.119 975.67 297.825 975.67 297.252C975.67 296.679 997.538 266.289 997.538 266.289C997.538 266.289 1023.31 225.006 984.261 220.419Z" fill="black"/>
<path d="M330.829 311.79C330.829 311.79 359.395 313.188 364.473 310.391C369.551 307.595 391.134 314.12 393.038 317.848C394.943 321.576 362.569 322.042 357.49 322.042C352.412 322.042 328.29 327.635 328.29 327.635L330.829 311.79Z" fill="#A0616A"/>
<g filter="url(#filter1_dd)">
<rect x="364.861" y="62" width="535.143" height="462.055" rx="10" fill="#F1F0F0"/>
</g>
<path d="M581.753 116.469H595.229V119.535H577.983V91.0977H581.753V116.469ZM597.983 108.773C597.983 106.703 598.387 104.841 599.194 103.188C600.015 101.534 601.147 100.258 602.593 99.3594C604.051 98.4609 605.711 98.0117 607.573 98.0117C610.451 98.0117 612.775 99.0078 614.546 101C616.33 102.992 617.222 105.642 617.222 108.949V109.203C617.222 111.26 616.825 113.109 616.03 114.75C615.249 116.378 614.123 117.647 612.651 118.559C611.193 119.47 609.513 119.926 607.612 119.926C604.748 119.926 602.424 118.93 600.64 116.938C598.869 114.945 597.983 112.309 597.983 109.027V108.773ZM601.616 109.203C601.616 111.547 602.157 113.428 603.237 114.848C604.331 116.267 605.789 116.977 607.612 116.977C609.448 116.977 610.907 116.26 611.987 114.828C613.068 113.383 613.608 111.365 613.608 108.773C613.608 106.456 613.055 104.581 611.948 103.148C610.854 101.703 609.396 100.98 607.573 100.98C605.789 100.98 604.351 101.69 603.257 103.109C602.163 104.529 601.616 106.56 601.616 109.203ZM620.894 108.793C620.894 105.499 621.655 102.882 623.179 100.941C624.702 98.9883 626.72 98.0117 629.233 98.0117C631.812 98.0117 633.823 98.9232 635.269 100.746L635.444 98.4023H638.745V119.027C638.745 121.762 637.931 123.917 636.304 125.492C634.689 127.068 632.515 127.855 629.78 127.855C628.257 127.855 626.766 127.53 625.308 126.879C623.849 126.228 622.736 125.336 621.968 124.203L623.843 122.035C625.392 123.949 627.287 124.906 629.526 124.906C631.284 124.906 632.651 124.411 633.628 123.422C634.618 122.432 635.112 121.039 635.112 119.242V117.426C633.667 119.092 631.694 119.926 629.194 119.926C626.72 119.926 624.715 118.93 623.179 116.938C621.655 114.945 620.894 112.23 620.894 108.793ZM624.526 109.203C624.526 111.586 625.015 113.461 625.991 114.828C626.968 116.182 628.335 116.859 630.093 116.859C632.371 116.859 634.045 115.824 635.112 113.754V104.105C634.006 102.087 632.345 101.078 630.132 101.078C628.374 101.078 627 101.762 626.011 103.129C625.021 104.496 624.526 106.521 624.526 109.203ZM648.14 119.535H644.526V98.4023H648.14V119.535ZM644.233 92.7969C644.233 92.2109 644.409 91.7161 644.761 91.3125C645.125 90.9089 645.659 90.707 646.362 90.707C647.065 90.707 647.599 90.9089 647.964 91.3125C648.328 91.7161 648.511 92.2109 648.511 92.7969C648.511 93.3828 648.328 93.8711 647.964 94.2617C647.599 94.6523 647.065 94.8477 646.362 94.8477C645.659 94.8477 645.125 94.6523 644.761 94.2617C644.409 93.8711 644.233 93.3828 644.233 92.7969ZM657.358 98.4023L657.476 101.059C659.09 99.0273 661.2 98.0117 663.804 98.0117C668.27 98.0117 670.522 100.531 670.562 105.57V119.535H666.948V105.551C666.935 104.027 666.584 102.901 665.894 102.172C665.216 101.443 664.155 101.078 662.71 101.078C661.538 101.078 660.509 101.391 659.624 102.016C658.739 102.641 658.049 103.461 657.554 104.477V119.535H653.94V98.4023H657.358Z" fill="black"/>
<g filter="url(#filter2_d)">
<rect x="413.467" y="154.411" width="431.195" height="44.0052" rx="12" fill="white"/>
</g>
<g clip-path="url(#clip1)">
<path d="M476.028 174.947C470.721 174.947 466.403 171.657 466.403 167.612C466.403 163.568 470.721 160.278 476.028 160.278C481.335 160.278 485.653 163.568 485.653 167.613C485.653 171.657 481.335 174.947 476.028 174.947V174.947ZM476.028 162.112C472.048 162.112 468.81 164.579 468.81 167.613C468.81 170.646 472.048 173.113 476.028 173.113C480.009 173.113 483.247 170.646 483.247 167.613C483.247 164.579 480.009 162.112 476.028 162.112V162.112Z" fill="black"/>
<path d="M491.669 189.615H460.388C459.723 189.615 459.185 189.205 459.185 188.699V182.388C459.185 181.441 459.82 180.551 460.842 180.064C469.877 175.769 482.187 175.77 491.213 180.063C492.236 180.551 492.872 181.441 492.872 182.388V188.699C492.872 189.205 492.334 189.615 491.669 189.615V189.615ZM461.591 187.782H490.465V182.388C490.465 182.068 490.263 181.773 489.938 181.618C481.677 177.688 470.385 177.686 462.117 181.619C461.793 181.773 461.591 182.068 461.591 182.388L461.591 187.782Z" fill="black"/>
</g>
<g filter="url(#filter3_d)">
<rect x="413.467" y="221.152" width="431.195" height="44.0052" rx="12" fill="white"/>
</g>
<path d="M474.133 248.788L473.627 252.255C473.602 252.427 473.675 252.6 473.827 252.73C473.979 252.86 474.197 252.934 474.425 252.934H477.633C477.861 252.934 478.079 252.86 478.23 252.73C478.382 252.601 478.455 252.427 478.43 252.255L477.924 248.788C478.746 248.332 479.237 247.612 479.237 246.822C479.237 245.473 477.798 244.377 476.029 244.377C474.259 244.377 472.82 245.473 472.82 246.822C472.82 247.612 473.311 248.332 474.133 248.788ZM476.029 245.599C476.913 245.599 477.633 246.148 477.633 246.822C477.633 247.29 477.283 247.71 476.721 247.918C476.415 248.031 476.235 248.278 476.273 248.535L476.737 251.711H475.321L475.784 248.535C475.822 248.278 475.643 248.031 475.336 247.918C474.774 247.71 474.425 247.29 474.425 246.822C474.425 246.148 475.144 245.599 476.029 245.599Z" fill="black"/>
<path d="M489.663 239.488H487.257V237.043C487.257 232.325 482.22 228.486 476.028 228.486C469.836 228.486 464.799 232.325 464.799 237.043V239.488H462.393C461.95 239.488 461.591 239.761 461.591 240.099V255.378C461.591 256.727 463.03 257.823 464.799 257.823H487.257C489.027 257.823 490.465 256.727 490.465 255.378V240.099C490.465 239.761 490.107 239.488 489.663 239.488ZM466.403 237.043C466.403 232.999 470.721 229.709 476.028 229.709C481.336 229.709 485.653 232.999 485.653 237.043V239.488H484.049V237.043C484.049 233.673 480.451 230.931 476.028 230.931C471.606 230.931 468.007 233.673 468.007 237.043V239.488H466.403V237.043ZM482.445 237.043V239.488H469.612V237.043C469.612 234.347 472.49 232.153 476.028 232.153C479.566 232.153 482.445 234.347 482.445 237.043ZM488.861 255.378C488.861 256.052 488.142 256.601 487.257 256.601H464.799C463.915 256.601 463.195 256.052 463.195 255.378V240.71H488.861V255.378V255.378Z" fill="black"/>
<path d="M627.733 388.795C627.733 390.885 627.382 392.711 626.679 394.273C625.976 395.826 624.979 397.013 623.69 397.833C622.401 398.653 620.897 399.063 619.179 399.063C617.499 399.063 616.01 398.653 614.711 397.833C613.412 397.003 612.401 395.826 611.679 394.303C610.966 392.77 610.6 390.997 610.58 388.985V387.447C610.58 385.396 610.937 383.585 611.649 382.013C612.362 380.44 613.368 379.239 614.667 378.409C615.976 377.569 617.47 377.149 619.149 377.149C620.858 377.149 622.362 377.564 623.661 378.395C624.97 379.215 625.976 380.411 626.679 381.983C627.382 383.546 627.733 385.367 627.733 387.447V388.795ZM624.936 387.418C624.936 384.889 624.428 382.95 623.412 381.603C622.396 380.245 620.976 379.566 619.149 379.566C617.372 379.566 615.971 380.245 614.945 381.603C613.93 382.95 613.407 384.825 613.378 387.228V388.795C613.378 391.246 613.891 393.175 614.916 394.581C615.951 395.978 617.372 396.676 619.179 396.676C620.995 396.676 622.401 396.017 623.397 394.698C624.394 393.37 624.906 391.471 624.936 389V387.418ZM639.774 390.143H634.765V398.771H631.938V377.442H638.998C641.4 377.442 643.246 377.989 644.535 379.083C645.834 380.177 646.483 381.769 646.483 383.858C646.483 385.187 646.122 386.344 645.399 387.33C644.687 388.316 643.69 389.054 642.411 389.542L647.421 398.595V398.771H644.403L639.774 390.143ZM634.765 387.843H639.086C640.482 387.843 641.591 387.481 642.411 386.759C643.241 386.036 643.656 385.069 643.656 383.858C643.656 382.54 643.261 381.529 642.47 380.826C641.688 380.123 640.556 379.767 639.071 379.757H634.765V387.843Z" fill="black"/>
<line x1="449.079" y1="384.938" x2="599.227" y2="384.938" stroke="black"/>
<line x1="654.089" y1="384.938" x2="804.237" y2="384.938" stroke="black"/>
<path d="M572.286 422.14H582.394V424.439H569.459V403.111H572.286V422.14ZM584.459 416.368C584.459 414.815 584.762 413.419 585.367 412.179C585.982 410.938 586.832 409.981 587.916 409.308C589.01 408.634 590.255 408.297 591.651 408.297C593.81 408.297 595.553 409.044 596.881 410.538C598.219 412.032 598.888 414.02 598.888 416.5V416.69C598.888 418.233 598.59 419.62 597.994 420.851C597.408 422.071 596.563 423.023 595.46 423.707C594.366 424.391 593.106 424.732 591.681 424.732C589.532 424.732 587.789 423.985 586.451 422.491C585.123 420.997 584.459 419.02 584.459 416.559V416.368ZM587.184 416.69C587.184 418.448 587.589 419.859 588.399 420.924C589.22 421.988 590.313 422.521 591.681 422.521C593.058 422.521 594.151 421.983 594.962 420.909C595.772 419.825 596.178 418.312 596.178 416.368C596.178 414.63 595.763 413.224 594.933 412.149C594.112 411.065 593.019 410.523 591.651 410.523C590.313 410.523 589.234 411.056 588.414 412.12C587.594 413.185 587.184 414.708 587.184 416.69ZM601.642 416.383C601.642 413.912 602.213 411.949 603.355 410.494C604.498 409.029 606.012 408.297 607.896 408.297C609.83 408.297 611.339 408.98 612.423 410.348L612.555 408.59H615.03V424.059C615.03 426.109 614.42 427.726 613.199 428.907C611.988 430.089 610.357 430.68 608.307 430.68C607.164 430.68 606.046 430.436 604.952 429.947C603.858 429.459 603.023 428.79 602.447 427.94L603.854 426.314C605.016 427.75 606.437 428.468 608.116 428.468C609.435 428.468 610.46 428.097 611.192 427.354C611.935 426.612 612.306 425.567 612.306 424.22V422.857C611.222 424.107 609.742 424.732 607.867 424.732C606.012 424.732 604.508 423.985 603.355 422.491C602.213 420.997 601.642 418.961 601.642 416.383ZM604.366 416.69C604.366 418.478 604.732 419.884 605.465 420.909C606.197 421.925 607.223 422.433 608.541 422.433C610.25 422.433 611.505 421.656 612.306 420.104V412.867C611.476 411.354 610.23 410.597 608.57 410.597C607.252 410.597 606.222 411.109 605.479 412.135C604.737 413.16 604.366 414.679 604.366 416.69ZM622.076 424.439H619.366V408.59H622.076V424.439ZM619.146 404.386C619.146 403.946 619.278 403.575 619.542 403.272C619.815 402.97 620.216 402.818 620.743 402.818C621.271 402.818 621.671 402.97 621.944 403.272C622.218 403.575 622.354 403.946 622.354 404.386C622.354 404.825 622.218 405.191 621.944 405.484C621.671 405.777 621.271 405.924 620.743 405.924C620.216 405.924 619.815 405.777 619.542 405.484C619.278 405.191 619.146 404.825 619.146 404.386ZM628.99 408.59L629.078 410.582C630.289 409.059 631.871 408.297 633.824 408.297C637.174 408.297 638.863 410.187 638.893 413.966V424.439H636.183V413.951C636.173 412.809 635.909 411.964 635.392 411.417C634.884 410.87 634.088 410.597 633.004 410.597C632.125 410.597 631.354 410.831 630.689 411.3C630.025 411.769 629.508 412.384 629.137 413.146V424.439H626.427V408.59H628.99ZM583.067 455.704L586.114 443.59H588.824L584.21 459.439H582.013L578.16 447.428L574.41 459.439H572.213L567.613 443.59H570.309L573.429 455.455L577.12 443.59H579.303L583.067 455.704ZM594.537 459.439H591.827V443.59H594.537V459.439ZM591.607 439.386C591.607 438.946 591.739 438.575 592.003 438.272C592.276 437.97 592.677 437.818 593.204 437.818C593.731 437.818 594.132 437.97 594.405 438.272C594.679 438.575 594.815 438.946 594.815 439.386C594.815 439.825 594.679 440.191 594.405 440.484C594.132 440.777 593.731 440.924 593.204 440.924C592.677 440.924 592.276 440.777 592.003 440.484C591.739 440.191 591.607 439.825 591.607 439.386ZM602.564 439.752V443.59H605.523V445.685H602.564V455.514C602.564 456.148 602.696 456.627 602.96 456.949C603.224 457.262 603.673 457.418 604.308 457.418C604.62 457.418 605.05 457.359 605.597 457.242V459.439C604.884 459.635 604.19 459.732 603.517 459.732C602.306 459.732 601.393 459.366 600.777 458.634C600.162 457.901 599.854 456.861 599.854 455.514V445.685H596.969V443.59H599.854V439.752H602.564ZM611.412 445.509C612.613 444.034 614.176 443.297 616.1 443.297C619.449 443.297 621.139 445.187 621.168 448.966V459.439H618.458V448.951C618.448 447.809 618.185 446.964 617.667 446.417C617.159 445.87 616.363 445.597 615.279 445.597C614.4 445.597 613.629 445.831 612.965 446.3C612.301 446.769 611.783 447.384 611.412 448.146V459.439H608.702V436.939H611.412V445.509Z" fill="#423B3B"/>
<path d="M992.923 232.079C992.923 232.079 956.216 280.243 955.435 287.124C954.654 294.004 954.654 294.578 951.53 294.004C948.406 293.431 905.451 289.991 901.546 291.137C897.641 292.284 889.831 284.257 889.831 284.257C889.831 284.257 874.992 295.151 878.116 297.445C881.24 299.738 890.612 300.885 892.174 303.752C893.736 306.619 896.079 309.485 903.108 308.912C910.137 308.339 957.778 318.086 964.026 316.366C970.274 314.646 971.836 311.779 974.96 311.779C978.084 311.779 984.332 309.485 984.332 308.912C984.332 308.339 1006.2 277.95 1006.2 277.95C1006.2 277.95 1031.97 236.666 992.923 232.079Z" fill="#D0CDE1"/>
<path d="M939.666 200.327C939.334 203.372 939.401 206.433 939.866 209.469C941.053 216.056 945.183 222.923 941.282 229.072C939.865 231.304 937.466 233.249 936.159 235.508C933.393 240.29 935.901 245.593 935.525 250.682C935.039 257.257 929.343 263.591 920.68 267.194C935.481 267.532 949.558 262.159 958.871 254.837C968.185 247.516 973.372 238.435 977.26 229.349C979.258 225.082 980.54 220.652 981.075 216.157C981.385 213.575 980.972 210.974 979.863 208.513C978.495 206.109 976.694 203.85 974.507 201.798C972.175 199.39 969.779 196.936 966.338 195.145C962.1 192.939 953.928 190.724 948.306 191.045C941.41 191.439 939.956 196.813 939.666 200.327Z" fill="#2F2E41"/>
<path d="M962.464 218.318C962.464 218.318 971.055 240.68 964.026 246.987C956.997 253.294 1006.2 244.12 1006.2 244.12C1006.2 244.12 981.989 226.346 993.704 214.878L962.464 218.318Z" fill="#FFB9B9"/>
<path opacity="0.1" d="M962.464 218.318C962.464 218.318 971.055 240.68 964.026 246.987C956.997 253.294 1006.2 244.12 1006.2 244.12C1006.2 244.12 981.989 226.346 993.704 214.878L962.464 218.318Z" fill="black"/>
<path d="M934.349 516.477V533.105L946.064 543.425L956.217 539.985L953.093 515.903L934.349 516.477Z" fill="#FFB9B9"/>
<path d="M939.035 531.957C939.035 531.957 935.911 523.93 930.444 529.663C924.977 535.397 919.51 548.012 916.386 548.585C913.262 549.158 891.394 566.933 913.262 566.933C935.13 566.933 942.159 559.479 942.159 559.479C942.159 559.479 964.027 553.172 964.027 552.025C964.027 550.879 960.903 529.663 959.341 529.663C957.779 529.663 956.998 533.677 953.093 533.677C949.188 533.677 939.035 531.957 939.035 531.957Z" fill="#2F2E41"/>
<path d="M986.676 519.343L985.895 534.825L1004.64 540.558V518.196L986.676 519.343Z" fill="#FFB9B9"/>
<path d="M1006.98 534.824C1006.98 534.824 996.828 526.797 991.361 528.517C988.656 529.316 986.044 530.275 983.551 531.384C983.551 531.384 980.427 538.838 978.865 545.145C977.303 551.452 976.521 554.319 974.96 556.613C973.398 558.906 971.835 567.507 987.456 568.654C1003.08 569.8 1007.76 563.493 1007.76 563.493L1011.67 548.585C1011.67 548.585 1010.1 534.824 1006.98 534.824Z" fill="#2F2E41"/>
<path d="M944.501 354.209C944.501 354.209 921.852 391.479 924.976 425.308C924.976 425.308 917.166 438.496 921.852 459.138C926.538 479.779 932.786 521.063 932.786 521.063C932.786 521.063 953.873 522.783 955.435 519.916C955.435 519.916 956.997 491.247 958.559 490.1C960.121 488.954 957.778 462.578 955.435 457.418C953.092 452.257 977.303 401.226 977.303 401.226L971.055 337.581L944.501 354.209Z" fill="#2F2E41"/>
<path opacity="0.1" d="M944.501 354.209C944.501 354.209 921.852 391.479 924.976 425.308C924.976 425.308 917.166 438.496 921.852 459.138C926.538 479.779 932.786 521.063 932.786 521.063C932.786 521.063 953.873 522.783 955.435 519.916C955.435 519.916 956.997 491.247 958.559 490.1C960.121 488.954 957.778 462.578 955.435 457.418C953.092 452.257 977.303 401.226 977.303 401.226L971.055 337.581L944.501 354.209Z" fill="black"/>
<path d="M938.252 351.916L953.091 375.424C953.091 375.424 960.12 428.749 964.025 435.629C964.025 435.629 965.587 455.124 972.616 461.431C979.645 467.739 985.112 523.357 985.112 523.357C985.112 523.357 1004.64 527.37 1006.2 523.357C1007.76 519.343 1012.45 491.821 1012.45 491.821C1012.45 491.821 1014.01 468.312 1005.42 452.831C996.827 437.349 1015.57 381.731 1015.57 381.731C1015.57 381.731 1035.1 354.783 1006.98 332.994L938.252 351.916Z" fill="#2F2E41"/>
<path d="M979.647 225.199C997.332 225.199 1011.67 214.674 1011.67 201.69C1011.67 188.707 997.332 178.182 979.647 178.182C961.962 178.182 947.626 188.707 947.626 201.69C947.626 214.674 961.962 225.199 979.647 225.199Z" fill="#FFB9B9"/>
<path d="M1009.32 237.24C1009.32 237.24 975.741 237.24 971.055 240.107C969.897 240.916 968.359 241.368 966.76 241.368C965.16 241.368 963.622 240.916 962.464 240.107C962.464 240.107 950.749 240.681 947.625 247.561C944.501 254.442 935.129 263.616 935.129 263.616C935.129 263.616 921.071 271.07 928.881 290.565C936.691 310.06 930.443 341.596 930.443 341.596C930.443 341.596 924.195 348.476 930.443 351.343C936.691 354.21 939.034 355.357 938.253 357.65C937.472 359.944 1009.32 338.729 1009.32 334.715C1009.32 330.701 1007.76 327.261 1009.32 325.541C1010.89 323.821 1012.45 320.954 1010.89 318.087C1009.32 315.22 1012.45 314.647 1011.67 311.78C1010.89 308.913 1015.57 287.698 1018.7 278.524C1021.82 269.35 1021.04 237.814 1009.32 237.24Z" fill="#D0CDE1"/>
<path d="M891.021 293.436C891.021 293.436 860.153 276.23 857.81 282.537C855.467 288.844 880.459 303.179 880.459 303.179L891.021 293.436Z" fill="#FFB9B9"/>
<path d="M992.923 240.106C992.923 240.106 956.216 288.27 955.435 295.151C954.654 302.032 954.654 302.605 951.53 302.032C948.406 301.458 905.451 298.018 901.546 299.165C897.641 300.311 889.831 292.284 889.831 292.284C889.831 292.284 874.992 303.178 878.116 305.472C881.24 307.765 890.612 308.912 892.174 311.779C893.736 314.646 896.079 317.513 903.108 316.939C910.137 316.366 957.778 326.114 964.026 324.393C970.274 322.673 971.836 319.806 974.96 319.806C978.084 319.806 984.332 317.513 984.332 316.939C984.332 316.366 1006.2 285.977 1006.2 285.977C1006.2 285.977 1031.97 244.693 992.923 240.106Z" fill="#D0CDE1"/>
<path d="M963.79 216.71C963.347 214.382 961.722 212.269 960.889 209.999C960.237 208.183 960.092 206.288 960.464 204.429C960.835 202.57 961.714 200.785 963.05 199.183C967.642 193.736 976.66 191.324 982.949 186.884C983.079 189.146 985.217 191.078 987.58 192.533C989.942 193.988 992.652 195.167 994.653 196.89C996.575 198.707 997.976 200.791 998.772 203.017C1000 205.595 1000.56 208.322 1000.4 211.052C1000.31 212.416 999.843 213.753 999.027 214.98C998.212 216.208 997.065 217.301 995.657 218.193C993.314 219.552 990.041 220.329 988.91 222.357C988.465 223.371 988.336 224.445 988.533 225.5C989.07 231.808 989.571 238.229 987.547 244.372C985.524 250.516 980.567 256.451 972.798 259.175C979.182 259.507 985.701 259.832 991.896 258.648C998.09 257.465 1004.01 254.486 1006.15 250.056C1007.2 247.871 1007.3 245.44 1008.8 243.399C1012.59 238.233 1023.05 237.998 1028.19 233.505C1030.25 231.707 1031.24 229.39 1031.98 227.105C1036.32 213.661 1033.27 199.386 1026.66 186.449C1024.39 181.99 1021.55 177.5 1016.67 174.366C1012.51 171.699 1007.21 170.23 1001.96 168.975C994.297 167.144 986.407 165.643 978.356 165.45C974.858 165.299 971.352 165.6 967.996 166.338C964.683 167.217 961.599 168.506 958.88 170.15C946.268 177.355 937.682 188.869 938.821 200.571C939.51 207.652 943.597 214.353 948.847 220.314C950.683 222.399 955.021 226.845 959.053 225.534C962.71 224.345 964.27 219.224 963.79 216.71Z" fill="#2F2E41"/>
<path d="M325.435 204.835C342.964 204.835 357.174 196.698 357.174 186.66C357.174 176.622 342.964 168.484 325.435 168.484C307.906 168.484 293.695 176.622 293.695 186.66C293.695 196.698 307.906 204.835 325.435 204.835Z" fill="#2F2E41"/>
<path d="M272.009 528.878C272.009 528.878 258.696 553.525 265.642 556.499C272.587 559.474 345.518 557.349 345.518 557.349C345.518 557.349 357.673 551.825 343.781 548C343.781 548 332.205 547.576 324.68 544.176C317.156 540.777 308.474 534.402 308.474 534.402C308.474 534.402 307.895 525.054 303.264 527.178C301.879 527.849 300.7 528.724 299.803 529.748C298.906 530.773 298.31 531.924 298.055 533.128L272.009 528.878Z" fill="#2F2E41"/>
<path opacity="0.1" d="M272.009 528.878C272.009 528.878 258.696 553.525 265.642 556.499C272.587 559.474 345.518 557.349 345.518 557.349C345.518 557.349 357.673 551.825 343.781 548C343.781 548 332.205 547.576 324.68 544.176C317.156 540.777 308.474 534.402 308.474 534.402C308.474 534.402 307.895 525.054 303.264 527.178C301.879 527.849 300.7 528.724 299.803 529.748C298.906 530.773 298.31 531.924 298.055 533.128L272.009 528.878Z" fill="black"/>
<path d="M250.69 536.969C250.69 536.969 236.089 563.999 243.707 567.262C251.324 570.524 331.307 568.194 331.307 568.194C331.307 568.194 344.638 562.135 329.403 557.941C329.403 557.941 316.707 557.475 308.455 553.747C300.203 550.018 290.681 543.028 290.681 543.028C290.681 543.028 290.046 532.775 284.968 535.105C283.449 535.84 282.155 536.8 281.172 537.924C280.188 539.048 279.535 540.31 279.255 541.63L250.69 536.969Z" fill="#2F2E41"/>
<path d="M325.594 365.469L316.707 424.189C316.707 424.189 313.533 452.151 304.011 458.21C304.011 458.21 304.011 467.064 300.837 469.861L296.393 506.677C296.393 506.677 302.741 520.192 302.106 522.522C301.472 524.853 304.646 532.309 304.011 533.241C303.376 534.173 273.541 533.241 273.541 533.241L279.889 458.21L299.567 353.818L325.594 365.469Z" fill="#2F2E41"/>
<path opacity="0.1" d="M325.594 365.469L316.707 424.189C316.707 424.189 313.533 452.151 304.011 458.21C304.011 458.21 304.011 467.064 300.837 469.861L296.393 506.677C296.393 506.677 302.741 520.192 302.106 522.522C301.472 524.853 304.646 532.309 304.011 533.241C303.376 534.173 273.541 533.241 273.541 533.241L279.889 458.21L299.567 353.818L325.594 365.469Z" fill="black"/>
<path d="M309.724 363.605C309.724 363.605 302.742 411.607 299.568 421.859C297.572 428.611 296.299 435.467 295.759 442.365C295.759 442.365 295.124 457.278 289.411 461.472C287.74 462.687 286.426 464.142 285.553 465.745C284.679 467.348 284.264 469.067 284.333 470.793C284.333 470.793 278.62 517.862 281.794 523.455C284.968 529.047 288.142 533.707 284.968 537.436C281.794 541.164 246.881 541.164 246.881 538.368C246.881 535.571 246.881 533.241 244.976 531.843C243.072 530.445 244.976 521.591 244.976 521.591C244.976 521.591 237.359 480.114 244.341 467.997C251.324 455.88 254.498 422.791 254.498 422.791C254.498 422.791 249.42 385.043 243.072 378.984C236.724 372.926 244.341 351.488 244.341 351.488L309.724 363.605Z" fill="#2F2E41"/>
<path d="M291.854 214.54C292.591 215.774 294.358 216.461 295.966 217.112C305.286 220.881 313.087 226.346 320.773 231.749C318.855 226.977 319.264 221.864 321.929 217.29C322.846 215.73 324.049 214.053 323.393 212.423C322.911 211.224 321.521 210.36 320.174 209.595C317.038 207.815 313.76 206.173 310.358 204.678C307.981 203.634 303.094 200.855 300.367 201.158C300.224 203.863 300.149 206.282 298.535 208.811C298.152 209.411 292.136 215.012 291.854 214.54Z" fill="#A0616A"/>
<path d="M324.325 220.532C338.699 220.532 350.351 211.977 350.351 201.425C350.351 190.872 338.699 182.317 324.325 182.317C309.951 182.317 298.299 190.872 298.299 201.425C298.299 211.977 309.951 220.532 324.325 220.532Z" fill="#A0616A"/>
<path d="M325.594 246.629C325.594 246.629 330.038 230.318 317.342 224.726C304.646 219.133 290.046 212.609 290.046 212.609C290.046 212.609 285.603 212.143 283.698 219.133C283.698 219.133 247.516 224.26 243.707 249.426C239.898 274.591 246.246 311.408 246.246 311.408C246.246 311.408 240.533 343.564 233.55 360.808C233.55 360.808 227.837 364.536 253.229 358.944C278.62 353.351 323.055 374.789 323.055 374.789C323.055 374.789 327.499 371.526 327.499 369.196C327.499 366.866 332.577 353.351 332.577 353.351C332.577 353.351 337.021 296.029 338.925 289.505C340.829 282.98 331.307 247.561 325.594 246.629Z" fill="#575A89"/>
<path d="M318.191 203.393C319.754 202.757 321.508 202.414 323.295 202.395C325.085 202.375 326.832 201.993 328.345 201.29C330.803 199.905 330.983 197.227 332.782 195.374C335.386 192.691 340.58 192.368 345.064 192.502C347.806 192.584 350.759 192.704 353.069 191.616C355.439 190.498 356.514 188.391 357.313 186.408C358.258 184.062 358.87 181.194 356.527 179.454C354.901 178.246 352.333 178.007 350.526 176.946C348.653 175.846 347.882 174.056 346.863 172.461C345.705 170.518 343.871 168.832 341.547 167.572C338.138 165.834 333.785 165.444 329.634 165.476C325.484 165.509 321.316 165.91 317.196 165.536C313.821 165.229 310.456 164.405 307.092 164.77C302.805 165.236 299.259 167.61 297.146 170.388C295.034 173.166 294.128 176.337 293.249 179.452L290.859 187.925C290.117 190.553 289.373 193.251 289.945 195.901C291.131 201.396 297.75 205.764 298.207 211.317C298.641 209.783 299.588 208.353 300.961 207.154C302.334 205.956 304.091 205.026 306.074 204.448C306.571 204.27 307.136 204.22 307.677 204.306C308.335 204.46 308.719 204.942 309.134 205.347C310.222 206.409 313.637 208.019 315.574 207.266C317.306 206.592 316.013 204.478 318.191 203.393Z" fill="#2F2E41"/>
<path d="M252.592 290.436C252.592 290.436 248.149 310.942 266.557 309.078C266.557 309.078 276.079 308.146 277.349 309.078C278.618 310.01 325.593 303.951 331.94 298.825C331.94 298.825 339.558 296.961 343.367 299.757C347.175 302.553 385.263 305.349 373.836 296.961C362.41 288.572 344.636 286.708 344.636 286.708L320.514 287.64C320.514 287.64 307.819 290.436 300.201 287.64C292.584 284.844 271.001 285.776 271.001 285.776L252.592 290.436Z" fill="#A0616A"/>
<path d="M278.619 225.658C278.619 225.658 250.054 227.988 250.054 258.281V296.961C250.054 296.961 265.923 291.835 269.097 292.301C272.271 292.767 284.967 286.243 284.967 286.243C284.967 286.243 299.567 261.077 298.298 254.086C297.028 247.096 297.663 226.59 278.619 225.658Z" fill="#575A89"/>
<path d="M324.324 198.862C337.821 198.862 348.763 194.689 348.763 189.541C348.763 184.394 337.821 180.221 324.324 180.221C310.827 180.221 299.885 184.394 299.885 189.541C299.885 194.689 310.827 198.862 324.324 198.862Z" fill="#2F2E41"/>
<path d="M301.472 206.784C306.205 206.784 310.042 199.794 310.042 191.172C310.042 182.549 306.205 175.56 301.472 175.56C296.739 175.56 292.902 182.549 292.902 191.172C292.902 199.794 296.739 206.784 301.472 206.784Z" fill="#2F2E41"/>
<defs>
<filter id="filter0_d" x="60.0547" y="32" width="1146.92" height="574.999" filterUnits="userSpaceOnUse" color-interpolation-filters="sRGB">
<feFlood flood-opacity="0" result="BackgroundImageFix"/>
<feColorMatrix in="SourceAlpha" type="matrix" values="0 0 0 0 0 0 0 0 0 0 0 0 0 0 0 0 0 0 127 0"/>
<feOffset dy="4"/>
<feGaussianBlur stdDeviation="2"/>
<feColorMatrix type="matrix" values="0 0 0 0 0 0 0 0 0 0 0 0 0 0 0 0 0 0 0.25 0"/>
<feBlend mode="normal" in2="BackgroundImageFix" result="effect1_dropShadow"/>
<feBlend mode="normal" in="SourceGraphic" in2="effect1_dropShadow" result="shape"/>
</filter>
<filter id="filter1_dd" x="350.861" y="52" width="563.143" height="486.055" filterUnits="userSpaceOnUse" color-interpolation-filters="sRGB">
<feFlood flood-opacity="0" result="BackgroundImageFix"/>
<feColorMatrix in="SourceAlpha" type="matrix" values="0 0 0 0 0 0 0 0 0 0 0 0 0 0 0 0 0 0 127 0"/>
<feOffset dx="-4" dy="4"/>
<feGaussianBlur stdDeviation="5"/>
<feColorMatrix type="matrix" values="0 0 0 0 0 0 0 0 0 0 0 0 0 0 0 0 0 0 0.3 0"/>
<feBlend mode="normal" in2="BackgroundImageFix" result="effect1_dropShadow"/>
<feColorMatrix in="SourceAlpha" type="matrix" values="0 0 0 0 0 0 0 0 0 0 0 0 0 0 0 0 0 0 127 0"/>
<feOffset dx="4"/>
<feGaussianBlur stdDeviation="5"/>
<feColorMatrix type="matrix" values="0 0 0 0 0 0 0 0 0 0 0 0 0 0 0 0 0 0 0.3 0"/>
<feBlend mode="normal" in2="effect1_dropShadow" result="effect2_dropShadow"/>
<feBlend mode="normal" in="SourceGraphic" in2="effect2_dropShadow" result="shape"/>
</filter>
<filter id="filter2_d" x="409.467" y="154.411" width="439.195" height="52.0052" filterUnits="userSpaceOnUse" color-interpolation-filters="sRGB">
<feFlood flood-opacity="0" result="BackgroundImageFix"/>
<feColorMatrix in="SourceAlpha" type="matrix" values="0 0 0 0 0 0 0 0 0 0 0 0 0 0 0 0 0 0 127 0"/>
<feOffset dy="4"/>
<feGaussianBlur stdDeviation="2"/>
<feColorMatrix type="matrix" values="0 0 0 0 0 0 0 0 0 0 0 0 0 0 0 0 0 0 0.25 0"/>
<feBlend mode="normal" in2="BackgroundImageFix" result="effect1_dropShadow"/>
<feBlend mode="normal" in="SourceGraphic" in2="effect1_dropShadow" result="shape"/>
</filter>
<filter id="filter3_d" x="409.467" y="221.152" width="439.195" height="52.0052" filterUnits="userSpaceOnUse" color-interpolation-filters="sRGB">
<feFlood flood-opacity="0" result="BackgroundImageFix"/>
<feColorMatrix in="SourceAlpha" type="matrix" values="0 0 0 0 0 0 0 0 0 0 0 0 0 0 0 0 0 0 127 0"/>
<feOffset dy="4"/>
<feGaussianBlur stdDeviation="2"/>
<feColorMatrix type="matrix" values="0 0 0 0 0 0 0 0 0 0 0 0 0 0 0 0 0 0 0.25 0"/>
<feBlend mode="normal" in2="BackgroundImageFix" result="effect1_dropShadow"/>
<feBlend mode="normal" in="SourceGraphic" in2="effect1_dropShadow" result="shape"/>
</filter>
<clipPath id="clip0">
<rect width="1267" height="631" fill="white"/>
</clipPath>
<clipPath id="clip1">
<rect x="456.778" y="160.278" width="38.4995" height="29.3368" fill="white"/>
</clipPath>
</defs>
</svg>
